G04*
G04 #@! TF.GenerationSoftware,Altium Limited,Altium Designer,25.0.2 (28)*
G04*
G04 Layer_Physical_Order=1*
G04 Layer_Color=255*
%FSLAX44Y44*%
%MOMM*%
G71*
G04*
G04 #@! TF.SameCoordinates,A7C3AEC9-9CA1-47B5-BDAE-58582B56A9DF*
G04*
G04*
G04 #@! TF.FilePolarity,Positive*
G04*
G01*
G75*
%ADD11C,0.3810*%
%ADD13C,0.2540*%
%ADD17R,1.5240X2.3000*%
%ADD18R,1.5240X1.5240*%
%ADD19R,2.3000X1.5240*%
%ADD20R,0.6500X1.5250*%
%ADD21R,1.5240X1.5240*%
%ADD22R,1.5500X0.6000*%
%ADD23R,1.0000X1.5000*%
%ADD24R,1.2000X2.0000*%
%ADD50C,0.6350*%
%ADD51C,1.2700*%
%ADD52C,1.5500*%
%ADD53R,1.1000X1.1000*%
%ADD54C,1.1000*%
%ADD55R,1.1000X1.1000*%
%ADD56O,1.5000X2.0000*%
%ADD57C,1.0500*%
%ADD58C,1.8000*%
%ADD59R,1.5500X1.5500*%
%ADD60O,2.0000X1.5000*%
%ADD61O,1.5240X2.0320*%
%ADD62O,2.5000X1.8000*%
%ADD63C,1.5000*%
%ADD64C,3.3000*%
%ADD65C,1.3000*%
%ADD66R,1.3000X1.3000*%
%ADD67C,1.2700*%
G36*
X1641115Y258885D02*
X820673D01*
X820187Y260058D01*
X831245Y271115D01*
X831245Y271115D01*
X832227Y272586D01*
X832572Y274320D01*
X832572Y274320D01*
Y312420D01*
X832572Y312420D01*
X832227Y314154D01*
X831245Y315625D01*
X831245Y315625D01*
X819872Y326997D01*
Y482600D01*
X819872Y482600D01*
X819527Y484334D01*
X818545Y485805D01*
X813463Y490886D01*
X813463Y490886D01*
X812195Y492155D01*
X812195Y492155D01*
X810724Y493137D01*
X808990Y493482D01*
X807720D01*
Y499110D01*
X787400D01*
Y478790D01*
X807720D01*
Y482151D01*
X808893Y482637D01*
X810808Y480723D01*
Y325120D01*
X811153Y323386D01*
X812135Y321915D01*
X823508Y310543D01*
Y276197D01*
X813463Y266152D01*
X755381D01*
X755256Y267422D01*
X756114Y267593D01*
X757585Y268575D01*
X770285Y281275D01*
X770285Y281275D01*
X771267Y282746D01*
X771612Y284480D01*
X771612Y284480D01*
Y292763D01*
X800765Y321915D01*
X800765Y321915D01*
X801747Y323386D01*
X802092Y325120D01*
Y453390D01*
X807720D01*
Y473710D01*
X787400D01*
Y453390D01*
X793028D01*
Y326997D01*
X763875Y297845D01*
X762893Y296374D01*
X762548Y294640D01*
Y286357D01*
X752503Y276312D01*
X712497D01*
X703136Y285674D01*
X703440Y286810D01*
Y289190D01*
X702824Y291489D01*
X701634Y293551D01*
X699951Y295234D01*
X697889Y296424D01*
X695590Y297040D01*
X693210D01*
X690911Y296424D01*
X688849Y295234D01*
X687166Y293551D01*
X685976Y291489D01*
X685360Y289190D01*
Y286810D01*
X685976Y284511D01*
X687166Y282449D01*
X688849Y280766D01*
X690911Y279576D01*
X693210Y278960D01*
X695590D01*
X696726Y279264D01*
X707415Y268575D01*
X707415Y268575D01*
X708886Y267593D01*
X709744Y267422D01*
X709619Y266152D01*
X697257D01*
X677736Y285674D01*
X678040Y286810D01*
Y289190D01*
X677424Y291489D01*
X676234Y293551D01*
X674551Y295234D01*
X672489Y296424D01*
X670190Y297040D01*
X667810D01*
X665511Y296424D01*
X663449Y295234D01*
X661766Y293551D01*
X660576Y291489D01*
X659960Y289190D01*
Y286810D01*
X660576Y284511D01*
X661766Y282449D01*
X663449Y280766D01*
X665511Y279576D01*
X667810Y278960D01*
X670190D01*
X671326Y279264D01*
X690533Y260058D01*
X690047Y258885D01*
X233885D01*
Y1436115D01*
X1641115D01*
Y258885D01*
D02*
G37*
%LPC*%
G36*
X1182500Y1415639D02*
X1180905D01*
Y1405905D01*
X1193889D01*
X1193743Y1407012D01*
X1192580Y1409820D01*
X1190730Y1412230D01*
X1188320Y1414080D01*
X1185513Y1415243D01*
X1182500Y1415639D01*
D02*
G37*
G36*
X982500D02*
X980905D01*
Y1405905D01*
X993889D01*
X993743Y1407012D01*
X992580Y1409820D01*
X990730Y1412230D01*
X988320Y1414080D01*
X985513Y1415243D01*
X982500Y1415639D01*
D02*
G37*
G36*
X977095D02*
X975500D01*
X972487Y1415243D01*
X969680Y1414080D01*
X967270Y1412230D01*
X965420Y1409820D01*
X964257Y1407012D01*
X964111Y1405905D01*
X977095D01*
Y1415639D01*
D02*
G37*
G36*
X1177095D02*
X1175500D01*
X1172487Y1415243D01*
X1169680Y1414080D01*
X1167270Y1412230D01*
X1165420Y1409820D01*
X1164257Y1407012D01*
X1164111Y1405905D01*
X1177095D01*
Y1415639D01*
D02*
G37*
G36*
X1193889Y1402095D02*
X1180905D01*
Y1392360D01*
X1182500D01*
X1185513Y1392757D01*
X1188320Y1393920D01*
X1190730Y1395770D01*
X1192580Y1398180D01*
X1193743Y1400987D01*
X1193889Y1402095D01*
D02*
G37*
G36*
X1177095D02*
X1164111D01*
X1164257Y1400987D01*
X1165420Y1398180D01*
X1167270Y1395770D01*
X1169680Y1393920D01*
X1172487Y1392757D01*
X1175500Y1392360D01*
X1177095D01*
Y1402095D01*
D02*
G37*
G36*
X993889D02*
X980905D01*
Y1392360D01*
X982500D01*
X985513Y1392757D01*
X988320Y1393920D01*
X990730Y1395770D01*
X992580Y1398180D01*
X993743Y1400987D01*
X993889Y1402095D01*
D02*
G37*
G36*
X977095D02*
X964111D01*
X964257Y1400987D01*
X965420Y1398180D01*
X967270Y1395770D01*
X969680Y1393920D01*
X972487Y1392757D01*
X975500Y1392360D01*
X977095D01*
Y1402095D01*
D02*
G37*
G36*
X982500Y1390240D02*
X980905D01*
Y1380505D01*
X993889D01*
X993743Y1381613D01*
X992580Y1384420D01*
X990730Y1386830D01*
X988320Y1388680D01*
X985513Y1389843D01*
X982500Y1390240D01*
D02*
G37*
G36*
X977095D02*
X975500D01*
X972487Y1389843D01*
X969680Y1388680D01*
X967270Y1386830D01*
X965420Y1384420D01*
X964257Y1381613D01*
X964111Y1380505D01*
X977095D01*
Y1390240D01*
D02*
G37*
G36*
X1261322Y1392540D02*
X1258678D01*
X1256125Y1391856D01*
X1253835Y1390534D01*
X1251966Y1388665D01*
X1250644Y1386375D01*
X1249960Y1383822D01*
Y1381178D01*
X1250644Y1378625D01*
X1251966Y1376335D01*
X1253835Y1374466D01*
X1256125Y1373144D01*
X1258678Y1372460D01*
X1261322D01*
X1263875Y1373144D01*
X1266165Y1374466D01*
X1268034Y1376335D01*
X1269356Y1378625D01*
X1270040Y1381178D01*
Y1383822D01*
X1269356Y1386375D01*
X1268034Y1388665D01*
X1266165Y1390534D01*
X1263875Y1391856D01*
X1261322Y1392540D01*
D02*
G37*
G36*
X993889Y1376695D02*
X980905D01*
Y1366960D01*
X982500D01*
X985513Y1367357D01*
X988320Y1368520D01*
X990730Y1370370D01*
X992580Y1372780D01*
X993743Y1375587D01*
X993889Y1376695D01*
D02*
G37*
G36*
X977095D02*
X964111D01*
X964257Y1375587D01*
X965420Y1372780D01*
X967270Y1370370D01*
X969680Y1368520D01*
X972487Y1367357D01*
X975500Y1366960D01*
X977095D01*
Y1376695D01*
D02*
G37*
G36*
X1182500Y1390240D02*
X1175500D01*
X1172487Y1389843D01*
X1169680Y1388680D01*
X1167270Y1386830D01*
X1165420Y1384420D01*
X1164257Y1381613D01*
X1163860Y1378600D01*
X1164257Y1375587D01*
X1165420Y1372780D01*
X1167270Y1370370D01*
X1169680Y1368520D01*
X1170033Y1368374D01*
Y1363426D01*
X1169680Y1363280D01*
X1167270Y1361430D01*
X1165420Y1359020D01*
X1165381Y1358927D01*
X1112160D01*
Y1363160D01*
X1091840D01*
Y1342840D01*
X1112160D01*
Y1347273D01*
X1165502D01*
X1167270Y1344970D01*
X1169680Y1343120D01*
X1172487Y1341957D01*
X1175500Y1341560D01*
X1182500D01*
X1185513Y1341957D01*
X1188320Y1343120D01*
X1188449Y1343219D01*
X1191720D01*
X1202613Y1332326D01*
Y1167034D01*
X1184576Y1148997D01*
X1182326Y1148065D01*
X1180204Y1146436D01*
X1178575Y1144314D01*
X1177551Y1141842D01*
X1177202Y1139190D01*
Y1134110D01*
X1177551Y1131458D01*
X1178483Y1129208D01*
Y1117504D01*
X1155269Y1094290D01*
X1153845Y1092433D01*
X1152949Y1090271D01*
X1152643Y1087950D01*
Y1072826D01*
X1152268Y1071921D01*
X1151923Y1069300D01*
Y1064300D01*
X1152268Y1061679D01*
X1153280Y1059237D01*
X1154889Y1057139D01*
X1154953Y1057091D01*
Y1051434D01*
X1150746Y1047227D01*
X1114934D01*
X1048060Y1114100D01*
X1046170Y1115363D01*
X1043940Y1115807D01*
X1021080D01*
Y1120140D01*
X1000760D01*
Y1099820D01*
X1012839D01*
X1014173Y1098486D01*
Y1093590D01*
X1009710D01*
Y1082510D01*
X1018557D01*
X1020000Y1082223D01*
X1021443Y1082510D01*
X1030290D01*
Y1093590D01*
X1025827D01*
Y1100900D01*
X1025433Y1102883D01*
X1026111Y1104153D01*
X1041526D01*
X1108400Y1037280D01*
X1110290Y1036017D01*
X1112520Y1035573D01*
X1153160D01*
X1155390Y1036017D01*
X1157280Y1037280D01*
X1164900Y1044900D01*
X1166163Y1046790D01*
X1166607Y1049020D01*
Y1055320D01*
X1167113Y1055530D01*
X1169211Y1057139D01*
X1170820Y1059237D01*
X1171832Y1061679D01*
X1172177Y1064300D01*
Y1069300D01*
X1171832Y1071921D01*
X1170820Y1074363D01*
X1170577Y1074680D01*
Y1084236D01*
X1193790Y1107450D01*
X1195215Y1109307D01*
X1196111Y1111469D01*
X1196417Y1113790D01*
Y1129208D01*
X1197348Y1131458D01*
X1197698Y1134110D01*
Y1136757D01*
X1217920Y1156980D01*
X1218314Y1157493D01*
X1379346D01*
X1381173Y1155667D01*
Y1149439D01*
X1379460D01*
Y1129359D01*
X1381173D01*
Y1064260D01*
X1380490D01*
Y1043940D01*
X1400810D01*
Y1048273D01*
X1418590D01*
Y1043940D01*
X1438910D01*
X1438910Y1043940D01*
Y1043940D01*
X1440010Y1043489D01*
X1457213Y1026286D01*
Y924560D01*
Y888874D01*
X1440306Y871967D01*
X1371600D01*
Y876300D01*
X1365232D01*
Y900408D01*
X1366520Y902087D01*
X1367532Y904529D01*
X1367877Y907150D01*
Y912150D01*
X1367532Y914771D01*
X1366520Y917213D01*
X1364911Y919311D01*
X1362813Y920920D01*
X1360371Y921932D01*
X1357750Y922277D01*
X1355129Y921932D01*
X1352687Y920920D01*
X1350589Y919311D01*
X1348980Y917213D01*
X1347968Y914771D01*
X1347623Y912150D01*
Y907150D01*
X1347968Y904529D01*
X1348980Y902087D01*
X1350589Y899989D01*
X1352687Y898380D01*
X1353578Y898011D01*
Y876300D01*
X1351280D01*
Y855980D01*
X1371600D01*
Y860313D01*
X1442720D01*
X1444950Y860757D01*
X1446840Y862020D01*
X1463040Y878219D01*
X1467373Y873886D01*
Y855980D01*
X1463040D01*
Y835660D01*
X1483360D01*
Y855980D01*
X1479027D01*
Y876300D01*
X1478583Y878530D01*
X1477320Y880420D01*
X1468867Y888874D01*
Y918733D01*
X1493520D01*
X1495750Y919177D01*
X1497640Y920440D01*
X1534738Y957537D01*
X1536001Y959428D01*
X1536444Y961657D01*
Y969084D01*
X1570241Y1002880D01*
X1578080D01*
Y1018960D01*
X1562000D01*
Y1011121D01*
X1526497Y975618D01*
X1525234Y973727D01*
X1524790Y971497D01*
Y964071D01*
X1491106Y930387D01*
X1468867D01*
Y984172D01*
X1469021Y984235D01*
X1470137Y984384D01*
X1471166Y982601D01*
X1472821Y980946D01*
X1474849Y979776D01*
X1477110Y979170D01*
X1479450D01*
X1481711Y979776D01*
X1483739Y980946D01*
X1485394Y982601D01*
X1486564Y984629D01*
X1487170Y986890D01*
Y988709D01*
X1487480Y989020D01*
X1488743Y990910D01*
X1489187Y993140D01*
Y1076960D01*
X1488743Y1079190D01*
X1487480Y1081080D01*
X1484127Y1084434D01*
Y1129359D01*
X1485840D01*
Y1149439D01*
X1470760D01*
Y1129359D01*
X1472473D01*
Y1082020D01*
X1472917Y1079790D01*
X1474180Y1077900D01*
X1477533Y1074546D01*
Y1065313D01*
X1477010Y1064260D01*
X1476263Y1064260D01*
X1456690D01*
Y1059927D01*
X1438910D01*
Y1064260D01*
X1418590D01*
Y1059927D01*
X1400810D01*
Y1064260D01*
X1392827D01*
Y1129359D01*
X1394540D01*
Y1149439D01*
X1392827D01*
Y1158080D01*
X1392383Y1160310D01*
X1391120Y1162200D01*
X1385880Y1167440D01*
X1383990Y1168703D01*
X1381760Y1169147D01*
X1220547D01*
Y1336040D01*
X1220241Y1338361D01*
X1219345Y1340523D01*
X1217920Y1342380D01*
X1201775Y1358526D01*
X1199918Y1359951D01*
X1197755Y1360847D01*
X1195434Y1361153D01*
X1190944D01*
X1190730Y1361430D01*
X1188320Y1363280D01*
X1187967Y1363426D01*
Y1368374D01*
X1188320Y1368520D01*
X1190730Y1370370D01*
X1192580Y1372780D01*
X1193743Y1375587D01*
X1194140Y1378600D01*
X1193743Y1381613D01*
X1192580Y1384420D01*
X1190730Y1386830D01*
X1188320Y1388680D01*
X1185513Y1389843D01*
X1182500Y1390240D01*
D02*
G37*
G36*
X399867Y1384340D02*
X396433D01*
X393117Y1383451D01*
X390143Y1381735D01*
X387715Y1379307D01*
X385999Y1376333D01*
X385110Y1373017D01*
Y1369583D01*
X385999Y1366267D01*
X387715Y1363293D01*
X390143Y1360865D01*
X393117Y1359149D01*
X396433Y1358260D01*
X399867D01*
X403183Y1359149D01*
X406157Y1360865D01*
X408585Y1363293D01*
X410301Y1366267D01*
X411190Y1369583D01*
Y1373017D01*
X410301Y1376333D01*
X408585Y1379307D01*
X406157Y1381735D01*
X403183Y1383451D01*
X399867Y1384340D01*
D02*
G37*
G36*
X1077870Y1363160D02*
X1069615D01*
Y1354905D01*
X1077870D01*
Y1363160D01*
D02*
G37*
G36*
X1065805D02*
X1057550D01*
Y1354905D01*
X1065805D01*
Y1363160D01*
D02*
G37*
G36*
X1503322Y1392540D02*
X1500678D01*
X1498125Y1391856D01*
X1495835Y1390534D01*
X1493966Y1388665D01*
X1492644Y1386375D01*
X1491960Y1383822D01*
Y1381178D01*
X1492644Y1378625D01*
X1493966Y1376335D01*
X1495835Y1374466D01*
X1498125Y1373144D01*
X1500678Y1372460D01*
X1503322D01*
X1505875Y1373144D01*
X1507190Y1373903D01*
X1508460Y1373170D01*
Y1348960D01*
X1525540D01*
Y1374040D01*
X1509535D01*
X1509009Y1375310D01*
X1510034Y1376335D01*
X1511356Y1378625D01*
X1512040Y1381178D01*
Y1383822D01*
X1511356Y1386375D01*
X1510034Y1388665D01*
X1508165Y1390534D01*
X1505875Y1391856D01*
X1503322Y1392540D01*
D02*
G37*
G36*
X1572220D02*
X1567780D01*
X1563425Y1391674D01*
X1559323Y1389975D01*
X1555632Y1387508D01*
X1552492Y1384368D01*
X1550025Y1380677D01*
X1548326Y1376575D01*
X1547460Y1372220D01*
Y1367780D01*
X1548326Y1363425D01*
X1550025Y1359323D01*
X1552492Y1355632D01*
X1555632Y1352492D01*
X1559323Y1350025D01*
X1563425Y1348326D01*
X1567780Y1347460D01*
X1572220D01*
X1576575Y1348326D01*
X1580677Y1350025D01*
X1584368Y1352492D01*
X1587508Y1355632D01*
X1589975Y1359323D01*
X1591674Y1363425D01*
X1592540Y1367780D01*
Y1372220D01*
X1591674Y1376575D01*
X1589975Y1380677D01*
X1587508Y1384368D01*
X1584368Y1387508D01*
X1580677Y1389975D01*
X1576575Y1391674D01*
X1572220Y1392540D01*
D02*
G37*
G36*
X622220D02*
X617780D01*
X613425Y1391674D01*
X609323Y1389975D01*
X605632Y1387508D01*
X602492Y1384368D01*
X600025Y1380677D01*
X598326Y1376575D01*
X597460Y1372220D01*
Y1367780D01*
X598326Y1363425D01*
X600025Y1359323D01*
X602492Y1355632D01*
X605632Y1352492D01*
X609323Y1350025D01*
X613425Y1348326D01*
X617780Y1347460D01*
X622220D01*
X626575Y1348326D01*
X630677Y1350025D01*
X634368Y1352492D01*
X637508Y1355632D01*
X639975Y1359323D01*
X641674Y1363425D01*
X642540Y1367780D01*
Y1372220D01*
X641674Y1376575D01*
X639975Y1380677D01*
X637508Y1384368D01*
X634368Y1387508D01*
X630677Y1389975D01*
X626575Y1391674D01*
X622220Y1392540D01*
D02*
G37*
G36*
X1077870Y1351095D02*
X1069615D01*
Y1342840D01*
X1077870D01*
Y1351095D01*
D02*
G37*
G36*
X1065805D02*
X1057550D01*
Y1342840D01*
X1065805D01*
Y1351095D01*
D02*
G37*
G36*
X982500Y1364839D02*
X975500D01*
X972487Y1364443D01*
X969680Y1363280D01*
X967270Y1361430D01*
X965425Y1359027D01*
X835040D01*
X832810Y1358583D01*
X830920Y1357320D01*
X778200Y1304600D01*
X776937Y1302710D01*
X776493Y1300480D01*
Y1104025D01*
X775206Y1102739D01*
X774036Y1100711D01*
X773430Y1098450D01*
Y1096110D01*
X774036Y1093849D01*
X775206Y1091821D01*
X776861Y1090166D01*
X778889Y1088996D01*
X781150Y1088390D01*
X783490D01*
X785751Y1088996D01*
X787779Y1090166D01*
X789434Y1091821D01*
X790604Y1093849D01*
X791210Y1096110D01*
Y1098450D01*
X790604Y1100711D01*
X789434Y1102739D01*
X788147Y1104025D01*
Y1298066D01*
X837454Y1347373D01*
X965425D01*
X967270Y1344970D01*
X969680Y1343120D01*
X972487Y1341957D01*
X975500Y1341560D01*
X982500D01*
X985513Y1341957D01*
X988320Y1343120D01*
X990730Y1344970D01*
X992580Y1347380D01*
X993743Y1350187D01*
X994140Y1353200D01*
X993743Y1356212D01*
X992580Y1359020D01*
X990730Y1361430D01*
X988320Y1363280D01*
X985513Y1364443D01*
X982500Y1364839D01*
D02*
G37*
G36*
X1245540Y1362040D02*
X1228460D01*
Y1336960D01*
X1245540D01*
Y1362040D01*
D02*
G37*
G36*
X491669Y1341840D02*
X488631D01*
X485696Y1341054D01*
X483064Y1339534D01*
X480916Y1337386D01*
X479397Y1334754D01*
X478610Y1331819D01*
Y1328781D01*
X479397Y1325846D01*
X480916Y1323214D01*
X483064Y1321066D01*
X485696Y1319547D01*
X488631Y1318760D01*
X491669D01*
X494604Y1319547D01*
X497236Y1321066D01*
X499384Y1323214D01*
X500904Y1325846D01*
X501690Y1328781D01*
Y1331819D01*
X500904Y1334754D01*
X499384Y1337386D01*
X497236Y1339534D01*
X494604Y1341054D01*
X491669Y1341840D01*
D02*
G37*
G36*
X439669D02*
X436631D01*
X433696Y1341054D01*
X431064Y1339534D01*
X428916Y1337386D01*
X427397Y1334754D01*
X426610Y1331819D01*
Y1328781D01*
X427397Y1325846D01*
X428916Y1323214D01*
X431064Y1321066D01*
X433696Y1319547D01*
X436631Y1318760D01*
X439669D01*
X442604Y1319547D01*
X445236Y1321066D01*
X447384Y1323214D01*
X448904Y1325846D01*
X449690Y1328781D01*
Y1331819D01*
X448904Y1334754D01*
X447384Y1337386D01*
X445236Y1339534D01*
X442604Y1341054D01*
X439669Y1341840D01*
D02*
G37*
G36*
X1182500Y1339440D02*
X1175500D01*
X1172487Y1339043D01*
X1169680Y1337880D01*
X1167270Y1336030D01*
X1165420Y1333620D01*
X1164257Y1330813D01*
X1163860Y1327800D01*
X1164257Y1324787D01*
X1165420Y1321980D01*
X1167270Y1319570D01*
X1169680Y1317720D01*
X1172487Y1316557D01*
X1175500Y1316160D01*
X1182500D01*
X1185513Y1316557D01*
X1188320Y1317720D01*
X1190730Y1319570D01*
X1192580Y1321980D01*
X1193743Y1324787D01*
X1194140Y1327800D01*
X1193743Y1330813D01*
X1192580Y1333620D01*
X1190730Y1336030D01*
X1188320Y1337880D01*
X1185513Y1339043D01*
X1182500Y1339440D01*
D02*
G37*
G36*
X982500D02*
X975500D01*
X972487Y1339043D01*
X969680Y1337880D01*
X967270Y1336030D01*
X965425Y1333627D01*
X852820D01*
X850590Y1333183D01*
X848700Y1331920D01*
X803600Y1286820D01*
X802337Y1284930D01*
X801893Y1282700D01*
Y1104025D01*
X800606Y1102739D01*
X799436Y1100711D01*
X798830Y1098450D01*
Y1096110D01*
X799436Y1093849D01*
X800606Y1091821D01*
X802261Y1090166D01*
X804289Y1088996D01*
X806550Y1088390D01*
X808890D01*
X811151Y1088996D01*
X813179Y1090166D01*
X814834Y1091821D01*
X816004Y1093849D01*
X816610Y1096110D01*
Y1098450D01*
X816004Y1100711D01*
X814834Y1102739D01*
X813547Y1104025D01*
Y1280286D01*
X855234Y1321973D01*
X965425D01*
X967270Y1319570D01*
X969680Y1317720D01*
X972487Y1316557D01*
X975500Y1316160D01*
X982500D01*
X985513Y1316557D01*
X988320Y1317720D01*
X990730Y1319570D01*
X992580Y1321980D01*
X993743Y1324787D01*
X994140Y1327800D01*
X993743Y1330813D01*
X992580Y1333620D01*
X990730Y1336030D01*
X988320Y1337880D01*
X985513Y1339043D01*
X982500Y1339440D01*
D02*
G37*
G36*
X1182500Y1314039D02*
X1175500D01*
X1172487Y1313643D01*
X1169680Y1312480D01*
X1167270Y1310630D01*
X1165420Y1308220D01*
X1164257Y1305412D01*
X1163860Y1302400D01*
X1164257Y1299387D01*
X1165420Y1296580D01*
X1167270Y1294170D01*
X1169680Y1292320D01*
X1172487Y1291157D01*
X1175500Y1290760D01*
X1182500D01*
X1185513Y1291157D01*
X1188320Y1292320D01*
X1190730Y1294170D01*
X1192580Y1296580D01*
X1193743Y1299387D01*
X1194140Y1302400D01*
X1193743Y1305412D01*
X1192580Y1308220D01*
X1190730Y1310630D01*
X1188320Y1312480D01*
X1185513Y1313643D01*
X1182500Y1314039D01*
D02*
G37*
G36*
X982500D02*
X975500D01*
X972487Y1313643D01*
X969680Y1312480D01*
X967270Y1310630D01*
X965425Y1308227D01*
X870600D01*
X868370Y1307783D01*
X866480Y1306520D01*
X829000Y1269040D01*
X827737Y1267150D01*
X827293Y1264920D01*
Y1104025D01*
X826006Y1102739D01*
X824836Y1100711D01*
X824230Y1098450D01*
Y1096110D01*
X824836Y1093849D01*
X826006Y1091821D01*
X827661Y1090166D01*
X829689Y1088996D01*
X831950Y1088390D01*
X834290D01*
X836551Y1088996D01*
X838579Y1090166D01*
X840234Y1091821D01*
X841404Y1093849D01*
X842010Y1096110D01*
Y1098450D01*
X841404Y1100711D01*
X840234Y1102739D01*
X838947Y1104025D01*
Y1262506D01*
X873014Y1296573D01*
X965425D01*
X967270Y1294170D01*
X969680Y1292320D01*
X972487Y1291157D01*
X975500Y1290760D01*
X982500D01*
X985513Y1291157D01*
X988320Y1292320D01*
X990730Y1294170D01*
X992580Y1296580D01*
X993743Y1299387D01*
X994140Y1302400D01*
X993743Y1305412D01*
X992580Y1308220D01*
X990730Y1310630D01*
X988320Y1312480D01*
X985513Y1313643D01*
X982500Y1314039D01*
D02*
G37*
G36*
X469669Y1307840D02*
X466631D01*
X463696Y1307054D01*
X461064Y1305534D01*
X458916Y1303386D01*
X457396Y1300754D01*
X456610Y1297819D01*
Y1294781D01*
X457396Y1291846D01*
X458916Y1289214D01*
X461064Y1287066D01*
X463696Y1285547D01*
X466631Y1284760D01*
X469669D01*
X472604Y1285547D01*
X475236Y1287066D01*
X477384Y1289214D01*
X478904Y1291846D01*
X479690Y1294781D01*
Y1297819D01*
X478904Y1300754D01*
X477384Y1303386D01*
X475236Y1305534D01*
X472604Y1307054D01*
X469669Y1307840D01*
D02*
G37*
G36*
X387669D02*
X384631D01*
X381696Y1307054D01*
X379064Y1305534D01*
X376916Y1303386D01*
X375396Y1300754D01*
X374610Y1297819D01*
Y1294781D01*
X375396Y1291846D01*
X376916Y1289214D01*
X379064Y1287066D01*
X381696Y1285547D01*
X384631Y1284760D01*
X387669D01*
X390604Y1285547D01*
X393236Y1287066D01*
X395384Y1289214D01*
X396903Y1291846D01*
X397690Y1294781D01*
Y1297819D01*
X396903Y1300754D01*
X395384Y1303386D01*
X393236Y1305534D01*
X390604Y1307054D01*
X387669Y1307840D01*
D02*
G37*
G36*
X1182500Y1288640D02*
X1175500D01*
X1172487Y1288243D01*
X1169680Y1287080D01*
X1167270Y1285230D01*
X1165425Y1282827D01*
X1078880D01*
X1076650Y1282383D01*
X1074760Y1281120D01*
X1051686Y1258047D01*
X883920D01*
X881690Y1257603D01*
X879800Y1256340D01*
X856940Y1233480D01*
X855677Y1231590D01*
X855233Y1229360D01*
Y1104025D01*
X853946Y1102739D01*
X852776Y1100711D01*
X852170Y1098450D01*
Y1096110D01*
X852776Y1093849D01*
X853946Y1091821D01*
X855601Y1090166D01*
X857629Y1088996D01*
X859890Y1088390D01*
X862230D01*
X864491Y1088996D01*
X866519Y1090166D01*
X868174Y1091821D01*
X869344Y1093849D01*
X869950Y1096110D01*
Y1098450D01*
X869344Y1100711D01*
X868174Y1102739D01*
X866887Y1104025D01*
Y1226946D01*
X886334Y1246393D01*
X1054100D01*
X1056330Y1246837D01*
X1058220Y1248100D01*
X1081294Y1271173D01*
X1165425D01*
X1167270Y1268770D01*
X1169680Y1266920D01*
X1172487Y1265757D01*
X1175500Y1265360D01*
X1182500D01*
X1185513Y1265757D01*
X1188320Y1266920D01*
X1190730Y1268770D01*
X1192580Y1271180D01*
X1193743Y1273987D01*
X1194140Y1277000D01*
X1193743Y1280013D01*
X1192580Y1282820D01*
X1190730Y1285230D01*
X1188320Y1287080D01*
X1185513Y1288243D01*
X1182500Y1288640D01*
D02*
G37*
G36*
X982500D02*
X975500D01*
X972487Y1288243D01*
X969680Y1287080D01*
X967270Y1285230D01*
X965420Y1282820D01*
X964257Y1280013D01*
X963860Y1277000D01*
X964257Y1273987D01*
X965420Y1271180D01*
X967270Y1268770D01*
X969680Y1266920D01*
X972487Y1265757D01*
X975500Y1265360D01*
X982500D01*
X985513Y1265757D01*
X988320Y1266920D01*
X990730Y1268770D01*
X992580Y1271180D01*
X993743Y1273987D01*
X994140Y1277000D01*
X993743Y1280013D01*
X992580Y1282820D01*
X990730Y1285230D01*
X988320Y1287080D01*
X985513Y1288243D01*
X982500Y1288640D01*
D02*
G37*
G36*
X379055Y1268737D02*
Y1259205D01*
X388587D01*
X387904Y1261754D01*
X386384Y1264386D01*
X384236Y1266534D01*
X381604Y1268054D01*
X379055Y1268737D01*
D02*
G37*
G36*
X375245D02*
X372696Y1268054D01*
X370064Y1266534D01*
X367916Y1264386D01*
X366396Y1261754D01*
X365713Y1259205D01*
X375245D01*
Y1268737D01*
D02*
G37*
G36*
X388587Y1255395D02*
X379055D01*
Y1245863D01*
X381604Y1246546D01*
X384236Y1248066D01*
X386384Y1250214D01*
X387904Y1252846D01*
X388587Y1255395D01*
D02*
G37*
G36*
X375245D02*
X365713D01*
X366396Y1252846D01*
X367916Y1250214D01*
X370064Y1248066D01*
X372696Y1246546D01*
X375245Y1245863D01*
Y1255395D01*
D02*
G37*
G36*
X1140460Y1215460D02*
X1120140D01*
Y1212927D01*
X1103630D01*
Y1214120D01*
X1083310D01*
Y1193800D01*
X1103630D01*
Y1194993D01*
X1120140D01*
Y1187380D01*
X1140460D01*
Y1215460D01*
D02*
G37*
G36*
X1174460D02*
X1166205D01*
Y1203325D01*
X1174460D01*
Y1215460D01*
D02*
G37*
G36*
X1162395D02*
X1154140D01*
Y1203325D01*
X1162395D01*
Y1215460D01*
D02*
G37*
G36*
X1004570Y1210310D02*
X996315D01*
Y1202055D01*
X1004570D01*
Y1210310D01*
D02*
G37*
G36*
X992505D02*
X984250D01*
Y1202055D01*
X992505D01*
Y1210310D01*
D02*
G37*
G36*
X1016000Y1238327D02*
X937260D01*
X936677Y1238250D01*
X936090D01*
X935522Y1238098D01*
X934939Y1238021D01*
X934396Y1237796D01*
X933829Y1237644D01*
X933319Y1237350D01*
X932777Y1237125D01*
X932310Y1236768D01*
X931801Y1236474D01*
X931386Y1236058D01*
X930920Y1235700D01*
X930562Y1235234D01*
X930146Y1234819D01*
X929852Y1234309D01*
X929495Y1233843D01*
X929270Y1233300D01*
X928976Y1232791D01*
X928824Y1232224D01*
X928599Y1231681D01*
X928522Y1231098D01*
X928370Y1230530D01*
Y1229943D01*
X928293Y1229360D01*
X928370Y1228777D01*
Y1228190D01*
X928522Y1227622D01*
X928599Y1227039D01*
X928824Y1226496D01*
X928976Y1225929D01*
X929270Y1225419D01*
X929495Y1224877D01*
X929852Y1224410D01*
X930146Y1223901D01*
X930562Y1223486D01*
X930920Y1223020D01*
X931386Y1222662D01*
X931801Y1222246D01*
X932310Y1221952D01*
X932777Y1221595D01*
X933319Y1221370D01*
X933829Y1221076D01*
X934396Y1220924D01*
X934939Y1220699D01*
X935522Y1220622D01*
X936090Y1220470D01*
X936677D01*
X937260Y1220393D01*
X1012286D01*
X1018463Y1214216D01*
Y1201420D01*
X1018540Y1200837D01*
Y1189990D01*
X1019733D01*
Y1186719D01*
X1013060Y1180045D01*
X1011635Y1178188D01*
X1011564Y1178017D01*
X1010525Y1176664D01*
X1009501Y1174192D01*
X1009152Y1171540D01*
Y1166460D01*
X1009501Y1163808D01*
X1010525Y1161336D01*
X1012154Y1159214D01*
X1014276Y1157585D01*
X1016748Y1156562D01*
X1019400Y1156212D01*
X1022052Y1156562D01*
X1024524Y1157585D01*
X1026646Y1159214D01*
X1027275Y1160033D01*
X1100586D01*
X1126402Y1134217D01*
Y1134110D01*
X1126751Y1131458D01*
X1127683Y1129208D01*
Y1073888D01*
X1126868Y1071921D01*
X1126523Y1069300D01*
Y1064300D01*
X1126868Y1061679D01*
X1127880Y1059237D01*
X1129489Y1057139D01*
X1131587Y1055530D01*
X1134029Y1054518D01*
X1136650Y1054173D01*
X1139271Y1054518D01*
X1141713Y1055530D01*
X1143811Y1057139D01*
X1145420Y1059237D01*
X1146432Y1061679D01*
X1146777Y1064300D01*
Y1069300D01*
X1146432Y1071921D01*
X1145617Y1073888D01*
Y1129208D01*
X1146548Y1131458D01*
X1146898Y1134110D01*
Y1139190D01*
X1146548Y1141842D01*
X1145525Y1144314D01*
X1143896Y1146436D01*
X1141774Y1148065D01*
X1139302Y1149089D01*
X1136650Y1149438D01*
X1136556Y1149425D01*
X1110640Y1175340D01*
X1108783Y1176765D01*
X1106621Y1177661D01*
X1104300Y1177967D01*
X1037570D01*
X1036762Y1179237D01*
X1037361Y1180684D01*
X1037667Y1183005D01*
X1037667Y1183005D01*
Y1189990D01*
X1038860D01*
Y1194993D01*
X1049020D01*
Y1193800D01*
X1069340D01*
Y1214120D01*
X1049020D01*
Y1212927D01*
X1036397D01*
Y1217930D01*
X1036091Y1220251D01*
X1035195Y1222413D01*
X1033770Y1224270D01*
X1022340Y1235700D01*
X1020483Y1237125D01*
X1018321Y1238021D01*
X1016000Y1238327D01*
D02*
G37*
G36*
X900290Y1214290D02*
X879710D01*
Y1193710D01*
X900290D01*
Y1214290D01*
D02*
G37*
G36*
X697090D02*
X676510D01*
Y1193710D01*
X697090D01*
Y1214290D01*
D02*
G37*
G36*
X1004570Y1198245D02*
X996315D01*
Y1189990D01*
X1004570D01*
Y1198245D01*
D02*
G37*
G36*
X992505D02*
X984250D01*
Y1189990D01*
X992505D01*
Y1198245D01*
D02*
G37*
G36*
X1174460Y1199515D02*
X1166205D01*
Y1187380D01*
X1174460D01*
Y1199515D01*
D02*
G37*
G36*
X1162395D02*
X1154140D01*
Y1187380D01*
X1162395D01*
Y1199515D01*
D02*
G37*
G36*
X531669Y1202840D02*
X528631D01*
X525696Y1202054D01*
X523064Y1200534D01*
X520916Y1198386D01*
X519396Y1195754D01*
X518610Y1192819D01*
Y1189781D01*
X519396Y1186846D01*
X520916Y1184214D01*
X523064Y1182066D01*
X525696Y1180546D01*
X528631Y1179760D01*
X531669D01*
X534604Y1180546D01*
X537236Y1182066D01*
X539384Y1184214D01*
X540904Y1186846D01*
X541690Y1189781D01*
Y1192819D01*
X540904Y1195754D01*
X539384Y1198386D01*
X537236Y1200534D01*
X534604Y1202054D01*
X531669Y1202840D01*
D02*
G37*
G36*
X469669D02*
X466631D01*
X463696Y1202054D01*
X461064Y1200534D01*
X458916Y1198386D01*
X457396Y1195754D01*
X456610Y1192819D01*
Y1189781D01*
X457396Y1186846D01*
X458916Y1184214D01*
X461064Y1182066D01*
X463696Y1180546D01*
X466631Y1179760D01*
X469669D01*
X472604Y1180546D01*
X475236Y1182066D01*
X477384Y1184214D01*
X478904Y1186846D01*
X479690Y1189781D01*
Y1192819D01*
X478904Y1195754D01*
X477384Y1198386D01*
X475236Y1200534D01*
X472604Y1202054D01*
X469669Y1202840D01*
D02*
G37*
G36*
X409669D02*
X406631D01*
X403696Y1202054D01*
X401064Y1200534D01*
X398916Y1198386D01*
X397396Y1195754D01*
X396610Y1192819D01*
Y1189781D01*
X397396Y1186846D01*
X398916Y1184214D01*
X401064Y1182066D01*
X403696Y1180546D01*
X406631Y1179760D01*
X409669D01*
X412604Y1180546D01*
X415236Y1182066D01*
X417384Y1184214D01*
X418904Y1186846D01*
X419690Y1189781D01*
Y1192819D01*
X418904Y1195754D01*
X417384Y1198386D01*
X415236Y1200534D01*
X412604Y1202054D01*
X409669Y1202840D01*
D02*
G37*
G36*
X995905Y1181537D02*
Y1170905D01*
X1004248D01*
Y1171540D01*
X1003898Y1174192D01*
X1002875Y1176664D01*
X1001246Y1178786D01*
X999124Y1180415D01*
X996652Y1181439D01*
X995905Y1181537D01*
D02*
G37*
G36*
X992095Y1181537D02*
X991348Y1181439D01*
X988876Y1180415D01*
X986754Y1178786D01*
X985125Y1176664D01*
X984101Y1174192D01*
X983752Y1171540D01*
Y1170905D01*
X992095D01*
Y1181537D01*
D02*
G37*
G36*
X891355Y1188890D02*
X888645D01*
X886028Y1188189D01*
X883682Y1186834D01*
X881766Y1184918D01*
X880411Y1182572D01*
X879710Y1179955D01*
Y1177245D01*
X880411Y1174628D01*
X881766Y1172282D01*
X883682Y1170366D01*
X886028Y1169011D01*
X888645Y1168310D01*
X891355D01*
X893972Y1169011D01*
X896318Y1170366D01*
X898234Y1172282D01*
X899589Y1174628D01*
X900290Y1177245D01*
Y1179955D01*
X899589Y1182572D01*
X898234Y1184918D01*
X896318Y1186834D01*
X893972Y1188189D01*
X891355Y1188890D01*
D02*
G37*
G36*
X618450Y1191227D02*
X613450D01*
X610829Y1190882D01*
X608387Y1189870D01*
X606289Y1188261D01*
X604680Y1186163D01*
X603668Y1183721D01*
X603323Y1181100D01*
X603668Y1178479D01*
X604680Y1176037D01*
X606289Y1173939D01*
X608387Y1172330D01*
X610829Y1171318D01*
X613450Y1170973D01*
X618450D01*
X621071Y1171318D01*
X623513Y1172330D01*
X625611Y1173939D01*
X625675Y1174023D01*
X677561D01*
X678566Y1172282D01*
X680482Y1170366D01*
X682828Y1169011D01*
X685445Y1168310D01*
X688155D01*
X690772Y1169011D01*
X693118Y1170366D01*
X695034Y1172282D01*
X696389Y1174628D01*
X697090Y1177245D01*
Y1179955D01*
X696389Y1182572D01*
X695034Y1184918D01*
X693118Y1186834D01*
X690772Y1188189D01*
X688155Y1188890D01*
X685445D01*
X682828Y1188189D01*
X680482Y1186834D01*
X679325Y1185677D01*
X627421D01*
X627220Y1186163D01*
X625611Y1188261D01*
X623513Y1189870D01*
X621071Y1190882D01*
X618450Y1191227D01*
D02*
G37*
G36*
X968600Y1181788D02*
X965948Y1181439D01*
X963476Y1180415D01*
X961354Y1178786D01*
X959725Y1176664D01*
X958701Y1174192D01*
X958352Y1171540D01*
Y1169581D01*
X950938Y1162167D01*
X895049D01*
X893972Y1162789D01*
X891355Y1163490D01*
X888645D01*
X886028Y1162789D01*
X883682Y1161434D01*
X881766Y1159518D01*
X880411Y1157172D01*
X879710Y1154555D01*
Y1151845D01*
X880411Y1149228D01*
X881766Y1146882D01*
X883682Y1144966D01*
X886028Y1143611D01*
X888645Y1142910D01*
X891355D01*
X893972Y1143611D01*
X895049Y1144233D01*
X954653D01*
X956973Y1144539D01*
X959136Y1145435D01*
X960993Y1146860D01*
X970611Y1156477D01*
X971252Y1156562D01*
X973724Y1157585D01*
X975846Y1159214D01*
X977475Y1161336D01*
X978499Y1163808D01*
X978848Y1166460D01*
Y1171540D01*
X978499Y1174192D01*
X977475Y1176664D01*
X975846Y1178786D01*
X973724Y1180415D01*
X971252Y1181439D01*
X968600Y1181788D01*
D02*
G37*
G36*
X1004248Y1167095D02*
X995905D01*
Y1156463D01*
X996652Y1156562D01*
X999124Y1157585D01*
X1001246Y1159214D01*
X1002875Y1161336D01*
X1003898Y1163808D01*
X1004248Y1166460D01*
Y1167095D01*
D02*
G37*
G36*
X992095D02*
X983752D01*
Y1166460D01*
X984101Y1163808D01*
X985125Y1161336D01*
X986754Y1159214D01*
X988876Y1157585D01*
X991348Y1156562D01*
X992095Y1156463D01*
Y1167095D01*
D02*
G37*
G36*
X618450Y1165827D02*
X613450D01*
X610829Y1165482D01*
X608387Y1164470D01*
X606289Y1162861D01*
X604680Y1160763D01*
X603668Y1158321D01*
X603323Y1155700D01*
X603668Y1153079D01*
X604680Y1150637D01*
X606289Y1148539D01*
X608387Y1146930D01*
X610829Y1145918D01*
X613450Y1145573D01*
X618450D01*
X621071Y1145918D01*
X623513Y1146930D01*
X625611Y1148539D01*
X625675Y1148623D01*
X677561D01*
X678566Y1146882D01*
X680482Y1144966D01*
X682828Y1143611D01*
X685445Y1142910D01*
X688155D01*
X690772Y1143611D01*
X693118Y1144966D01*
X695034Y1146882D01*
X696389Y1149228D01*
X697090Y1151845D01*
Y1154555D01*
X696389Y1157172D01*
X695034Y1159518D01*
X693118Y1161434D01*
X690772Y1162789D01*
X688155Y1163490D01*
X685445D01*
X682828Y1162789D01*
X680482Y1161434D01*
X679325Y1160277D01*
X627421D01*
X627220Y1160763D01*
X625611Y1162861D01*
X623513Y1164470D01*
X621071Y1165482D01*
X618450Y1165827D01*
D02*
G37*
G36*
X1378040Y1149439D02*
X1372405D01*
Y1141304D01*
X1378040D01*
Y1149439D01*
D02*
G37*
G36*
X1444540D02*
X1438905D01*
Y1141304D01*
X1444540D01*
Y1149439D01*
D02*
G37*
G36*
X1368595D02*
X1362960D01*
Y1141304D01*
X1368595D01*
Y1149439D01*
D02*
G37*
G36*
X1435095D02*
X1429460D01*
Y1141304D01*
X1435095D01*
Y1149439D01*
D02*
G37*
G36*
X1163955Y1149187D02*
Y1138555D01*
X1172298D01*
Y1139190D01*
X1171948Y1141842D01*
X1170925Y1144314D01*
X1169296Y1146436D01*
X1167174Y1148065D01*
X1164702Y1149089D01*
X1163955Y1149187D01*
D02*
G37*
G36*
X1160145D02*
X1159398Y1149089D01*
X1156926Y1148065D01*
X1154804Y1146436D01*
X1153175Y1144314D01*
X1152151Y1141842D01*
X1151802Y1139190D01*
Y1138555D01*
X1160145D01*
Y1149187D01*
D02*
G37*
G36*
X891905Y1137943D02*
Y1129705D01*
X900143D01*
X899589Y1131772D01*
X898234Y1134118D01*
X896318Y1136034D01*
X893972Y1137389D01*
X891905Y1137943D01*
D02*
G37*
G36*
X888095D02*
X886028Y1137389D01*
X883682Y1136034D01*
X881766Y1134118D01*
X880411Y1131772D01*
X879857Y1129705D01*
X888095D01*
Y1137943D01*
D02*
G37*
G36*
X1444540Y1137494D02*
X1438905D01*
Y1129359D01*
X1444540D01*
Y1137494D01*
D02*
G37*
G36*
X1435095D02*
X1429460D01*
Y1129359D01*
X1435095D01*
Y1137494D01*
D02*
G37*
G36*
X1378040D02*
X1372405D01*
Y1129359D01*
X1378040D01*
Y1137494D01*
D02*
G37*
G36*
X1368595D02*
X1362960D01*
Y1129359D01*
X1368595D01*
Y1137494D01*
D02*
G37*
G36*
X1172298Y1134745D02*
X1163955D01*
Y1124113D01*
X1164702Y1124212D01*
X1167174Y1125235D01*
X1169296Y1126864D01*
X1170925Y1128986D01*
X1171948Y1131458D01*
X1172298Y1134110D01*
Y1134745D01*
D02*
G37*
G36*
X1160145D02*
X1151802D01*
Y1134110D01*
X1152151Y1131458D01*
X1153175Y1128986D01*
X1154804Y1126864D01*
X1156926Y1125235D01*
X1159398Y1124212D01*
X1160145Y1124113D01*
Y1134745D01*
D02*
G37*
G36*
X900143Y1125895D02*
X891905D01*
Y1117657D01*
X893972Y1118211D01*
X896318Y1119566D01*
X898234Y1121482D01*
X899589Y1123828D01*
X900143Y1125895D01*
D02*
G37*
G36*
X888095D02*
X879857D01*
X880411Y1123828D01*
X881766Y1121482D01*
X883682Y1119566D01*
X886028Y1118211D01*
X888095Y1117657D01*
Y1125895D01*
D02*
G37*
G36*
X618450Y1140427D02*
X613450D01*
X610829Y1140082D01*
X608387Y1139070D01*
X606289Y1137461D01*
X604680Y1135363D01*
X603668Y1132921D01*
X603323Y1130300D01*
X603668Y1127679D01*
X604680Y1125237D01*
X606289Y1123139D01*
X608387Y1121530D01*
X610829Y1120518D01*
X613450Y1120173D01*
X618450D01*
X621071Y1120518D01*
X623513Y1121530D01*
X625611Y1123139D01*
X625675Y1123223D01*
X677561D01*
X678566Y1121482D01*
X680482Y1119566D01*
X682828Y1118211D01*
X685445Y1117510D01*
X688155D01*
X690772Y1118211D01*
X693118Y1119566D01*
X695034Y1121482D01*
X696389Y1123828D01*
X697090Y1126445D01*
Y1129155D01*
X696389Y1131772D01*
X695034Y1134118D01*
X693118Y1136034D01*
X690772Y1137389D01*
X688155Y1138090D01*
X685445D01*
X682828Y1137389D01*
X680482Y1136034D01*
X679325Y1134877D01*
X627421D01*
X627220Y1135363D01*
X625611Y1137461D01*
X623513Y1139070D01*
X621071Y1140082D01*
X618450Y1140427D01*
D02*
G37*
G36*
X986790Y1120140D02*
X978535D01*
Y1111885D01*
X986790D01*
Y1120140D01*
D02*
G37*
G36*
X974725D02*
X966470D01*
Y1111885D01*
X974725D01*
Y1120140D01*
D02*
G37*
G36*
X500669Y1268840D02*
X497631D01*
X494696Y1268054D01*
X492064Y1266534D01*
X489916Y1264386D01*
X488396Y1261754D01*
X487610Y1258819D01*
Y1255781D01*
X488396Y1252846D01*
X489916Y1250214D01*
X492064Y1248066D01*
X493323Y1247339D01*
Y1207730D01*
X493767Y1205500D01*
X495030Y1203610D01*
X497093Y1201546D01*
Y1163194D01*
X493409Y1159510D01*
X481330D01*
Y1139190D01*
X484393D01*
Y1130300D01*
X478790D01*
Y1109980D01*
X499110D01*
Y1130300D01*
X496047D01*
Y1139190D01*
X501650D01*
Y1151269D01*
X507040Y1156660D01*
X508303Y1158550D01*
X508747Y1160780D01*
Y1203960D01*
X508303Y1206190D01*
X507040Y1208080D01*
X504977Y1210144D01*
Y1247339D01*
X506236Y1248066D01*
X508384Y1250214D01*
X509904Y1252846D01*
X510690Y1255781D01*
Y1258819D01*
X509904Y1261754D01*
X508384Y1264386D01*
X506236Y1266534D01*
X503604Y1268054D01*
X500669Y1268840D01*
D02*
G37*
G36*
X439669D02*
X436631D01*
X433696Y1268054D01*
X431064Y1266534D01*
X428916Y1264386D01*
X427397Y1261754D01*
X426610Y1258819D01*
Y1255781D01*
X427397Y1252846D01*
X428916Y1250214D01*
X431064Y1248066D01*
X432323Y1247339D01*
Y1168400D01*
X432767Y1166170D01*
X434030Y1164280D01*
X441959Y1156350D01*
X441473Y1155177D01*
X351790D01*
X349560Y1154733D01*
X347670Y1153470D01*
X333700Y1139500D01*
X332437Y1137610D01*
X331993Y1135380D01*
Y1118124D01*
X330659Y1117101D01*
X329050Y1115003D01*
X328038Y1112561D01*
X327693Y1109940D01*
Y1104940D01*
X328038Y1102319D01*
X329050Y1099877D01*
X330659Y1097779D01*
X332757Y1096170D01*
X335199Y1095158D01*
X337820Y1094813D01*
X340441Y1095158D01*
X342883Y1096170D01*
X344981Y1097779D01*
X346590Y1099877D01*
X347602Y1102319D01*
X347947Y1104940D01*
Y1109940D01*
X347602Y1112561D01*
X346590Y1115003D01*
X344981Y1117101D01*
X343647Y1118124D01*
Y1132966D01*
X354204Y1143523D01*
X447040D01*
Y1139190D01*
X451373D01*
Y1130300D01*
X447040D01*
Y1109980D01*
X467360D01*
Y1130300D01*
X463027D01*
Y1139190D01*
X467360D01*
Y1159510D01*
X455281D01*
X443977Y1170814D01*
Y1247339D01*
X445236Y1248066D01*
X447384Y1250214D01*
X448904Y1252846D01*
X449690Y1255781D01*
Y1258819D01*
X448904Y1261754D01*
X447384Y1264386D01*
X445236Y1266534D01*
X442604Y1268054D01*
X439669Y1268840D01*
D02*
G37*
G36*
X390525Y1119816D02*
Y1109345D01*
X398747D01*
Y1109940D01*
X398402Y1112561D01*
X397390Y1115003D01*
X395781Y1117101D01*
X393683Y1118710D01*
X391241Y1119722D01*
X390525Y1119816D01*
D02*
G37*
G36*
X386715D02*
X385999Y1119722D01*
X383557Y1118710D01*
X381459Y1117101D01*
X379850Y1115003D01*
X378838Y1112561D01*
X378493Y1109940D01*
Y1109345D01*
X386715D01*
Y1119816D01*
D02*
G37*
G36*
X986790Y1108075D02*
X978535D01*
Y1099820D01*
X986790D01*
Y1108075D01*
D02*
G37*
G36*
X974725D02*
X966470D01*
Y1099820D01*
X974725D01*
Y1108075D01*
D02*
G37*
G36*
X398747Y1105535D02*
X390525D01*
Y1095064D01*
X391241Y1095158D01*
X393683Y1096170D01*
X395781Y1097779D01*
X397390Y1099877D01*
X398402Y1102319D01*
X398747Y1104940D01*
Y1105535D01*
D02*
G37*
G36*
X386715D02*
X378493D01*
Y1104940D01*
X378838Y1102319D01*
X379850Y1099877D01*
X381459Y1097779D01*
X383557Y1096170D01*
X385999Y1095158D01*
X386715Y1095064D01*
Y1105535D01*
D02*
G37*
G36*
X363220Y1120067D02*
X360599Y1119722D01*
X358157Y1118710D01*
X356059Y1117101D01*
X354450Y1115003D01*
X353438Y1112561D01*
X353093Y1109940D01*
Y1104940D01*
X353438Y1102319D01*
X354450Y1099877D01*
X356059Y1097779D01*
X358157Y1096170D01*
X360599Y1095158D01*
X363220Y1094813D01*
X365841Y1095158D01*
X368283Y1096170D01*
X370381Y1097779D01*
X371990Y1099877D01*
X373002Y1102319D01*
X373347Y1104940D01*
Y1109940D01*
X373002Y1112561D01*
X371990Y1115003D01*
X370381Y1117101D01*
X368283Y1118710D01*
X365841Y1119722D01*
X363220Y1120067D01*
D02*
G37*
G36*
X891355Y1112690D02*
X888645D01*
X886028Y1111989D01*
X883682Y1110634D01*
X881766Y1108718D01*
X880411Y1106372D01*
X879710Y1103755D01*
Y1101045D01*
X880411Y1098428D01*
X881766Y1096082D01*
X883682Y1094166D01*
X886028Y1092811D01*
X888645Y1092110D01*
X891355D01*
X893972Y1092811D01*
X896318Y1094166D01*
X898234Y1096082D01*
X899589Y1098428D01*
X900290Y1101045D01*
Y1103755D01*
X899589Y1106372D01*
X898234Y1108718D01*
X896318Y1110634D01*
X893972Y1111989D01*
X891355Y1112690D01*
D02*
G37*
G36*
X618450Y1115027D02*
X613450D01*
X610829Y1114682D01*
X608387Y1113670D01*
X606289Y1112061D01*
X604680Y1109963D01*
X603668Y1107521D01*
X603323Y1104900D01*
X603668Y1102279D01*
X604680Y1099837D01*
X606289Y1097739D01*
X608387Y1096130D01*
X610829Y1095118D01*
X613450Y1094773D01*
X618450D01*
X621071Y1095118D01*
X623513Y1096130D01*
X625611Y1097739D01*
X625675Y1097823D01*
X677561D01*
X678566Y1096082D01*
X680482Y1094166D01*
X682828Y1092811D01*
X685445Y1092110D01*
X688155D01*
X690772Y1092811D01*
X693118Y1094166D01*
X695034Y1096082D01*
X696389Y1098428D01*
X697090Y1101045D01*
Y1103755D01*
X696389Y1106372D01*
X695034Y1108718D01*
X693118Y1110634D01*
X690772Y1111989D01*
X688155Y1112690D01*
X685445D01*
X682828Y1111989D01*
X680482Y1110634D01*
X679325Y1109477D01*
X627421D01*
X627220Y1109963D01*
X625611Y1112061D01*
X623513Y1113670D01*
X621071Y1114682D01*
X618450Y1115027D01*
D02*
G37*
G36*
X1430655Y1098550D02*
Y1090295D01*
X1438910D01*
Y1098550D01*
X1430655D01*
D02*
G37*
G36*
X1419539Y1149439D02*
X1404458D01*
Y1129359D01*
X1406172D01*
Y1099452D01*
X1405269Y1098550D01*
X1403450D01*
X1401189Y1097944D01*
X1399161Y1096774D01*
X1397506Y1095119D01*
X1396336Y1093091D01*
X1395730Y1090830D01*
Y1088490D01*
X1396336Y1086229D01*
X1397506Y1084201D01*
X1399161Y1082546D01*
X1401189Y1081376D01*
X1403450Y1080770D01*
X1405790D01*
X1408051Y1081376D01*
X1410079Y1082546D01*
X1411734Y1084201D01*
X1412904Y1086229D01*
X1413510Y1088490D01*
Y1090309D01*
X1416119Y1092918D01*
X1417320Y1094716D01*
X1417412Y1094727D01*
X1418590Y1093954D01*
Y1090295D01*
X1426845D01*
Y1098550D01*
X1419095D01*
X1418590Y1098550D01*
X1417825Y1099503D01*
Y1129359D01*
X1419539D01*
Y1149439D01*
D02*
G37*
G36*
X976290Y1093590D02*
X967905D01*
Y1089955D01*
X976290D01*
Y1093590D01*
D02*
G37*
G36*
X964095D02*
X955710D01*
Y1089955D01*
X964095D01*
Y1093590D01*
D02*
G37*
G36*
X976290Y1086145D02*
X967905D01*
Y1082510D01*
X976290D01*
Y1086145D01*
D02*
G37*
G36*
X964095D02*
X955710D01*
Y1082510D01*
X964095D01*
Y1086145D01*
D02*
G37*
G36*
X1468840Y1149439D02*
X1453760D01*
Y1129359D01*
X1455473D01*
Y1103034D01*
X1450989Y1098550D01*
X1449170D01*
X1446909Y1097944D01*
X1444881Y1096774D01*
X1443226Y1095119D01*
X1442056Y1093091D01*
X1441450Y1090830D01*
Y1088490D01*
X1442056Y1086229D01*
X1443226Y1084201D01*
X1444881Y1082546D01*
X1446909Y1081376D01*
X1449170Y1080770D01*
X1451510D01*
X1453771Y1081376D01*
X1455799Y1082546D01*
X1457454Y1084201D01*
X1458624Y1086229D01*
X1459230Y1088490D01*
Y1090309D01*
X1465420Y1096500D01*
X1466683Y1098390D01*
X1467127Y1100620D01*
Y1129359D01*
X1468840D01*
Y1137524D01*
X1468867Y1137659D01*
X1468840Y1137795D01*
Y1149439D01*
D02*
G37*
G36*
X1438910Y1086485D02*
X1430655D01*
Y1078230D01*
X1438910D01*
Y1086485D01*
D02*
G37*
G36*
X1426845D02*
X1418590D01*
Y1078230D01*
X1426845D01*
Y1086485D01*
D02*
G37*
G36*
X976290Y1080890D02*
X967905D01*
Y1077255D01*
X976290D01*
Y1080890D01*
D02*
G37*
G36*
X964095D02*
X955710D01*
Y1077255D01*
X964095D01*
Y1080890D01*
D02*
G37*
G36*
X1030290D02*
X1009710D01*
Y1069810D01*
X1030290D01*
Y1080890D01*
D02*
G37*
G36*
X976290Y1073445D02*
X967905D01*
Y1069810D01*
X976290D01*
Y1073445D01*
D02*
G37*
G36*
X964095D02*
X955710D01*
Y1069810D01*
X964095D01*
Y1073445D01*
D02*
G37*
G36*
X1189355Y1079176D02*
Y1068705D01*
X1197577D01*
Y1069300D01*
X1197232Y1071921D01*
X1196220Y1074363D01*
X1194611Y1076461D01*
X1192513Y1078070D01*
X1190071Y1079082D01*
X1189355Y1079176D01*
D02*
G37*
G36*
X1185545D02*
X1184829Y1079082D01*
X1182387Y1078070D01*
X1180289Y1076461D01*
X1178680Y1074363D01*
X1177668Y1071921D01*
X1177323Y1069300D01*
Y1068705D01*
X1185545D01*
Y1079176D01*
D02*
G37*
G36*
X891355Y1087290D02*
X888645D01*
X886028Y1086589D01*
X883682Y1085234D01*
X881766Y1083318D01*
X881482Y1082827D01*
X800140D01*
X797910Y1082383D01*
X796020Y1081120D01*
X765500Y1050600D01*
X764237Y1048710D01*
X763793Y1046480D01*
Y789940D01*
X759460D01*
Y769620D01*
X779780D01*
Y789940D01*
X775447D01*
Y1044066D01*
X802554Y1071173D01*
X881482D01*
X881766Y1070682D01*
X883682Y1068766D01*
X886028Y1067411D01*
X888645Y1066710D01*
X891355D01*
X893972Y1067411D01*
X896318Y1068766D01*
X898234Y1070682D01*
X899589Y1073028D01*
X900290Y1075645D01*
Y1078355D01*
X899589Y1080972D01*
X898234Y1083318D01*
X896318Y1085234D01*
X893972Y1086589D01*
X891355Y1087290D01*
D02*
G37*
G36*
X618450Y1089627D02*
X613450D01*
X610829Y1089282D01*
X608387Y1088270D01*
X606289Y1086661D01*
X604680Y1084563D01*
X603668Y1082121D01*
X603323Y1079500D01*
X603668Y1076879D01*
X604680Y1074437D01*
X606289Y1072339D01*
X608387Y1070730D01*
X610829Y1069718D01*
X613450Y1069373D01*
X618450D01*
X621071Y1069718D01*
X623513Y1070730D01*
X625611Y1072339D01*
X625675Y1072423D01*
X677561D01*
X678566Y1070682D01*
X680482Y1068766D01*
X682828Y1067411D01*
X685445Y1066710D01*
X688155D01*
X690772Y1067411D01*
X693118Y1068766D01*
X695034Y1070682D01*
X696389Y1073028D01*
X697090Y1075645D01*
Y1078355D01*
X696389Y1080972D01*
X695034Y1083318D01*
X693118Y1085234D01*
X690772Y1086589D01*
X688155Y1087290D01*
X685445D01*
X682828Y1086589D01*
X680482Y1085234D01*
X679325Y1084077D01*
X627421D01*
X627220Y1084563D01*
X625611Y1086661D01*
X623513Y1088270D01*
X621071Y1089282D01*
X618450Y1089627D01*
D02*
G37*
G36*
X976290Y1068190D02*
X967905D01*
Y1064555D01*
X976290D01*
Y1068190D01*
D02*
G37*
G36*
X964095D02*
X955710D01*
Y1064555D01*
X964095D01*
Y1068190D01*
D02*
G37*
G36*
X1361540Y1149439D02*
X1346460D01*
Y1129359D01*
X1348173D01*
Y1064260D01*
X1346200D01*
Y1059927D01*
X1332625D01*
X1331339Y1061214D01*
X1329311Y1062384D01*
X1327050Y1062990D01*
X1324710D01*
X1322449Y1062384D01*
X1320421Y1061214D01*
X1318766Y1059559D01*
X1317596Y1057531D01*
X1316990Y1055270D01*
Y1052930D01*
X1317596Y1050669D01*
X1318766Y1048641D01*
X1320421Y1046986D01*
X1322449Y1045816D01*
X1324710Y1045210D01*
X1327050D01*
X1329311Y1045816D01*
X1331339Y1046986D01*
X1332625Y1048273D01*
X1346200D01*
Y1043940D01*
X1366520D01*
Y1064260D01*
X1359827D01*
Y1129359D01*
X1361540D01*
Y1149439D01*
D02*
G37*
G36*
X499110Y1096010D02*
X478790D01*
Y1075690D01*
X483123D01*
Y1067944D01*
X478480Y1063300D01*
X477217Y1061410D01*
X476897Y1059805D01*
X475603Y1059805D01*
X475283Y1061410D01*
X474020Y1063300D01*
X463027Y1074294D01*
Y1075690D01*
X467360D01*
Y1096010D01*
X447040D01*
Y1075690D01*
X451373D01*
Y1071880D01*
X451817Y1069650D01*
X453080Y1067760D01*
X464073Y1056766D01*
Y1053736D01*
X462990Y1053285D01*
X462803Y1053285D01*
X451410D01*
Y1047227D01*
X340360D01*
X338130Y1046783D01*
X336240Y1045520D01*
X285440Y994720D01*
X284177Y992830D01*
X283733Y990600D01*
Y599440D01*
X284177Y597210D01*
X285440Y595320D01*
X354330Y526429D01*
Y524610D01*
X354936Y522349D01*
X356106Y520321D01*
X357761Y518666D01*
X359789Y517496D01*
X362050Y516890D01*
X364390D01*
X366651Y517496D01*
X368679Y518666D01*
X370334Y520321D01*
X371504Y522349D01*
X372110Y524610D01*
Y526950D01*
X371504Y529211D01*
X370334Y531239D01*
X368679Y532894D01*
X366651Y534064D01*
X364390Y534670D01*
X362571D01*
X295387Y601854D01*
Y988186D01*
X342774Y1035573D01*
X451373D01*
Y1028700D01*
X451817Y1026470D01*
X453080Y1024580D01*
X464515Y1013144D01*
X464073Y1010920D01*
Y999496D01*
X462990Y999045D01*
X462803Y999045D01*
X451410D01*
Y978715D01*
X462840D01*
X462990Y978715D01*
X464110D01*
X464260Y978715D01*
X475690D01*
Y978715D01*
X476810D01*
Y978715D01*
X488203D01*
X488390Y978715D01*
X489473Y978264D01*
Y977025D01*
X488186Y975739D01*
X487016Y973711D01*
X486410Y971450D01*
Y969110D01*
X487016Y966849D01*
X488186Y964821D01*
X489841Y963166D01*
X491869Y961996D01*
X494130Y961390D01*
X496470D01*
X498731Y961996D01*
X500759Y963166D01*
X502414Y964821D01*
X503584Y966849D01*
X504190Y969110D01*
Y971450D01*
X503584Y973711D01*
X502414Y975739D01*
X501127Y977025D01*
Y988880D01*
X501090Y989066D01*
Y999045D01*
X489697D01*
X489510Y999045D01*
X488427Y999496D01*
Y1008380D01*
X487983Y1010610D01*
X486720Y1012500D01*
X481640Y1017580D01*
X479750Y1018843D01*
X477520Y1019287D01*
X474854D01*
X463027Y1031114D01*
Y1032504D01*
X464110Y1032955D01*
X464297Y1032955D01*
X475540D01*
X475690Y1032955D01*
X476810D01*
X476960Y1032955D01*
X488240D01*
X488390Y1032955D01*
X489510D01*
X489660Y1032955D01*
X493395D01*
Y1043120D01*
X495300D01*
D01*
X493395D01*
Y1053285D01*
X489697D01*
X489510Y1053285D01*
X488427Y1053736D01*
Y1056766D01*
X493070Y1061410D01*
X494333Y1063300D01*
X494777Y1065530D01*
Y1075690D01*
X499110D01*
Y1096010D01*
D02*
G37*
G36*
X976290Y1060745D02*
X967905D01*
Y1057110D01*
X976290D01*
Y1060745D01*
D02*
G37*
G36*
X964095D02*
X955710D01*
Y1057110D01*
X964095D01*
Y1060745D01*
D02*
G37*
G36*
X1197577Y1064895D02*
X1189355D01*
Y1054424D01*
X1190071Y1054518D01*
X1192513Y1055530D01*
X1194611Y1057139D01*
X1196220Y1059237D01*
X1197232Y1061679D01*
X1197577Y1064300D01*
Y1064895D01*
D02*
G37*
G36*
X1185545D02*
X1177323D01*
Y1064300D01*
X1177668Y1061679D01*
X1178680Y1059237D01*
X1180289Y1057139D01*
X1182387Y1055530D01*
X1184829Y1054518D01*
X1185545Y1054424D01*
Y1064895D01*
D02*
G37*
G36*
X976290Y1055490D02*
X967905D01*
Y1051855D01*
X976290D01*
Y1055490D01*
D02*
G37*
G36*
X964095D02*
X955710D01*
Y1051855D01*
X964095D01*
Y1055490D01*
D02*
G37*
G36*
X555625Y1051433D02*
Y1045525D01*
X561533D01*
X561212Y1046723D01*
X560154Y1048557D01*
X558657Y1050054D01*
X556823Y1051112D01*
X555625Y1051433D01*
D02*
G37*
G36*
X551815Y1051433D02*
X550617Y1051112D01*
X548783Y1050054D01*
X547286Y1048557D01*
X546228Y1046723D01*
X545907Y1045525D01*
X551815D01*
Y1051433D01*
D02*
G37*
G36*
X497205Y1053285D02*
Y1045025D01*
X501090D01*
Y1053285D01*
X497205D01*
D02*
G37*
G36*
X976290Y1048045D02*
X967905D01*
Y1044410D01*
X976290D01*
Y1048045D01*
D02*
G37*
G36*
X964095D02*
X955710D01*
Y1044410D01*
X964095D01*
Y1048045D01*
D02*
G37*
G36*
X891355Y1061890D02*
X888645D01*
X886028Y1061189D01*
X883682Y1059834D01*
X881766Y1057918D01*
X881482Y1057427D01*
X810300D01*
X808070Y1056983D01*
X806180Y1055720D01*
X788360Y1037900D01*
X787097Y1036010D01*
X786653Y1033780D01*
Y789940D01*
X782320D01*
Y769620D01*
X802640D01*
Y789940D01*
X798307D01*
Y1031366D01*
X812714Y1045773D01*
X881482D01*
X881766Y1045282D01*
X883682Y1043366D01*
X886028Y1042011D01*
X888645Y1041310D01*
X891355D01*
X893972Y1042011D01*
X896318Y1043366D01*
X898234Y1045282D01*
X899589Y1047628D01*
X900290Y1050245D01*
Y1052955D01*
X899589Y1055572D01*
X898234Y1057918D01*
X896318Y1059834D01*
X893972Y1061189D01*
X891355Y1061890D01*
D02*
G37*
G36*
X618450Y1064227D02*
X613450D01*
X610829Y1063882D01*
X608387Y1062870D01*
X606289Y1061261D01*
X604680Y1059163D01*
X603668Y1056721D01*
X603323Y1054100D01*
X603668Y1051479D01*
X604680Y1049037D01*
X606289Y1046939D01*
X608387Y1045330D01*
X610829Y1044318D01*
X613450Y1043973D01*
X618450D01*
X621071Y1044318D01*
X623513Y1045330D01*
X625611Y1046939D01*
X625675Y1047023D01*
X677561D01*
X678566Y1045282D01*
X680482Y1043366D01*
X682828Y1042011D01*
X685445Y1041310D01*
X688155D01*
X690772Y1042011D01*
X693118Y1043366D01*
X695034Y1045282D01*
X696389Y1047628D01*
X697090Y1050245D01*
Y1052955D01*
X696389Y1055572D01*
X695034Y1057918D01*
X693118Y1059834D01*
X690772Y1061189D01*
X688155Y1061890D01*
X685445D01*
X682828Y1061189D01*
X680482Y1059834D01*
X679325Y1058677D01*
X627421D01*
X627220Y1059163D01*
X625611Y1061261D01*
X623513Y1062870D01*
X621071Y1063882D01*
X618450Y1064227D01*
D02*
G37*
G36*
X551815Y1041715D02*
X545907D01*
X546228Y1040517D01*
X547286Y1038683D01*
X548783Y1037186D01*
X550617Y1036128D01*
X551815Y1035807D01*
Y1041715D01*
D02*
G37*
G36*
X561533D02*
X555625D01*
Y1035807D01*
X556823Y1036128D01*
X558657Y1037186D01*
X560154Y1038683D01*
X561212Y1040517D01*
X561533Y1041715D01*
D02*
G37*
G36*
X501090Y1041215D02*
X497205D01*
Y1032955D01*
X501090D01*
Y1041215D01*
D02*
G37*
G36*
X1413410Y1040130D02*
X1411070D01*
X1408809Y1039524D01*
X1406781Y1038354D01*
X1405495Y1037067D01*
X1287780D01*
X1285550Y1036623D01*
X1283660Y1035360D01*
X1000106Y751807D01*
X975988D01*
X975704Y752298D01*
X973788Y754214D01*
X971442Y755569D01*
X968825Y756270D01*
X966115D01*
X963498Y755569D01*
X961152Y754214D01*
X959236Y752298D01*
X957881Y749952D01*
X957180Y747335D01*
Y744625D01*
X957881Y742008D01*
X959236Y739662D01*
X961152Y737746D01*
X963498Y736391D01*
X966115Y735690D01*
X968825D01*
X971442Y736391D01*
X973788Y737746D01*
X975704Y739662D01*
X975988Y740153D01*
X1002520D01*
X1004750Y740597D01*
X1006640Y741860D01*
X1290194Y1025413D01*
X1405495D01*
X1406781Y1024126D01*
X1408809Y1022956D01*
X1411070Y1022350D01*
X1413410D01*
X1415671Y1022956D01*
X1417699Y1024126D01*
X1419354Y1025781D01*
X1420524Y1027809D01*
X1421130Y1030070D01*
Y1032410D01*
X1420524Y1034671D01*
X1419354Y1036699D01*
X1417699Y1038354D01*
X1415671Y1039524D01*
X1413410Y1040130D01*
D02*
G37*
G36*
X618450Y1038827D02*
X613450D01*
X610829Y1038482D01*
X608387Y1037470D01*
X606289Y1035861D01*
X604680Y1033763D01*
X603668Y1031321D01*
X603323Y1028700D01*
X603668Y1026079D01*
X604680Y1023637D01*
X606289Y1021539D01*
X608387Y1019930D01*
X610829Y1018918D01*
X613450Y1018573D01*
X618450D01*
X621071Y1018918D01*
X623513Y1019930D01*
X625611Y1021539D01*
X625675Y1021623D01*
X677561D01*
X678566Y1019882D01*
X680482Y1017966D01*
X682828Y1016611D01*
X685445Y1015910D01*
X688155D01*
X690772Y1016611D01*
X693118Y1017966D01*
X695034Y1019882D01*
X696389Y1022228D01*
X697090Y1024845D01*
Y1027555D01*
X696389Y1030172D01*
X695034Y1032518D01*
X693118Y1034434D01*
X690772Y1035789D01*
X688155Y1036490D01*
X685445D01*
X682828Y1035789D01*
X680482Y1034434D01*
X679325Y1033277D01*
X627421D01*
X627220Y1033763D01*
X625611Y1035861D01*
X623513Y1037470D01*
X621071Y1038482D01*
X618450Y1038827D01*
D02*
G37*
G36*
X1591945Y1018733D02*
Y1012825D01*
X1597853D01*
X1597532Y1014023D01*
X1596474Y1015857D01*
X1594977Y1017354D01*
X1593143Y1018412D01*
X1591945Y1018733D01*
D02*
G37*
G36*
X1588135D02*
X1586937Y1018412D01*
X1585103Y1017354D01*
X1583606Y1015857D01*
X1582548Y1014023D01*
X1582227Y1012825D01*
X1588135D01*
Y1018733D01*
D02*
G37*
G36*
X1063330Y1068477D02*
X1020000D01*
X1019120Y1068302D01*
X1004055D01*
X1001825Y1067858D01*
X999935Y1066595D01*
X991560Y1058220D01*
X990297Y1056330D01*
X989853Y1054100D01*
Y1038734D01*
X986209Y1035090D01*
X984390D01*
X982129Y1034484D01*
X980101Y1033314D01*
X978815Y1032027D01*
X898518D01*
X898234Y1032518D01*
X896318Y1034434D01*
X893972Y1035789D01*
X891355Y1036490D01*
X888645D01*
X886028Y1035789D01*
X883682Y1034434D01*
X881766Y1032518D01*
X880411Y1030172D01*
X879710Y1027555D01*
Y1024845D01*
X880411Y1022228D01*
X881766Y1019882D01*
X883682Y1017966D01*
X886028Y1016611D01*
X888645Y1015910D01*
X891355D01*
X893972Y1016611D01*
X896318Y1017966D01*
X898234Y1019882D01*
X898518Y1020373D01*
X978815D01*
X980101Y1019086D01*
X982129Y1017916D01*
X984390Y1017310D01*
X986730D01*
X988991Y1017916D01*
X991019Y1019086D01*
X992674Y1020741D01*
X993844Y1022769D01*
X994450Y1025030D01*
Y1026849D01*
X999800Y1032200D01*
X1001063Y1034090D01*
X1001507Y1036320D01*
Y1051686D01*
X1006469Y1056648D01*
X1009440D01*
X1009710Y1055490D01*
X1009710Y1055378D01*
Y1044410D01*
X1014173D01*
Y1019914D01*
X1000886Y1006627D01*
X898518D01*
X898234Y1007118D01*
X896318Y1009034D01*
X893972Y1010389D01*
X891355Y1011090D01*
X888645D01*
X886028Y1010389D01*
X883682Y1009034D01*
X881766Y1007118D01*
X880411Y1004772D01*
X879710Y1002155D01*
Y999445D01*
X880411Y996828D01*
X881766Y994482D01*
X883682Y992566D01*
X886028Y991211D01*
X888645Y990510D01*
X891355D01*
X893972Y991211D01*
X896318Y992566D01*
X898234Y994482D01*
X898518Y994973D01*
X1138755D01*
X1140081Y993646D01*
X1142109Y992476D01*
X1144370Y991870D01*
X1146710D01*
X1148971Y992476D01*
X1150999Y993646D01*
X1152654Y995301D01*
X1153824Y997329D01*
X1154430Y999590D01*
Y1001930D01*
X1153824Y1004191D01*
X1152654Y1006219D01*
X1150999Y1007874D01*
X1148971Y1009044D01*
X1146710Y1009650D01*
X1144370D01*
X1142109Y1009044D01*
X1140081Y1007874D01*
X1138835Y1006627D01*
X1019027D01*
X1018541Y1007800D01*
X1024120Y1013380D01*
X1025383Y1015270D01*
X1025827Y1017500D01*
Y1044410D01*
X1030290D01*
Y1055490D01*
X1022396D01*
X1022334Y1055553D01*
X1022868Y1056823D01*
X1060916D01*
X1100780Y1016960D01*
X1102670Y1015697D01*
X1104900Y1015253D01*
X1138795D01*
X1140081Y1013966D01*
X1142109Y1012796D01*
X1144370Y1012190D01*
X1146710D01*
X1148971Y1012796D01*
X1150999Y1013966D01*
X1152654Y1015621D01*
X1153824Y1017649D01*
X1154430Y1019910D01*
Y1022250D01*
X1153824Y1024511D01*
X1152654Y1026539D01*
X1150999Y1028194D01*
X1148971Y1029364D01*
X1146710Y1029970D01*
X1144370D01*
X1142109Y1029364D01*
X1140081Y1028194D01*
X1138795Y1026907D01*
X1107314D01*
X1067450Y1066770D01*
X1065560Y1068033D01*
X1063330Y1068477D01*
D02*
G37*
G36*
X1597853Y1009015D02*
X1591945D01*
Y1003107D01*
X1593143Y1003428D01*
X1594977Y1004486D01*
X1596474Y1005983D01*
X1597532Y1007817D01*
X1597853Y1009015D01*
D02*
G37*
G36*
X1588135D02*
X1582227D01*
X1582548Y1007817D01*
X1583606Y1005983D01*
X1585103Y1004486D01*
X1586937Y1003428D01*
X1588135Y1003107D01*
Y1009015D01*
D02*
G37*
G36*
X688155Y1011090D02*
X685445D01*
X682828Y1010389D01*
X680482Y1009034D01*
X678566Y1007118D01*
X677211Y1004772D01*
X676510Y1002155D01*
Y999445D01*
X677211Y996828D01*
X678566Y994482D01*
X680482Y992566D01*
X682828Y991211D01*
X685445Y990510D01*
X688155D01*
X690772Y991211D01*
X693118Y992566D01*
X695034Y994482D01*
X696389Y996828D01*
X697090Y999445D01*
Y1002155D01*
X696389Y1004772D01*
X695034Y1007118D01*
X693118Y1009034D01*
X690772Y1010389D01*
X688155Y1011090D01*
D02*
G37*
G36*
X1443890Y996950D02*
X1441550D01*
X1439289Y996344D01*
X1437261Y995174D01*
X1435975Y993887D01*
X1308100D01*
X1305870Y993443D01*
X1303980Y992180D01*
X1012806Y701007D01*
X975988D01*
X975704Y701498D01*
X973788Y703414D01*
X971442Y704769D01*
X968825Y705470D01*
X966115D01*
X963498Y704769D01*
X961152Y703414D01*
X959236Y701498D01*
X957881Y699152D01*
X957180Y696535D01*
Y693825D01*
X957881Y691208D01*
X959236Y688862D01*
X961152Y686946D01*
X963498Y685591D01*
X966115Y684890D01*
X968825D01*
X971442Y685591D01*
X973788Y686946D01*
X975704Y688862D01*
X975988Y689353D01*
X1015220D01*
X1017450Y689797D01*
X1019340Y691060D01*
X1310514Y982233D01*
X1435975D01*
X1437261Y980946D01*
X1439289Y979776D01*
X1441550Y979170D01*
X1443890D01*
X1446151Y979776D01*
X1448179Y980946D01*
X1449834Y982601D01*
X1451004Y984629D01*
X1451610Y986890D01*
Y989230D01*
X1451004Y991491D01*
X1449834Y993519D01*
X1448179Y995174D01*
X1446151Y996344D01*
X1443890Y996950D01*
D02*
G37*
G36*
X891355Y985690D02*
X888645D01*
X886028Y984989D01*
X883682Y983634D01*
X881766Y981718D01*
X880411Y979372D01*
X879710Y976755D01*
Y974045D01*
X880411Y971428D01*
X881766Y969082D01*
X883682Y967166D01*
X886028Y965811D01*
X888645Y965110D01*
X891355D01*
X893972Y965811D01*
X896318Y967166D01*
X898234Y969082D01*
X899589Y971428D01*
X900290Y974045D01*
Y976755D01*
X899589Y979372D01*
X898234Y981718D01*
X896318Y983634D01*
X893972Y984989D01*
X891355Y985690D01*
D02*
G37*
G36*
X688155D02*
X685445D01*
X682828Y984989D01*
X680482Y983634D01*
X678566Y981718D01*
X677211Y979372D01*
X676510Y976755D01*
Y974045D01*
X677211Y971428D01*
X678566Y969082D01*
X680482Y967166D01*
X682828Y965811D01*
X685445Y965110D01*
X688155D01*
X690772Y965811D01*
X693118Y967166D01*
X695034Y969082D01*
X696389Y971428D01*
X697090Y974045D01*
Y976755D01*
X696389Y979372D01*
X695034Y981718D01*
X693118Y983634D01*
X690772Y984989D01*
X688155Y985690D01*
D02*
G37*
G36*
X1519340Y1149439D02*
X1504260D01*
Y1129359D01*
X1505973D01*
Y1102331D01*
X1497020Y1093378D01*
X1495757Y1091487D01*
X1495313Y1089257D01*
Y1064260D01*
X1490980D01*
Y1043940D01*
X1495313D01*
Y976630D01*
X1494890D01*
X1492629Y976024D01*
X1490601Y974854D01*
X1488946Y973199D01*
X1487776Y971171D01*
X1487170Y968910D01*
Y966570D01*
X1487776Y964309D01*
X1488946Y962281D01*
X1490601Y960626D01*
X1492629Y959456D01*
X1494890Y958850D01*
X1497230D01*
X1499491Y959456D01*
X1501519Y960626D01*
X1503174Y962281D01*
X1504344Y964309D01*
X1504950Y966570D01*
Y968389D01*
X1505260Y968700D01*
X1506523Y970590D01*
X1506967Y972820D01*
Y1043940D01*
X1511300D01*
Y1064260D01*
X1506967D01*
Y1086844D01*
X1515920Y1095797D01*
X1517183Y1097687D01*
X1517627Y1099917D01*
Y1129359D01*
X1519340D01*
Y1149439D01*
D02*
G37*
G36*
X1426110Y976630D02*
X1423770D01*
X1421509Y976024D01*
X1419481Y974854D01*
X1418195Y973567D01*
X1351280D01*
X1349050Y973123D01*
X1347160Y971860D01*
X1000106Y624807D01*
X975988D01*
X975704Y625298D01*
X973788Y627214D01*
X971442Y628569D01*
X968825Y629270D01*
X966115D01*
X963498Y628569D01*
X961152Y627214D01*
X959236Y625298D01*
X957881Y622952D01*
X957180Y620335D01*
Y617625D01*
X957881Y615008D01*
X959236Y612662D01*
X961152Y610746D01*
X963498Y609391D01*
X966115Y608690D01*
X968825D01*
X971442Y609391D01*
X973788Y610746D01*
X975704Y612662D01*
X975988Y613153D01*
X1002520D01*
X1004750Y613597D01*
X1006640Y614860D01*
X1353694Y961913D01*
X1418195D01*
X1419481Y960626D01*
X1421509Y959456D01*
X1423770Y958850D01*
X1426110D01*
X1428371Y959456D01*
X1430399Y960626D01*
X1432054Y962281D01*
X1433224Y964309D01*
X1433830Y966570D01*
Y968910D01*
X1433224Y971171D01*
X1432054Y973199D01*
X1430399Y974854D01*
X1428371Y976024D01*
X1426110Y976630D01*
D02*
G37*
G36*
X561760Y1031660D02*
X545680D01*
Y1015580D01*
X547893D01*
Y993140D01*
X548337Y990910D01*
X549600Y989020D01*
X558499Y980120D01*
X534766Y956387D01*
X435514D01*
X394960Y996940D01*
X393103Y998365D01*
X390941Y999261D01*
X388620Y999567D01*
X330200D01*
X327879Y999261D01*
X325717Y998365D01*
X323860Y996940D01*
X308620Y981700D01*
X307195Y979843D01*
X306299Y977681D01*
X305993Y975360D01*
Y833120D01*
Y607060D01*
X306299Y604739D01*
X307195Y602577D01*
X308620Y600720D01*
X325130Y584210D01*
X326987Y582785D01*
X329149Y581889D01*
X331470Y581583D01*
X354862D01*
X356829Y580768D01*
X359450Y580423D01*
X364450D01*
X367071Y580768D01*
X369513Y581780D01*
X371611Y583389D01*
X373220Y585487D01*
X374232Y587929D01*
X374577Y590550D01*
X374232Y593171D01*
X373220Y595613D01*
X371611Y597711D01*
X369513Y599320D01*
X367071Y600332D01*
X364450Y600677D01*
X359450D01*
X356829Y600332D01*
X354862Y599517D01*
X335184D01*
X323927Y610774D01*
Y829406D01*
X336454Y841933D01*
X354862D01*
X356829Y841118D01*
X359450Y840773D01*
X364450D01*
X367071Y841118D01*
X369513Y842130D01*
X371611Y843739D01*
X373220Y845837D01*
X374232Y848279D01*
X374577Y850900D01*
X374232Y853521D01*
X373220Y855963D01*
X371611Y858061D01*
X369513Y859670D01*
X367071Y860682D01*
X364450Y861027D01*
X359450D01*
X356829Y860682D01*
X354862Y859867D01*
X332740D01*
X330419Y859561D01*
X328257Y858665D01*
X326400Y857240D01*
X326399Y857240D01*
X325100Y855941D01*
X323927Y856427D01*
Y971646D01*
X333914Y981633D01*
X384906D01*
X425460Y941080D01*
X427317Y939655D01*
X429479Y938759D01*
X431800Y938453D01*
X538480D01*
X540801Y938759D01*
X542963Y939655D01*
X544820Y941080D01*
X572674Y968933D01*
X608862D01*
X610829Y968118D01*
X613450Y967773D01*
X618450D01*
X621071Y968118D01*
X623513Y969130D01*
X625611Y970739D01*
X627220Y972837D01*
X628232Y975279D01*
X628577Y977900D01*
X628232Y980521D01*
X627220Y982963D01*
X625611Y985061D01*
X623513Y986670D01*
X621071Y987682D01*
X618450Y988027D01*
X613450D01*
X610829Y987682D01*
X608862Y986867D01*
X568960D01*
X568318Y986782D01*
X559547Y995554D01*
Y1015580D01*
X561760D01*
Y1031660D01*
D02*
G37*
G36*
X618450Y962627D02*
X617855D01*
Y954405D01*
X628326D01*
X628232Y955121D01*
X627220Y957563D01*
X625611Y959661D01*
X623513Y961270D01*
X621071Y962282D01*
X618450Y962627D01*
D02*
G37*
G36*
X364450D02*
X363855D01*
Y954405D01*
X374326D01*
X374232Y955121D01*
X373220Y957563D01*
X371611Y959661D01*
X369513Y961270D01*
X367071Y962282D01*
X364450Y962627D01*
D02*
G37*
G36*
X614045D02*
X613450D01*
X610829Y962282D01*
X608387Y961270D01*
X606289Y959661D01*
X604680Y957563D01*
X603668Y955121D01*
X603574Y954405D01*
X614045D01*
Y962627D01*
D02*
G37*
G36*
X360045D02*
X359450D01*
X356829Y962282D01*
X354387Y961270D01*
X352289Y959661D01*
X350680Y957563D01*
X349668Y955121D01*
X349574Y954405D01*
X360045D01*
Y962627D01*
D02*
G37*
G36*
X628326Y950595D02*
X617855D01*
Y942373D01*
X618450D01*
X621071Y942718D01*
X623513Y943730D01*
X625611Y945339D01*
X627220Y947437D01*
X628232Y949879D01*
X628326Y950595D01*
D02*
G37*
G36*
X614045D02*
X603574D01*
X603668Y949879D01*
X604680Y947437D01*
X606289Y945339D01*
X608387Y943730D01*
X610829Y942718D01*
X613450Y942373D01*
X614045D01*
Y950595D01*
D02*
G37*
G36*
X374326D02*
X363855D01*
Y942373D01*
X364450D01*
X367071Y942718D01*
X369513Y943730D01*
X371611Y945339D01*
X373220Y947437D01*
X374232Y949879D01*
X374326Y950595D01*
D02*
G37*
G36*
X360045D02*
X349574D01*
X349668Y949879D01*
X350680Y947437D01*
X352289Y945339D01*
X354387Y943730D01*
X356829Y942718D01*
X359450Y942373D01*
X360045D01*
Y950595D01*
D02*
G37*
G36*
X834290Y1035050D02*
X831950D01*
X829689Y1034444D01*
X827661Y1033274D01*
X826006Y1031619D01*
X824836Y1029591D01*
X824230Y1027330D01*
Y1024990D01*
X824836Y1022729D01*
X826006Y1020701D01*
X827293Y1019415D01*
Y962660D01*
X827737Y960430D01*
X829000Y958540D01*
X841660Y945880D01*
X843550Y944617D01*
X845780Y944173D01*
X881482D01*
X881766Y943682D01*
X883682Y941766D01*
X886028Y940411D01*
X888645Y939710D01*
X891355D01*
X893972Y940411D01*
X896318Y941766D01*
X898234Y943682D01*
X899589Y946028D01*
X900290Y948645D01*
Y951355D01*
X899589Y953972D01*
X898234Y956318D01*
X896318Y958234D01*
X893972Y959589D01*
X891355Y960290D01*
X888645D01*
X886028Y959589D01*
X883682Y958234D01*
X881766Y956318D01*
X881482Y955827D01*
X848194D01*
X838947Y965074D01*
Y1019415D01*
X840234Y1020701D01*
X841404Y1022729D01*
X842010Y1024990D01*
Y1027330D01*
X841404Y1029591D01*
X840234Y1031619D01*
X838579Y1033274D01*
X836551Y1034444D01*
X834290Y1035050D01*
D02*
G37*
G36*
X618450Y1013427D02*
X613450D01*
X610829Y1013082D01*
X608387Y1012070D01*
X606289Y1010461D01*
X604680Y1008363D01*
X603668Y1005921D01*
X603323Y1003300D01*
X603668Y1000679D01*
X604680Y998237D01*
X606289Y996139D01*
X608387Y994530D01*
X610829Y993518D01*
X613450Y993173D01*
X618450D01*
X621071Y993518D01*
X623513Y994530D01*
X625611Y996139D01*
X626634Y997473D01*
X632586D01*
X646953Y983106D01*
Y965200D01*
X647397Y962970D01*
X648660Y961080D01*
X663860Y945880D01*
X665750Y944617D01*
X667980Y944173D01*
X678282D01*
X678566Y943682D01*
X680482Y941766D01*
X682828Y940411D01*
X685445Y939710D01*
X688155D01*
X690772Y940411D01*
X693118Y941766D01*
X695034Y943682D01*
X696389Y946028D01*
X697090Y948645D01*
Y951355D01*
X696389Y953972D01*
X695034Y956318D01*
X693118Y958234D01*
X690772Y959589D01*
X688155Y960290D01*
X685445D01*
X682828Y959589D01*
X680482Y958234D01*
X678566Y956318D01*
X678282Y955827D01*
X670394D01*
X658607Y967614D01*
Y985520D01*
X658163Y987750D01*
X656900Y989640D01*
X639120Y1007420D01*
X637230Y1008683D01*
X635000Y1009127D01*
X626634D01*
X625611Y1010461D01*
X623513Y1012070D01*
X621071Y1013082D01*
X618450Y1013427D01*
D02*
G37*
G36*
X813970Y1035050D02*
X811630D01*
X809369Y1034444D01*
X807341Y1033274D01*
X805686Y1031619D01*
X804516Y1029591D01*
X803910Y1027330D01*
Y1024990D01*
X804516Y1022729D01*
X805686Y1020701D01*
X806973Y1019415D01*
Y949960D01*
X807417Y947730D01*
X808680Y945840D01*
X834040Y920480D01*
X835930Y919217D01*
X838160Y918773D01*
X881482D01*
X881766Y918282D01*
X883682Y916366D01*
X886028Y915011D01*
X888645Y914310D01*
X891355D01*
X893972Y915011D01*
X896318Y916366D01*
X898234Y918282D01*
X899589Y920628D01*
X900290Y923245D01*
Y925955D01*
X899589Y928572D01*
X898234Y930918D01*
X896318Y932834D01*
X893972Y934189D01*
X891355Y934890D01*
X888645D01*
X886028Y934189D01*
X883682Y932834D01*
X881766Y930918D01*
X881482Y930427D01*
X840574D01*
X818627Y952374D01*
Y1019415D01*
X819914Y1020701D01*
X821084Y1022729D01*
X821690Y1024990D01*
Y1027330D01*
X821084Y1029591D01*
X819914Y1031619D01*
X818259Y1033274D01*
X816231Y1034444D01*
X813970Y1035050D01*
D02*
G37*
G36*
X364450Y937227D02*
X359450D01*
X356829Y936882D01*
X354387Y935870D01*
X352289Y934261D01*
X350680Y932163D01*
X349668Y929721D01*
X349323Y927100D01*
X349668Y924479D01*
X350680Y922037D01*
X352289Y919939D01*
X354387Y918330D01*
X356829Y917318D01*
X359450Y916973D01*
X364450D01*
X367071Y917318D01*
X369513Y918330D01*
X371611Y919939D01*
X371675Y920023D01*
X677561D01*
X678566Y918282D01*
X680482Y916366D01*
X682828Y915011D01*
X685445Y914310D01*
X688155D01*
X690772Y915011D01*
X693118Y916366D01*
X695034Y918282D01*
X696389Y920628D01*
X697090Y923245D01*
Y925955D01*
X696389Y928572D01*
X695034Y930918D01*
X693118Y932834D01*
X690772Y934189D01*
X688155Y934890D01*
X685445D01*
X682828Y934189D01*
X680482Y932834D01*
X679325Y931677D01*
X373421D01*
X373220Y932163D01*
X371611Y934261D01*
X369513Y935870D01*
X367071Y936882D01*
X364450Y937227D01*
D02*
G37*
G36*
X1334255Y922026D02*
Y911555D01*
X1342477D01*
Y912150D01*
X1342132Y914771D01*
X1341120Y917213D01*
X1339511Y919311D01*
X1337413Y920920D01*
X1334971Y921932D01*
X1334255Y922026D01*
D02*
G37*
G36*
X1330445D02*
X1329729Y921932D01*
X1327287Y920920D01*
X1325189Y919311D01*
X1323580Y917213D01*
X1322568Y914771D01*
X1322223Y912150D01*
Y911555D01*
X1330445D01*
Y922026D01*
D02*
G37*
G36*
X891355Y909490D02*
X888645D01*
X886028Y908789D01*
X883682Y907434D01*
X881766Y905518D01*
X881471Y905007D01*
X855085D01*
X853819Y906274D01*
X851791Y907444D01*
X849530Y908050D01*
X847190D01*
X844929Y907444D01*
X842901Y906274D01*
X841246Y904619D01*
X840076Y902591D01*
X839470Y900330D01*
Y897990D01*
X840076Y895729D01*
X841246Y893701D01*
X842901Y892046D01*
X844929Y890876D01*
X847190Y890270D01*
X849530D01*
X851791Y890876D01*
X853819Y892046D01*
X855125Y893353D01*
X881494D01*
X881766Y892882D01*
X883682Y890966D01*
X886028Y889611D01*
X888645Y888910D01*
X891355D01*
X893972Y889611D01*
X896318Y890966D01*
X898234Y892882D01*
X899589Y895228D01*
X900290Y897845D01*
Y900555D01*
X899589Y903172D01*
X898234Y905518D01*
X896318Y907434D01*
X893972Y908789D01*
X891355Y909490D01*
D02*
G37*
G36*
X1342477Y907745D02*
X1334255D01*
Y897274D01*
X1334971Y897368D01*
X1337413Y898380D01*
X1339511Y899989D01*
X1341120Y902087D01*
X1342132Y904529D01*
X1342477Y907150D01*
Y907745D01*
D02*
G37*
G36*
X1330445D02*
X1322223D01*
Y907150D01*
X1322568Y904529D01*
X1323580Y902087D01*
X1325189Y899989D01*
X1327287Y898380D01*
X1329729Y897368D01*
X1330445Y897274D01*
Y907745D01*
D02*
G37*
G36*
X1433950Y922277D02*
X1431329Y921932D01*
X1428887Y920920D01*
X1426789Y919311D01*
X1425180Y917213D01*
X1424168Y914771D01*
X1423823Y912150D01*
Y907150D01*
X1424168Y904529D01*
X1425180Y902087D01*
X1426789Y899989D01*
X1428887Y898380D01*
X1431329Y897368D01*
X1433950Y897023D01*
X1436571Y897368D01*
X1439013Y898380D01*
X1441111Y899989D01*
X1442720Y902087D01*
X1443732Y904529D01*
X1444077Y907150D01*
Y912150D01*
X1443732Y914771D01*
X1442720Y917213D01*
X1441111Y919311D01*
X1439013Y920920D01*
X1436571Y921932D01*
X1433950Y922277D01*
D02*
G37*
G36*
X1408550D02*
X1405929Y921932D01*
X1403487Y920920D01*
X1401389Y919311D01*
X1399780Y917213D01*
X1398768Y914771D01*
X1398423Y912150D01*
Y907150D01*
X1398768Y904529D01*
X1399780Y902087D01*
X1401389Y899989D01*
X1403487Y898380D01*
X1405929Y897368D01*
X1408550Y897023D01*
X1411171Y897368D01*
X1413613Y898380D01*
X1415711Y899989D01*
X1417320Y902087D01*
X1418332Y904529D01*
X1418677Y907150D01*
Y912150D01*
X1418332Y914771D01*
X1417320Y917213D01*
X1415711Y919311D01*
X1413613Y920920D01*
X1411171Y921932D01*
X1408550Y922277D01*
D02*
G37*
G36*
X1360070Y958850D02*
X1357730D01*
X1355469Y958244D01*
X1353441Y957074D01*
X1351786Y955419D01*
X1350616Y953391D01*
X1350010Y951130D01*
Y948790D01*
X1350616Y946529D01*
X1351786Y944501D01*
X1353441Y942846D01*
X1355469Y941676D01*
X1357730Y941070D01*
X1359549D01*
X1377323Y923296D01*
Y920334D01*
X1375989Y919311D01*
X1374380Y917213D01*
X1373368Y914771D01*
X1373023Y912150D01*
Y907150D01*
X1373368Y904529D01*
X1374380Y902087D01*
X1375989Y899989D01*
X1378087Y898380D01*
X1380529Y897368D01*
X1383150Y897023D01*
X1385771Y897368D01*
X1388213Y898380D01*
X1390311Y899989D01*
X1391920Y902087D01*
X1392932Y904529D01*
X1393277Y907150D01*
Y912150D01*
X1392932Y914771D01*
X1391920Y917213D01*
X1390311Y919311D01*
X1388977Y920334D01*
Y925710D01*
X1388533Y927940D01*
X1387270Y929830D01*
X1367790Y949311D01*
Y951130D01*
X1367184Y953391D01*
X1366014Y955419D01*
X1364359Y957074D01*
X1362331Y958244D01*
X1360070Y958850D01*
D02*
G37*
G36*
X364450Y911827D02*
X359450D01*
X356829Y911482D01*
X354387Y910470D01*
X352289Y908861D01*
X350680Y906763D01*
X349668Y904321D01*
X349323Y901700D01*
X349668Y899079D01*
X350680Y896637D01*
X352289Y894539D01*
X354387Y892930D01*
X356829Y891918D01*
X359450Y891573D01*
X364450D01*
X367071Y891918D01*
X369513Y892930D01*
X371611Y894539D01*
X371675Y894623D01*
X677561D01*
X678566Y892882D01*
X680482Y890966D01*
X682828Y889611D01*
X685445Y888910D01*
X688155D01*
X690772Y889611D01*
X693118Y890966D01*
X695034Y892882D01*
X696389Y895228D01*
X697090Y897845D01*
Y900555D01*
X696389Y903172D01*
X695034Y905518D01*
X693118Y907434D01*
X690772Y908789D01*
X688155Y909490D01*
X685445D01*
X682828Y908789D01*
X680482Y907434D01*
X679325Y906277D01*
X373421D01*
X373220Y906763D01*
X371611Y908861D01*
X369513Y910470D01*
X367071Y911482D01*
X364450Y911827D01*
D02*
G37*
G36*
X1560900Y889980D02*
X1548765D01*
Y881725D01*
X1560900D01*
Y889980D01*
D02*
G37*
G36*
X1544955D02*
X1532820D01*
Y881725D01*
X1544955D01*
Y889980D01*
D02*
G37*
G36*
X1560900Y877915D02*
X1548765D01*
Y869660D01*
X1560900D01*
Y877915D01*
D02*
G37*
G36*
X1544955D02*
X1532820D01*
Y869660D01*
X1544955D01*
Y877915D01*
D02*
G37*
G36*
X1337310Y876300D02*
X1329055D01*
Y868045D01*
X1337310D01*
Y876300D01*
D02*
G37*
G36*
X1325245D02*
X1316990D01*
Y868045D01*
X1325245D01*
Y876300D01*
D02*
G37*
G36*
X891355Y884090D02*
X888645D01*
X886028Y883389D01*
X883682Y882034D01*
X881766Y880118D01*
X880411Y877772D01*
X879710Y875155D01*
Y872445D01*
X880411Y869828D01*
X881766Y867482D01*
X883682Y865566D01*
X886028Y864211D01*
X888645Y863510D01*
X891355D01*
X893972Y864211D01*
X896318Y865566D01*
X898234Y867482D01*
X899589Y869828D01*
X900290Y872445D01*
Y875155D01*
X899589Y877772D01*
X898234Y880118D01*
X896318Y882034D01*
X893972Y883389D01*
X891355Y884090D01*
D02*
G37*
G36*
X364450Y886427D02*
X359450D01*
X356829Y886082D01*
X354387Y885070D01*
X352289Y883461D01*
X350680Y881363D01*
X349668Y878921D01*
X349323Y876300D01*
X349668Y873679D01*
X350680Y871237D01*
X352289Y869139D01*
X354387Y867530D01*
X356829Y866518D01*
X359450Y866173D01*
X364450D01*
X367071Y866518D01*
X369513Y867530D01*
X371611Y869139D01*
X371675Y869223D01*
X677561D01*
X678566Y867482D01*
X680482Y865566D01*
X682828Y864211D01*
X685445Y863510D01*
X688155D01*
X690772Y864211D01*
X693118Y865566D01*
X695034Y867482D01*
X696389Y869828D01*
X697090Y872445D01*
Y875155D01*
X696389Y877772D01*
X695034Y880118D01*
X693118Y882034D01*
X690772Y883389D01*
X688155Y884090D01*
X685445D01*
X682828Y883389D01*
X680482Y882034D01*
X679325Y880877D01*
X373421D01*
X373220Y881363D01*
X371611Y883461D01*
X369513Y885070D01*
X367071Y886082D01*
X364450Y886427D01*
D02*
G37*
G36*
X1337310Y864235D02*
X1329055D01*
Y855980D01*
X1337310D01*
Y864235D01*
D02*
G37*
G36*
X1325245D02*
X1316990D01*
Y855980D01*
X1325245D01*
Y864235D01*
D02*
G37*
G36*
X1560900Y855980D02*
X1532820D01*
Y851647D01*
X1517650D01*
Y855980D01*
X1497330D01*
Y835660D01*
X1517650D01*
Y839993D01*
X1532820D01*
Y835660D01*
X1560900D01*
Y855980D01*
D02*
G37*
G36*
X969375Y857722D02*
Y849485D01*
X977613D01*
X977059Y851552D01*
X975704Y853898D01*
X973788Y855814D01*
X971442Y857169D01*
X969375Y857722D01*
D02*
G37*
G36*
X965565D02*
X963498Y857169D01*
X961152Y855814D01*
X959236Y853898D01*
X957881Y851552D01*
X957327Y849485D01*
X965565D01*
Y857722D01*
D02*
G37*
G36*
X613775D02*
Y849485D01*
X622012D01*
X621459Y851552D01*
X620104Y853898D01*
X618188Y855814D01*
X615842Y857169D01*
X613775Y857722D01*
D02*
G37*
G36*
X609965D02*
X607898Y857169D01*
X605552Y855814D01*
X603636Y853898D01*
X602281Y851552D01*
X601727Y849485D01*
X609965D01*
Y857722D01*
D02*
G37*
G36*
X977613Y845675D02*
X969375D01*
Y837437D01*
X971442Y837991D01*
X973788Y839346D01*
X975704Y841262D01*
X977059Y843608D01*
X977613Y845675D01*
D02*
G37*
G36*
X965565D02*
X957327D01*
X957881Y843608D01*
X959236Y841262D01*
X961152Y839346D01*
X963498Y837991D01*
X965565Y837437D01*
Y845675D01*
D02*
G37*
G36*
X622012D02*
X613775D01*
Y837437D01*
X615842Y837991D01*
X618188Y839346D01*
X620104Y841262D01*
X621459Y843608D01*
X622012Y845675D01*
D02*
G37*
G36*
X609965D02*
X601727D01*
X602281Y843608D01*
X603636Y841262D01*
X605552Y839346D01*
X607898Y837991D01*
X609965Y837437D01*
Y845675D01*
D02*
G37*
G36*
X969375Y832322D02*
Y824085D01*
X977613D01*
X977059Y826152D01*
X975704Y828498D01*
X973788Y830414D01*
X971442Y831769D01*
X969375Y832322D01*
D02*
G37*
G36*
X965565D02*
X963498Y831769D01*
X961152Y830414D01*
X959236Y828498D01*
X957881Y826152D01*
X957327Y824085D01*
X965565D01*
Y832322D01*
D02*
G37*
G36*
X977613Y820275D02*
X969375D01*
Y812037D01*
X971442Y812591D01*
X973788Y813946D01*
X975704Y815862D01*
X977059Y818208D01*
X977613Y820275D01*
D02*
G37*
G36*
X965565D02*
X957327D01*
X957881Y818208D01*
X959236Y815862D01*
X961152Y813946D01*
X963498Y812591D01*
X965565Y812037D01*
Y820275D01*
D02*
G37*
G36*
X496470Y864870D02*
X494130D01*
X491869Y864264D01*
X489841Y863094D01*
X488186Y861439D01*
X487016Y859411D01*
X486410Y857150D01*
Y854810D01*
X487016Y852549D01*
X488186Y850521D01*
X489841Y848866D01*
X491869Y847696D01*
X494130Y847090D01*
X495949D01*
X524980Y818060D01*
X526870Y816797D01*
X529100Y816353D01*
X603352D01*
X603636Y815862D01*
X605552Y813946D01*
X607898Y812591D01*
X610515Y811890D01*
X613225D01*
X615842Y812591D01*
X618188Y813946D01*
X620104Y815862D01*
X621459Y818208D01*
X622160Y820825D01*
Y823535D01*
X621459Y826152D01*
X620104Y828498D01*
X618188Y830414D01*
X615842Y831769D01*
X613225Y832470D01*
X610515D01*
X607898Y831769D01*
X605552Y830414D01*
X603636Y828498D01*
X603352Y828007D01*
X531514D01*
X504190Y855331D01*
Y857150D01*
X503584Y859411D01*
X502414Y861439D01*
X500759Y863094D01*
X498731Y864264D01*
X496470Y864870D01*
D02*
G37*
G36*
X902380Y856150D02*
X897940D01*
X893585Y855284D01*
X889483Y853585D01*
X885792Y851118D01*
X882652Y847978D01*
X880185Y844287D01*
X878486Y840185D01*
X877620Y835830D01*
Y831390D01*
X878486Y827035D01*
X880185Y822933D01*
X882652Y819242D01*
X885792Y816102D01*
X889483Y813635D01*
X893585Y811936D01*
X897940Y811070D01*
X902380D01*
X906735Y811936D01*
X910837Y813635D01*
X914528Y816102D01*
X917668Y819242D01*
X920135Y822933D01*
X921834Y827035D01*
X922700Y831390D01*
Y835830D01*
X921834Y840185D01*
X920135Y844287D01*
X917668Y847978D01*
X914528Y851118D01*
X910837Y853585D01*
X906735Y855284D01*
X902380Y856150D01*
D02*
G37*
G36*
X681400D02*
X676960D01*
X672605Y855284D01*
X668503Y853585D01*
X664812Y851118D01*
X661672Y847978D01*
X659205Y844287D01*
X657506Y840185D01*
X656640Y835830D01*
Y831390D01*
X657506Y827035D01*
X659205Y822933D01*
X661672Y819242D01*
X664812Y816102D01*
X668503Y813635D01*
X672605Y811936D01*
X676960Y811070D01*
X681400D01*
X685755Y811936D01*
X689857Y813635D01*
X693548Y816102D01*
X696688Y819242D01*
X699155Y822933D01*
X700854Y827035D01*
X701720Y831390D01*
Y835830D01*
X700854Y840185D01*
X699155Y844287D01*
X696688Y847978D01*
X693548Y851118D01*
X689857Y853585D01*
X685755Y855284D01*
X681400Y856150D01*
D02*
G37*
G36*
X913030Y806450D02*
X910690D01*
X908429Y805844D01*
X906401Y804674D01*
X905115Y803387D01*
X832245D01*
X830959Y804674D01*
X828931Y805844D01*
X826670Y806450D01*
X824330D01*
X822069Y805844D01*
X820041Y804674D01*
X818386Y803019D01*
X817216Y800991D01*
X816610Y798730D01*
Y796390D01*
X817216Y794129D01*
X818386Y792101D01*
X820041Y790446D01*
X822069Y789276D01*
X824330Y788670D01*
X826670D01*
X828931Y789276D01*
X830959Y790446D01*
X832245Y791733D01*
X905115D01*
X906401Y790446D01*
X908429Y789276D01*
X910690Y788670D01*
X913030D01*
X915291Y789276D01*
X917319Y790446D01*
X918974Y792101D01*
X920144Y794129D01*
X920750Y796390D01*
Y798730D01*
X920144Y800991D01*
X918974Y803019D01*
X917319Y804674D01*
X915291Y805844D01*
X913030Y806450D01*
D02*
G37*
G36*
X1319539Y1149439D02*
X1304459D01*
Y1129359D01*
X1306172D01*
Y1113752D01*
X995026Y802607D01*
X975988D01*
X975704Y803098D01*
X973788Y805014D01*
X971442Y806369D01*
X968825Y807070D01*
X966115D01*
X963498Y806369D01*
X961152Y805014D01*
X959236Y803098D01*
X957881Y800752D01*
X957180Y798135D01*
Y795425D01*
X957881Y792808D01*
X959236Y790462D01*
X961152Y788546D01*
X963498Y787191D01*
X966115Y786490D01*
X968825D01*
X971442Y787191D01*
X973788Y788546D01*
X975704Y790462D01*
X975988Y790953D01*
X997440D01*
X999670Y791397D01*
X1001560Y792660D01*
X1316119Y1107218D01*
X1317382Y1109109D01*
X1317826Y1111339D01*
Y1129359D01*
X1319539D01*
Y1149439D01*
D02*
G37*
G36*
X364450Y803877D02*
X363855D01*
Y795655D01*
X374326D01*
X374232Y796371D01*
X373220Y798813D01*
X371611Y800911D01*
X369513Y802520D01*
X367071Y803532D01*
X364450Y803877D01*
D02*
G37*
G36*
X360045D02*
X359450D01*
X356829Y803532D01*
X354387Y802520D01*
X352289Y800911D01*
X350680Y798813D01*
X349668Y796371D01*
X349574Y795655D01*
X360045D01*
Y803877D01*
D02*
G37*
G36*
X613225Y807070D02*
X610515D01*
X607898Y806369D01*
X605552Y805014D01*
X603636Y803098D01*
X602281Y800752D01*
X601580Y798135D01*
Y795425D01*
X602281Y792808D01*
X603636Y790462D01*
X605552Y788546D01*
X607898Y787191D01*
X610515Y786490D01*
X613225D01*
X615842Y787191D01*
X618188Y788546D01*
X620104Y790462D01*
X620613Y791343D01*
X704845D01*
X705741Y790446D01*
X707769Y789276D01*
X710030Y788670D01*
X712370D01*
X714631Y789276D01*
X716659Y790446D01*
X718314Y792101D01*
X719484Y794129D01*
X720090Y796390D01*
Y798730D01*
X719484Y800991D01*
X718314Y803019D01*
X716659Y804674D01*
X714631Y805844D01*
X712370Y806450D01*
X710030D01*
X707769Y805844D01*
X705741Y804674D01*
X704086Y803019D01*
X704074Y802997D01*
X620163D01*
X620104Y803098D01*
X618188Y805014D01*
X615842Y806369D01*
X613225Y807070D01*
D02*
G37*
G36*
X374326Y791845D02*
X363855D01*
Y783623D01*
X364450D01*
X367071Y783968D01*
X369513Y784980D01*
X371611Y786589D01*
X373220Y788687D01*
X374232Y791129D01*
X374326Y791845D01*
D02*
G37*
G36*
X360045D02*
X349574D01*
X349668Y791129D01*
X350680Y788687D01*
X352289Y786589D01*
X354387Y784980D01*
X356829Y783968D01*
X359450Y783623D01*
X360045D01*
Y791845D01*
D02*
G37*
G36*
X1344540Y1149439D02*
X1329460D01*
Y1129359D01*
X1331173D01*
Y1113354D01*
X995026Y777207D01*
X975988D01*
X975704Y777698D01*
X973788Y779614D01*
X971442Y780969D01*
X968825Y781670D01*
X966115D01*
X963498Y780969D01*
X961152Y779614D01*
X959236Y777698D01*
X957881Y775352D01*
X957180Y772735D01*
Y770025D01*
X957881Y767408D01*
X959236Y765062D01*
X961152Y763146D01*
X963498Y761791D01*
X966115Y761090D01*
X968825D01*
X971442Y761791D01*
X973788Y763146D01*
X975704Y765062D01*
X975988Y765553D01*
X997440D01*
X999670Y765997D01*
X1001560Y767260D01*
X1341120Y1106820D01*
X1342383Y1108710D01*
X1342827Y1110940D01*
Y1129359D01*
X1344540D01*
Y1149439D01*
D02*
G37*
G36*
X692785Y778313D02*
Y771525D01*
X699573D01*
X699164Y773051D01*
X697994Y775079D01*
X696339Y776734D01*
X694311Y777904D01*
X692785Y778313D01*
D02*
G37*
G36*
X688975D02*
X687449Y777904D01*
X685421Y776734D01*
X683766Y775079D01*
X682596Y773051D01*
X682187Y771525D01*
X688975D01*
Y778313D01*
D02*
G37*
G36*
X657225D02*
Y771525D01*
X664013D01*
X663604Y773051D01*
X662434Y775079D01*
X660779Y776734D01*
X658751Y777904D01*
X657225Y778313D01*
D02*
G37*
G36*
X653415D02*
X651889Y777904D01*
X649861Y776734D01*
X648206Y775079D01*
X647036Y773051D01*
X646627Y771525D01*
X653415D01*
Y778313D01*
D02*
G37*
G36*
X364450Y778477D02*
X363855D01*
Y770255D01*
X374326D01*
X374232Y770971D01*
X373220Y773413D01*
X371611Y775511D01*
X369513Y777120D01*
X367071Y778132D01*
X364450Y778477D01*
D02*
G37*
G36*
X360045D02*
X359450D01*
X356829Y778132D01*
X354387Y777120D01*
X352289Y775511D01*
X350680Y773413D01*
X349668Y770971D01*
X349574Y770255D01*
X360045D01*
Y778477D01*
D02*
G37*
G36*
X901065Y775773D02*
Y768985D01*
X907853D01*
X907444Y770511D01*
X906274Y772539D01*
X904619Y774194D01*
X902591Y775364D01*
X901065Y775773D01*
D02*
G37*
G36*
X897255D02*
X895729Y775364D01*
X893701Y774194D01*
X892046Y772539D01*
X890876Y770511D01*
X890467Y768985D01*
X897255D01*
Y775773D01*
D02*
G37*
G36*
X845185D02*
Y768985D01*
X851973D01*
X851564Y770511D01*
X850394Y772539D01*
X848739Y774194D01*
X846711Y775364D01*
X845185Y775773D01*
D02*
G37*
G36*
X841375D02*
X839849Y775364D01*
X837821Y774194D01*
X836166Y772539D01*
X834996Y770511D01*
X834587Y768985D01*
X841375D01*
Y775773D01*
D02*
G37*
G36*
X613225Y781670D02*
X610515D01*
X607898Y780969D01*
X605552Y779614D01*
X603636Y777698D01*
X602281Y775352D01*
X601580Y772735D01*
Y770025D01*
X602281Y767408D01*
X603636Y765062D01*
X605552Y763146D01*
X607898Y761791D01*
X610515Y761090D01*
X613225D01*
X615842Y761791D01*
X618188Y763146D01*
X620104Y765062D01*
X621459Y767408D01*
X622160Y770025D01*
Y772735D01*
X621459Y775352D01*
X620104Y777698D01*
X618188Y779614D01*
X615842Y780969D01*
X613225Y781670D01*
D02*
G37*
G36*
X699573Y767715D02*
X692785D01*
Y760927D01*
X694311Y761336D01*
X696339Y762506D01*
X697994Y764161D01*
X699164Y766189D01*
X699573Y767715D01*
D02*
G37*
G36*
X688975D02*
X682187D01*
X682596Y766189D01*
X683766Y764161D01*
X685421Y762506D01*
X687449Y761336D01*
X688975Y760927D01*
Y767715D01*
D02*
G37*
G36*
X664013D02*
X657225D01*
Y760927D01*
X658751Y761336D01*
X660779Y762506D01*
X662434Y764161D01*
X663604Y766189D01*
X664013Y767715D01*
D02*
G37*
G36*
X653415D02*
X646627D01*
X647036Y766189D01*
X648206Y764161D01*
X649861Y762506D01*
X651889Y761336D01*
X653415Y760927D01*
Y767715D01*
D02*
G37*
G36*
X907853Y765175D02*
X901065D01*
Y758387D01*
X902591Y758796D01*
X904619Y759966D01*
X906274Y761621D01*
X907444Y763649D01*
X907853Y765175D01*
D02*
G37*
G36*
X897255D02*
X890467D01*
X890876Y763649D01*
X892046Y761621D01*
X893701Y759966D01*
X895729Y758796D01*
X897255Y758387D01*
Y765175D01*
D02*
G37*
G36*
X851973D02*
X845185D01*
Y758387D01*
X846711Y758796D01*
X848739Y759966D01*
X850394Y761621D01*
X851564Y763649D01*
X851973Y765175D01*
D02*
G37*
G36*
X841375D02*
X834587D01*
X834996Y763649D01*
X836166Y761621D01*
X837821Y759966D01*
X839849Y758796D01*
X841375Y758387D01*
Y765175D01*
D02*
G37*
G36*
X374326Y766445D02*
X363855D01*
Y758223D01*
X364450D01*
X367071Y758568D01*
X369513Y759580D01*
X371611Y761189D01*
X373220Y763287D01*
X374232Y765729D01*
X374326Y766445D01*
D02*
G37*
G36*
X360045D02*
X349574D01*
X349668Y765729D01*
X350680Y763287D01*
X352289Y761189D01*
X354387Y759580D01*
X356829Y758568D01*
X359450Y758223D01*
X360045D01*
Y766445D01*
D02*
G37*
G36*
X613225Y756270D02*
X610515D01*
X607898Y755569D01*
X605552Y754214D01*
X603636Y752298D01*
X602281Y749952D01*
X601580Y747335D01*
Y744625D01*
X602281Y742008D01*
X603636Y739662D01*
X605552Y737746D01*
X607898Y736391D01*
X610515Y735690D01*
X613225D01*
X615842Y736391D01*
X618188Y737746D01*
X620104Y739662D01*
X621459Y742008D01*
X622160Y744625D01*
Y747335D01*
X621459Y749952D01*
X620104Y752298D01*
X618188Y754214D01*
X615842Y755569D01*
X613225Y756270D01*
D02*
G37*
G36*
X364450Y753077D02*
X359450D01*
X356829Y752732D01*
X354387Y751720D01*
X352289Y750111D01*
X350680Y748013D01*
X349668Y745571D01*
X349323Y742950D01*
X349668Y740329D01*
X350680Y737887D01*
X352289Y735789D01*
X354387Y734180D01*
X356829Y733168D01*
X359450Y732823D01*
X364450D01*
X367071Y733168D01*
X369513Y734180D01*
X371611Y735789D01*
X373220Y737887D01*
X374232Y740329D01*
X374577Y742950D01*
X374232Y745571D01*
X373220Y748013D01*
X371611Y750111D01*
X369513Y751720D01*
X367071Y752732D01*
X364450Y753077D01*
D02*
G37*
G36*
X692785Y737673D02*
Y730885D01*
X699573D01*
X699164Y732411D01*
X697994Y734439D01*
X696339Y736094D01*
X694311Y737264D01*
X692785Y737673D01*
D02*
G37*
G36*
X688975D02*
X687449Y737264D01*
X685421Y736094D01*
X683766Y734439D01*
X682596Y732411D01*
X682187Y730885D01*
X688975D01*
Y737673D01*
D02*
G37*
G36*
X657225D02*
Y730885D01*
X664013D01*
X663604Y732411D01*
X662434Y734439D01*
X660779Y736094D01*
X658751Y737264D01*
X657225Y737673D01*
D02*
G37*
G36*
X653415D02*
X651889Y737264D01*
X649861Y736094D01*
X648206Y734439D01*
X647036Y732411D01*
X646627Y730885D01*
X653415D01*
Y737673D01*
D02*
G37*
G36*
X1438810Y1029970D02*
X1436470D01*
X1434209Y1029364D01*
X1432181Y1028194D01*
X1430526Y1026539D01*
X1429356Y1024511D01*
X1428750Y1022250D01*
Y1020431D01*
X1425066Y1016747D01*
X1297940D01*
X1295710Y1016303D01*
X1293820Y1015040D01*
X1005186Y726407D01*
X975988D01*
X975704Y726898D01*
X973788Y728814D01*
X971442Y730169D01*
X968825Y730870D01*
X966115D01*
X963498Y730169D01*
X961152Y728814D01*
X959236Y726898D01*
X957881Y724552D01*
X957180Y721935D01*
Y719225D01*
X957881Y716608D01*
X959236Y714262D01*
X961152Y712346D01*
X963498Y710991D01*
X966115Y710290D01*
X968825D01*
X971442Y710991D01*
X973788Y712346D01*
X975704Y714262D01*
X975988Y714753D01*
X1007600D01*
X1009830Y715197D01*
X1011720Y716460D01*
X1300354Y1005093D01*
X1427480D01*
X1429710Y1005537D01*
X1431600Y1006800D01*
X1436991Y1012190D01*
X1438810D01*
X1441071Y1012796D01*
X1443099Y1013966D01*
X1444754Y1015621D01*
X1445924Y1017649D01*
X1446530Y1019910D01*
Y1022250D01*
X1445924Y1024511D01*
X1444754Y1026539D01*
X1443099Y1028194D01*
X1441071Y1029364D01*
X1438810Y1029970D01*
D02*
G37*
G36*
X699573Y727075D02*
X692785D01*
Y720287D01*
X694311Y720696D01*
X696339Y721866D01*
X697994Y723521D01*
X699164Y725549D01*
X699573Y727075D01*
D02*
G37*
G36*
X688975D02*
X682187D01*
X682596Y725549D01*
X683766Y723521D01*
X685421Y721866D01*
X687449Y720696D01*
X688975Y720287D01*
Y727075D01*
D02*
G37*
G36*
X664013D02*
X657225D01*
Y720287D01*
X658751Y720696D01*
X660779Y721866D01*
X662434Y723521D01*
X663604Y725549D01*
X664013Y727075D01*
D02*
G37*
G36*
X653415D02*
X646627D01*
X647036Y725549D01*
X648206Y723521D01*
X649861Y721866D01*
X651889Y720696D01*
X653415Y720287D01*
Y727075D01*
D02*
G37*
G36*
X901065Y724973D02*
Y718185D01*
X907853D01*
X907444Y719711D01*
X906274Y721739D01*
X904619Y723394D01*
X902591Y724564D01*
X901065Y724973D01*
D02*
G37*
G36*
X897255D02*
X895729Y724564D01*
X893701Y723394D01*
X892046Y721739D01*
X890876Y719711D01*
X890467Y718185D01*
X897255D01*
Y724973D01*
D02*
G37*
G36*
X845185D02*
Y718185D01*
X851973D01*
X851564Y719711D01*
X850394Y721739D01*
X848739Y723394D01*
X846711Y724564D01*
X845185Y724973D01*
D02*
G37*
G36*
X841375D02*
X839849Y724564D01*
X837821Y723394D01*
X836166Y721739D01*
X834996Y719711D01*
X834587Y718185D01*
X841375D01*
Y724973D01*
D02*
G37*
G36*
X613225Y730870D02*
X610515D01*
X607898Y730169D01*
X605552Y728814D01*
X603636Y726898D01*
X603352Y726407D01*
X479280D01*
X477050Y725963D01*
X475160Y724700D01*
X427680Y677220D01*
X426417Y675330D01*
X425973Y673100D01*
Y581660D01*
X421640D01*
Y561340D01*
X441960D01*
Y581660D01*
X437627D01*
Y670686D01*
X481694Y714753D01*
X603352D01*
X603636Y714262D01*
X605552Y712346D01*
X607898Y710991D01*
X610515Y710290D01*
X613225D01*
X615842Y710991D01*
X618188Y712346D01*
X620104Y714262D01*
X621459Y716608D01*
X622160Y719225D01*
Y721935D01*
X621459Y724552D01*
X620104Y726898D01*
X618188Y728814D01*
X615842Y730169D01*
X613225Y730870D01*
D02*
G37*
G36*
X907853Y714375D02*
X901065D01*
Y707587D01*
X902591Y707996D01*
X904619Y709166D01*
X906274Y710821D01*
X907444Y712849D01*
X907853Y714375D01*
D02*
G37*
G36*
X897255D02*
X890467D01*
X890876Y712849D01*
X892046Y710821D01*
X893701Y709166D01*
X895729Y707996D01*
X897255Y707587D01*
Y714375D01*
D02*
G37*
G36*
X851973D02*
X845185D01*
Y707587D01*
X846711Y707996D01*
X848739Y709166D01*
X850394Y710821D01*
X851564Y712849D01*
X851973Y714375D01*
D02*
G37*
G36*
X841375D02*
X834587D01*
X834996Y712849D01*
X836166Y710821D01*
X837821Y709166D01*
X839849Y707996D01*
X841375Y707587D01*
Y714375D01*
D02*
G37*
G36*
X364450Y727677D02*
X359450D01*
X356829Y727332D01*
X354387Y726320D01*
X352289Y724711D01*
X350680Y722613D01*
X349668Y720171D01*
X349323Y717550D01*
X349668Y714929D01*
X350680Y712487D01*
X352289Y710389D01*
X354387Y708780D01*
X356829Y707768D01*
X359450Y707423D01*
X364450D01*
X367071Y707768D01*
X369513Y708780D01*
X371611Y710389D01*
X373220Y712487D01*
X374232Y714929D01*
X374577Y717550D01*
X374232Y720171D01*
X373220Y722613D01*
X371611Y724711D01*
X369513Y726320D01*
X367071Y727332D01*
X364450Y727677D01*
D02*
G37*
G36*
X695325Y699573D02*
Y692785D01*
X702113D01*
X701704Y694311D01*
X700534Y696339D01*
X698879Y697994D01*
X696851Y699164D01*
X695325Y699573D01*
D02*
G37*
G36*
X691515D02*
X689989Y699164D01*
X687961Y697994D01*
X686306Y696339D01*
X685136Y694311D01*
X684727Y692785D01*
X691515D01*
Y699573D01*
D02*
G37*
G36*
X657225D02*
Y692785D01*
X664013D01*
X663604Y694311D01*
X662434Y696339D01*
X660779Y697994D01*
X658751Y699164D01*
X657225Y699573D01*
D02*
G37*
G36*
X653415D02*
X651889Y699164D01*
X649861Y697994D01*
X648206Y696339D01*
X647036Y694311D01*
X646627Y692785D01*
X653415D01*
Y699573D01*
D02*
G37*
G36*
X613225Y705470D02*
X610515D01*
X607898Y704769D01*
X605552Y703414D01*
X603636Y701498D01*
X603352Y701007D01*
X497060D01*
X494830Y700563D01*
X492940Y699300D01*
X453080Y659440D01*
X451817Y657550D01*
X451373Y655320D01*
Y581660D01*
X447040D01*
Y561340D01*
X467360D01*
Y581660D01*
X463027D01*
Y652906D01*
X499474Y689353D01*
X603352D01*
X603636Y688862D01*
X605552Y686946D01*
X607898Y685591D01*
X610515Y684890D01*
X613225D01*
X615842Y685591D01*
X618188Y686946D01*
X620104Y688862D01*
X621459Y691208D01*
X622160Y693825D01*
Y696535D01*
X621459Y699152D01*
X620104Y701498D01*
X618188Y703414D01*
X615842Y704769D01*
X613225Y705470D01*
D02*
G37*
G36*
X702113Y688975D02*
X695325D01*
Y682187D01*
X696851Y682596D01*
X698879Y683766D01*
X700534Y685421D01*
X701704Y687449D01*
X702113Y688975D01*
D02*
G37*
G36*
X691515D02*
X684727D01*
X685136Y687449D01*
X686306Y685421D01*
X687961Y683766D01*
X689989Y682596D01*
X691515Y682187D01*
Y688975D01*
D02*
G37*
G36*
X664013D02*
X657225D01*
Y682187D01*
X658751Y682596D01*
X660779Y683766D01*
X662434Y685421D01*
X663604Y687449D01*
X664013Y688975D01*
D02*
G37*
G36*
X653415D02*
X646627D01*
X647036Y687449D01*
X648206Y685421D01*
X649861Y683766D01*
X651889Y682596D01*
X653415Y682187D01*
Y688975D01*
D02*
G37*
G36*
X364450Y702277D02*
X359450D01*
X356829Y701932D01*
X354387Y700920D01*
X352289Y699311D01*
X350680Y697213D01*
X349668Y694771D01*
X349323Y692150D01*
X349668Y689529D01*
X350680Y687087D01*
X352289Y684989D01*
X354387Y683380D01*
X356829Y682368D01*
X359450Y682023D01*
X364450D01*
X367071Y682368D01*
X369513Y683380D01*
X371611Y684989D01*
X373220Y687087D01*
X374232Y689529D01*
X374577Y692150D01*
X374232Y694771D01*
X373220Y697213D01*
X371611Y699311D01*
X369513Y700920D01*
X367071Y701932D01*
X364450Y702277D01*
D02*
G37*
G36*
X901065Y674173D02*
Y667385D01*
X907853D01*
X907444Y668911D01*
X906274Y670939D01*
X904619Y672594D01*
X902591Y673764D01*
X901065Y674173D01*
D02*
G37*
G36*
X897255D02*
X895729Y673764D01*
X893701Y672594D01*
X892046Y670939D01*
X890876Y668911D01*
X890467Y667385D01*
X897255D01*
Y674173D01*
D02*
G37*
G36*
X845185D02*
Y667385D01*
X851973D01*
X851564Y668911D01*
X850394Y670939D01*
X848739Y672594D01*
X846711Y673764D01*
X845185Y674173D01*
D02*
G37*
G36*
X841375D02*
X839849Y673764D01*
X837821Y672594D01*
X836166Y670939D01*
X834996Y668911D01*
X834587Y667385D01*
X841375D01*
Y674173D01*
D02*
G37*
G36*
X1294540Y1149439D02*
X1279460D01*
Y1129359D01*
X1281173D01*
Y1114154D01*
X1054226Y887207D01*
X960120D01*
X957890Y886763D01*
X956000Y885500D01*
X938220Y867720D01*
X936957Y865830D01*
X936513Y863600D01*
Y680720D01*
X936957Y678490D01*
X938220Y676600D01*
X949160Y665660D01*
X951050Y664397D01*
X953280Y663953D01*
X958952D01*
X959236Y663462D01*
X961152Y661546D01*
X963498Y660191D01*
X966115Y659490D01*
X968825D01*
X971442Y660191D01*
X973788Y661546D01*
X975704Y663462D01*
X977059Y665808D01*
X977760Y668425D01*
Y671135D01*
X977059Y673752D01*
X975704Y676098D01*
X973788Y678014D01*
X971442Y679369D01*
X968825Y680070D01*
X966115D01*
X963498Y679369D01*
X961152Y678014D01*
X959236Y676098D01*
X958952Y675607D01*
X955694D01*
X948167Y683134D01*
Y861186D01*
X962534Y875553D01*
X1056640D01*
X1058870Y875997D01*
X1060760Y877260D01*
X1291120Y1107620D01*
X1292383Y1109510D01*
X1292827Y1111740D01*
Y1129359D01*
X1294540D01*
Y1149439D01*
D02*
G37*
G36*
X613225Y680070D02*
X610515D01*
X607898Y679369D01*
X605552Y678014D01*
X603636Y676098D01*
X603352Y675607D01*
X517380D01*
X515150Y675163D01*
X513260Y673900D01*
X478480Y639120D01*
X477217Y637230D01*
X476773Y635000D01*
Y581660D01*
X472440D01*
Y561340D01*
X492760D01*
Y581660D01*
X488427D01*
Y632586D01*
X519794Y663953D01*
X603352D01*
X603636Y663462D01*
X605552Y661546D01*
X607898Y660191D01*
X610515Y659490D01*
X613225D01*
X615842Y660191D01*
X618188Y661546D01*
X620104Y663462D01*
X621459Y665808D01*
X622160Y668425D01*
Y671135D01*
X621459Y673752D01*
X620104Y676098D01*
X618188Y678014D01*
X615842Y679369D01*
X613225Y680070D01*
D02*
G37*
G36*
X907853Y663575D02*
X901065D01*
Y656787D01*
X902591Y657196D01*
X904619Y658366D01*
X906274Y660021D01*
X907444Y662049D01*
X907853Y663575D01*
D02*
G37*
G36*
X897255D02*
X890467D01*
X890876Y662049D01*
X892046Y660021D01*
X893701Y658366D01*
X895729Y657196D01*
X897255Y656787D01*
Y663575D01*
D02*
G37*
G36*
X851973D02*
X845185D01*
Y656787D01*
X846711Y657196D01*
X848739Y658366D01*
X850394Y660021D01*
X851564Y662049D01*
X851973Y663575D01*
D02*
G37*
G36*
X841375D02*
X834587D01*
X834996Y662049D01*
X836166Y660021D01*
X837821Y658366D01*
X839849Y657196D01*
X841375Y656787D01*
Y663575D01*
D02*
G37*
G36*
X364450Y676877D02*
X359450D01*
X356829Y676532D01*
X354387Y675520D01*
X352289Y673911D01*
X350680Y671813D01*
X349668Y669371D01*
X349323Y666750D01*
X349668Y664129D01*
X350680Y661687D01*
X352289Y659589D01*
X354387Y657980D01*
X356829Y656968D01*
X359450Y656623D01*
X364450D01*
X367071Y656968D01*
X369513Y657980D01*
X371611Y659589D01*
X373220Y661687D01*
X374232Y664129D01*
X374577Y666750D01*
X374232Y669371D01*
X373220Y671813D01*
X371611Y673911D01*
X369513Y675520D01*
X367071Y676532D01*
X364450Y676877D01*
D02*
G37*
G36*
X802640Y755650D02*
X782320D01*
Y735330D01*
X786653D01*
Y672225D01*
X785366Y670939D01*
X784196Y668911D01*
X783590Y666650D01*
Y664310D01*
X784196Y662049D01*
X785366Y660021D01*
X787021Y658366D01*
X789049Y657196D01*
X791310Y656590D01*
X793650D01*
X795911Y657196D01*
X797939Y658366D01*
X799594Y660021D01*
X800764Y662049D01*
X801370Y664310D01*
Y666650D01*
X800764Y668911D01*
X799594Y670939D01*
X798307Y672225D01*
Y735330D01*
X802640D01*
Y755650D01*
D02*
G37*
G36*
X1321970Y976630D02*
X1319630D01*
X1317369Y976024D01*
X1315341Y974854D01*
X1313686Y973199D01*
X1312516Y971171D01*
X1311910Y968910D01*
Y967091D01*
X995026Y650207D01*
X975988D01*
X975704Y650698D01*
X973788Y652614D01*
X971442Y653969D01*
X968825Y654670D01*
X966115D01*
X963498Y653969D01*
X961152Y652614D01*
X959236Y650698D01*
X957881Y648352D01*
X957180Y645735D01*
Y643025D01*
X957881Y640408D01*
X959236Y638062D01*
X961152Y636146D01*
X963498Y634791D01*
X966115Y634090D01*
X968825D01*
X971442Y634791D01*
X973788Y636146D01*
X975704Y638062D01*
X975988Y638553D01*
X997440D01*
X999670Y638997D01*
X1001560Y640260D01*
X1320151Y958850D01*
X1321970D01*
X1324231Y959456D01*
X1326259Y960626D01*
X1327914Y962281D01*
X1329084Y964309D01*
X1329690Y966570D01*
Y968910D01*
X1329084Y971171D01*
X1327914Y973199D01*
X1326259Y974854D01*
X1324231Y976024D01*
X1321970Y976630D01*
D02*
G37*
G36*
X779780Y755650D02*
X759460D01*
Y735330D01*
X763793D01*
Y656985D01*
X762506Y655699D01*
X761336Y653671D01*
X760730Y651410D01*
Y649070D01*
X761336Y646809D01*
X762506Y644781D01*
X764161Y643126D01*
X766189Y641956D01*
X768450Y641350D01*
X770790D01*
X773051Y641956D01*
X775079Y643126D01*
X776734Y644781D01*
X777904Y646809D01*
X778510Y649070D01*
Y651410D01*
X777904Y653671D01*
X776734Y655699D01*
X775447Y656985D01*
Y735330D01*
X779780D01*
Y755650D01*
D02*
G37*
G36*
X613225Y654670D02*
X610515D01*
X607898Y653969D01*
X605552Y652614D01*
X603925Y650987D01*
X541020D01*
X538790Y650543D01*
X536900Y649280D01*
X503880Y616260D01*
X502617Y614370D01*
X502173Y612140D01*
Y581660D01*
X497840D01*
Y561340D01*
X518160D01*
Y581660D01*
X513827D01*
Y609726D01*
X543434Y639333D01*
X602902D01*
X603636Y638062D01*
X605552Y636146D01*
X607898Y634791D01*
X610515Y634090D01*
X613225D01*
X615842Y634791D01*
X618188Y636146D01*
X620104Y638062D01*
X621459Y640408D01*
X622160Y643025D01*
Y645735D01*
X621459Y648352D01*
X620104Y650698D01*
X618188Y652614D01*
X615842Y653969D01*
X613225Y654670D01*
D02*
G37*
G36*
X364450Y651477D02*
X359450D01*
X356829Y651132D01*
X354387Y650120D01*
X352289Y648511D01*
X350680Y646413D01*
X349668Y643971D01*
X349323Y641350D01*
X349668Y638729D01*
X350680Y636287D01*
X352289Y634189D01*
X354387Y632580D01*
X356829Y631568D01*
X359450Y631223D01*
X364450D01*
X367071Y631568D01*
X369513Y632580D01*
X371611Y634189D01*
X373220Y636287D01*
X374232Y638729D01*
X374577Y641350D01*
X374232Y643971D01*
X373220Y646413D01*
X371611Y648511D01*
X369513Y650120D01*
X367071Y651132D01*
X364450Y651477D01*
D02*
G37*
G36*
X613225Y629270D02*
X610515D01*
X607898Y628569D01*
X605552Y627214D01*
X603636Y625298D01*
X603352Y624807D01*
X560560D01*
X558330Y624363D01*
X556440Y623100D01*
X529280Y595940D01*
X528017Y594050D01*
X527573Y591820D01*
Y581660D01*
X523240D01*
Y561340D01*
X543560D01*
Y581660D01*
X539227D01*
Y589406D01*
X562974Y613153D01*
X603352D01*
X603636Y612662D01*
X605552Y610746D01*
X607898Y609391D01*
X610515Y608690D01*
X613225D01*
X615842Y609391D01*
X618188Y610746D01*
X620104Y612662D01*
X621459Y615008D01*
X622160Y617625D01*
Y620335D01*
X621459Y622952D01*
X620104Y625298D01*
X618188Y627214D01*
X615842Y628569D01*
X613225Y629270D01*
D02*
G37*
G36*
X364450Y626077D02*
X359450D01*
X356829Y625732D01*
X354387Y624720D01*
X352289Y623111D01*
X350680Y621013D01*
X349668Y618571D01*
X349323Y615950D01*
X349668Y613329D01*
X350680Y610887D01*
X352289Y608789D01*
X354387Y607180D01*
X356829Y606168D01*
X359450Y605823D01*
X364450D01*
X367071Y606168D01*
X369513Y607180D01*
X371611Y608789D01*
X373220Y610887D01*
X374232Y613329D01*
X374577Y615950D01*
X374232Y618571D01*
X373220Y621013D01*
X371611Y623111D01*
X369513Y624720D01*
X367071Y625732D01*
X364450Y626077D01*
D02*
G37*
G36*
X751840Y1240867D02*
X751257Y1240790D01*
X750670D01*
X750102Y1240638D01*
X749519Y1240561D01*
X748976Y1240336D01*
X748409Y1240184D01*
X747899Y1239890D01*
X747357Y1239665D01*
X746890Y1239308D01*
X746381Y1239014D01*
X745966Y1238598D01*
X745500Y1238240D01*
X730260Y1223000D01*
X728835Y1221143D01*
X727939Y1218981D01*
X727633Y1216660D01*
Y676814D01*
X659140Y608320D01*
X658782Y607854D01*
X658366Y607439D01*
X658072Y606930D01*
X657715Y606463D01*
X657490Y605920D01*
X657196Y605411D01*
X657044Y604844D01*
X656819Y604301D01*
X656742Y603718D01*
X656590Y603150D01*
Y602563D01*
X656513Y601980D01*
X656590Y601397D01*
Y600810D01*
X656742Y600242D01*
X656819Y599659D01*
X657044Y599116D01*
X657196Y598549D01*
X657490Y598040D01*
X657715Y597497D01*
X658072Y597030D01*
X658366Y596521D01*
X658782Y596106D01*
X659140Y595640D01*
X659606Y595282D01*
X660021Y594866D01*
X660530Y594572D01*
X660997Y594215D01*
X661540Y593990D01*
X662049Y593696D01*
X662616Y593544D01*
X663159Y593319D01*
X663742Y593242D01*
X664310Y593090D01*
X664897D01*
X665480Y593013D01*
X666063Y593090D01*
X666650D01*
X667218Y593242D01*
X667801Y593319D01*
X668344Y593544D01*
X668911Y593696D01*
X669420Y593990D01*
X669963Y594215D01*
X670430Y594572D01*
X670939Y594866D01*
X671354Y595282D01*
X671820Y595640D01*
X742940Y666760D01*
X744365Y668617D01*
X745261Y670779D01*
X745567Y673100D01*
Y1212946D01*
X758180Y1225560D01*
X758538Y1226026D01*
X758954Y1226441D01*
X759248Y1226951D01*
X759605Y1227417D01*
X759830Y1227960D01*
X760124Y1228469D01*
X760276Y1229036D01*
X760501Y1229579D01*
X760578Y1230162D01*
X760730Y1230730D01*
Y1231317D01*
X760807Y1231900D01*
X760730Y1232483D01*
Y1233070D01*
X760578Y1233638D01*
X760501Y1234221D01*
X760276Y1234764D01*
X760124Y1235331D01*
X759830Y1235841D01*
X759605Y1236383D01*
X759248Y1236850D01*
X758954Y1237359D01*
X758538Y1237774D01*
X758180Y1238240D01*
X757714Y1238598D01*
X757299Y1239014D01*
X756789Y1239308D01*
X756323Y1239665D01*
X755780Y1239890D01*
X755271Y1240184D01*
X754704Y1240336D01*
X754161Y1240561D01*
X753578Y1240638D01*
X753010Y1240790D01*
X752423D01*
X751840Y1240867D01*
D02*
G37*
G36*
X807720Y607060D02*
X787400D01*
Y601432D01*
X739140D01*
X737406Y601087D01*
X735935Y600105D01*
X685135Y549305D01*
X684153Y547834D01*
X683808Y546100D01*
Y504797D01*
X647035Y468025D01*
X646053Y466554D01*
X645708Y464820D01*
Y375257D01*
X642141Y371690D01*
X641159Y370220D01*
X640814Y368486D01*
X641159Y366751D01*
X641461Y366299D01*
Y347507D01*
X641023Y347207D01*
X639563Y347747D01*
X639324Y348639D01*
X638134Y350701D01*
X636451Y352384D01*
X634389Y353574D01*
X632090Y354190D01*
X629710D01*
X627411Y353574D01*
X625349Y352384D01*
X623666Y350701D01*
X622476Y348639D01*
X621860Y346340D01*
Y343960D01*
X622476Y341661D01*
X623666Y339599D01*
X625349Y337916D01*
X627411Y336726D01*
X629269Y336228D01*
X629771Y334935D01*
X628153Y333316D01*
X627311Y332056D01*
X627146Y331225D01*
X625807Y331004D01*
X625434Y331651D01*
X623751Y333334D01*
X621689Y334524D01*
X620105Y334948D01*
Y326100D01*
Y317252D01*
X621689Y317676D01*
X623751Y318866D01*
X625434Y320549D01*
X625745Y321089D01*
X627015Y320749D01*
Y315246D01*
X625349Y314284D01*
X623666Y312601D01*
X622476Y310539D01*
X621860Y308240D01*
Y305860D01*
X622476Y303561D01*
X623666Y301499D01*
X625349Y299816D01*
X627411Y298626D01*
X629710Y298010D01*
X632090D01*
X634389Y298626D01*
X636451Y299816D01*
X638134Y301499D01*
X639324Y303561D01*
X639940Y305860D01*
Y308240D01*
X639324Y310539D01*
X638134Y312601D01*
X636451Y314284D01*
X634785Y315246D01*
Y320749D01*
X636055Y321089D01*
X636366Y320549D01*
X638049Y318866D01*
X640111Y317676D01*
X641695Y317252D01*
Y326100D01*
X645505D01*
Y317252D01*
X647089Y317676D01*
X649151Y318866D01*
X650834Y320549D01*
X651145Y321089D01*
X652415Y320749D01*
Y315246D01*
X650749Y314284D01*
X649066Y312601D01*
X647876Y310539D01*
X647260Y308240D01*
Y305860D01*
X647876Y303561D01*
X649066Y301499D01*
X650749Y299816D01*
X652811Y298626D01*
X655110Y298010D01*
X657490D01*
X659789Y298626D01*
X661851Y299816D01*
X663534Y301499D01*
X664724Y303561D01*
X665340Y305860D01*
Y308240D01*
X664724Y310539D01*
X663534Y312601D01*
X661851Y314284D01*
X660185Y315246D01*
Y320749D01*
X661455Y321089D01*
X661766Y320549D01*
X663449Y318866D01*
X665511Y317676D01*
X667810Y317060D01*
X670190D01*
X672489Y317676D01*
X674551Y318866D01*
X676234Y320549D01*
X676545Y321089D01*
X677815Y320749D01*
Y315246D01*
X676149Y314284D01*
X674466Y312601D01*
X673276Y310539D01*
X672660Y308240D01*
Y305860D01*
X673276Y303561D01*
X674466Y301499D01*
X676149Y299816D01*
X678211Y298626D01*
X680510Y298010D01*
X682890D01*
X685189Y298626D01*
X687251Y299816D01*
X688934Y301499D01*
X690124Y303561D01*
X690740Y305860D01*
Y308240D01*
X690124Y310539D01*
X688934Y312601D01*
X687251Y314284D01*
X685585Y315246D01*
Y320749D01*
X686855Y321089D01*
X687166Y320549D01*
X688849Y318866D01*
X690911Y317676D01*
X693210Y317060D01*
X695590D01*
X697889Y317676D01*
X699951Y318866D01*
X701634Y320549D01*
X701945Y321089D01*
X703215Y320749D01*
Y315246D01*
X701549Y314284D01*
X699866Y312601D01*
X698676Y310539D01*
X698060Y308240D01*
Y305860D01*
X698676Y303561D01*
X699866Y301499D01*
X701549Y299816D01*
X703611Y298626D01*
X705910Y298010D01*
X708290D01*
X710589Y298626D01*
X712651Y299816D01*
X714334Y301499D01*
X714645Y302039D01*
X715915Y301699D01*
Y296196D01*
X714249Y295234D01*
X712566Y293551D01*
X711376Y291489D01*
X710760Y289190D01*
Y286810D01*
X711376Y284511D01*
X712566Y282449D01*
X714249Y280766D01*
X716311Y279576D01*
X718610Y278960D01*
X720990D01*
X723289Y279576D01*
X725351Y280766D01*
X727034Y282449D01*
X728224Y284511D01*
X728840Y286810D01*
Y289190D01*
X728224Y291489D01*
X727034Y293551D01*
X725351Y295234D01*
X723685Y296196D01*
Y301699D01*
X724955Y302039D01*
X725266Y301499D01*
X726949Y299816D01*
X729011Y298626D01*
X731310Y298010D01*
X733690D01*
X735989Y298626D01*
X738051Y299816D01*
X739734Y301499D01*
X740489Y302808D01*
X749300D01*
X751034Y303153D01*
X752505Y304135D01*
X770285Y321915D01*
X770285Y321915D01*
X771267Y323386D01*
X771612Y325120D01*
Y402960D01*
X772882Y403266D01*
X774321Y401826D01*
X775248Y401291D01*
Y324457D01*
X747526Y296736D01*
X746390Y297040D01*
X744010D01*
X741711Y296424D01*
X739649Y295234D01*
X737966Y293551D01*
X736776Y291489D01*
X736160Y289190D01*
Y286810D01*
X736776Y284511D01*
X737966Y282449D01*
X739649Y280766D01*
X741711Y279576D01*
X744010Y278960D01*
X746390D01*
X748689Y279576D01*
X750751Y280766D01*
X752434Y282449D01*
X753624Y284511D01*
X754240Y286810D01*
Y289190D01*
X753936Y290326D01*
X782985Y319375D01*
X782985Y319375D01*
X783967Y320846D01*
X784312Y322580D01*
Y401291D01*
X785239Y401826D01*
X786894Y403481D01*
X788064Y405509D01*
X788670Y407770D01*
Y410110D01*
X788064Y412371D01*
X786894Y414399D01*
X785239Y416054D01*
X783211Y417224D01*
X780950Y417830D01*
X778610D01*
X776349Y417224D01*
X774321Y416054D01*
X772882Y414614D01*
X771612Y414920D01*
Y457200D01*
X771267Y458934D01*
X770285Y460405D01*
X770285Y460405D01*
X765533Y465156D01*
X765810Y466190D01*
Y468530D01*
X765204Y470791D01*
X764034Y472819D01*
X762379Y474474D01*
X760351Y475644D01*
X758090Y476250D01*
X755750D01*
X753489Y475644D01*
X751461Y474474D01*
X749806Y472819D01*
X748636Y470791D01*
X748030Y468530D01*
Y466190D01*
X748636Y463929D01*
X749806Y461901D01*
X751461Y460246D01*
X753489Y459076D01*
X755750Y458470D01*
X758090D01*
X759124Y458747D01*
X762548Y455323D01*
Y326997D01*
X747423Y311872D01*
X740154D01*
X739734Y312601D01*
X738051Y314284D01*
X735989Y315474D01*
X733690Y316090D01*
X732320D01*
X731794Y317360D01*
X736137Y321703D01*
X737396Y321537D01*
X737966Y320549D01*
X739649Y318866D01*
X741711Y317676D01*
X743295Y317252D01*
Y326100D01*
X745200D01*
Y328005D01*
X754048D01*
X753624Y329589D01*
X752434Y331651D01*
X750751Y333334D01*
X748689Y334524D01*
X746390Y335140D01*
X744360D01*
X743710Y336286D01*
X752047Y344623D01*
X752889Y345883D01*
X753185Y347369D01*
Y363573D01*
X753487Y364026D01*
X753832Y365760D01*
Y401291D01*
X754759Y401826D01*
X756414Y403481D01*
X757584Y405509D01*
X758190Y407770D01*
Y410110D01*
X757584Y412371D01*
X756414Y414399D01*
X754759Y416054D01*
X752731Y417224D01*
X750470Y417830D01*
X748130D01*
X745869Y417224D01*
X743841Y416054D01*
X742186Y414399D01*
X741016Y412371D01*
X740410Y410110D01*
Y407770D01*
X741016Y405509D01*
X742186Y403481D01*
X743841Y401826D01*
X744768Y401291D01*
Y365760D01*
X745113Y364026D01*
X745415Y363573D01*
Y348979D01*
X742715Y346278D01*
X741422Y346781D01*
X740924Y348639D01*
X739734Y350701D01*
X738051Y352384D01*
X735989Y353574D01*
X734405Y353998D01*
Y345150D01*
X730595D01*
Y353998D01*
X729011Y353574D01*
X726949Y352384D01*
X726515Y351949D01*
X725245Y352475D01*
Y366113D01*
X725547Y366566D01*
X725892Y368300D01*
Y407063D01*
X742345Y423515D01*
X742345Y423515D01*
X743327Y424986D01*
X743672Y426720D01*
Y493423D01*
X766417Y516168D01*
X787400D01*
Y510540D01*
X807720D01*
Y530860D01*
X787400D01*
Y525232D01*
X764540D01*
X764540Y525232D01*
X762806Y524887D01*
X761335Y523905D01*
X761335Y523905D01*
X735935Y498505D01*
X734953Y497034D01*
X734608Y495300D01*
Y428597D01*
X718155Y412145D01*
X717173Y410674D01*
X716828Y408940D01*
Y368300D01*
X717173Y366566D01*
X717475Y366113D01*
Y347579D01*
X717178Y347375D01*
X715718Y347915D01*
X715524Y348639D01*
X714334Y350701D01*
X712651Y352384D01*
X710589Y353574D01*
X709005Y353998D01*
Y345150D01*
X705195D01*
Y353998D01*
X703611Y353574D01*
X701549Y352384D01*
X699866Y350701D01*
X698676Y348639D01*
X698575Y348261D01*
X697305Y348428D01*
Y366113D01*
X697607Y366566D01*
X697952Y368300D01*
Y407063D01*
X722025Y431135D01*
X722025Y431135D01*
X723007Y432606D01*
X723352Y434340D01*
X723352Y434340D01*
Y526443D01*
X738477Y541568D01*
X787400D01*
Y535940D01*
X807720D01*
Y556260D01*
X787400D01*
Y550632D01*
X736600D01*
X734866Y550287D01*
X733395Y549305D01*
X733395Y549305D01*
X715615Y531525D01*
X714633Y530054D01*
X714288Y528320D01*
Y436217D01*
X690215Y412145D01*
X689233Y410674D01*
X688888Y408940D01*
Y368300D01*
X689233Y366566D01*
X689535Y366113D01*
Y351895D01*
X688265Y351369D01*
X687251Y352384D01*
X685189Y353574D01*
X682890Y354190D01*
X680510D01*
X678211Y353574D01*
X676149Y352384D01*
X674466Y350701D01*
X673276Y348639D01*
X673175Y348261D01*
X671905Y348428D01*
Y366113D01*
X672207Y366566D01*
X672552Y368300D01*
X672207Y370034D01*
X671225Y371505D01*
X664932Y377797D01*
Y457863D01*
X699165Y492095D01*
X700147Y493566D01*
X700492Y495300D01*
X700492Y495300D01*
Y536603D01*
X730857Y566968D01*
X787400D01*
Y561340D01*
X807720D01*
Y581660D01*
X787400D01*
Y576032D01*
X728980D01*
X728980Y576032D01*
X727246Y575687D01*
X725775Y574705D01*
X725775Y574705D01*
X694707Y543637D01*
X693361Y544086D01*
X693283Y544634D01*
X741017Y592368D01*
X787400D01*
Y586740D01*
X807720D01*
Y607060D01*
D02*
G37*
G36*
X842010D02*
X821690D01*
Y586740D01*
X842010D01*
Y591073D01*
X957489D01*
X957881Y589608D01*
X959236Y587262D01*
X961152Y585346D01*
X963498Y583991D01*
X966115Y583290D01*
X968825D01*
X971442Y583991D01*
X973788Y585346D01*
X975704Y587262D01*
X977059Y589608D01*
X977760Y592225D01*
Y594935D01*
X977059Y597552D01*
X975704Y599898D01*
X973788Y601814D01*
X971442Y603169D01*
X968825Y603870D01*
X966115D01*
X963498Y603169D01*
X962462Y602570D01*
X961674Y602727D01*
X842010D01*
Y607060D01*
D02*
G37*
G36*
X613225Y603870D02*
X610515D01*
X607898Y603169D01*
X605552Y601814D01*
X603636Y599898D01*
X603352Y599407D01*
X580880D01*
X578650Y598963D01*
X576760Y597700D01*
X560719Y581660D01*
X548640D01*
Y561340D01*
X568960D01*
Y573419D01*
X583294Y587753D01*
X603352D01*
X603636Y587262D01*
X605552Y585346D01*
X607898Y583991D01*
X610515Y583290D01*
X613225D01*
X615842Y583991D01*
X618188Y585346D01*
X620104Y587262D01*
X621459Y589608D01*
X622160Y592225D01*
Y594935D01*
X621459Y597552D01*
X620104Y599898D01*
X618188Y601814D01*
X615842Y603169D01*
X613225Y603870D01*
D02*
G37*
G36*
X364450Y575277D02*
X363855D01*
Y567055D01*
X374326D01*
X374232Y567771D01*
X373220Y570213D01*
X371611Y572311D01*
X369513Y573920D01*
X367071Y574932D01*
X364450Y575277D01*
D02*
G37*
G36*
X360045D02*
X359450D01*
X356829Y574932D01*
X354387Y573920D01*
X352289Y572311D01*
X350680Y570213D01*
X349668Y567771D01*
X349574Y567055D01*
X360045D01*
Y575277D01*
D02*
G37*
G36*
X842010Y581660D02*
X821690D01*
Y561340D01*
X842010D01*
Y565673D01*
X957489D01*
X957881Y564208D01*
X959236Y561862D01*
X961152Y559946D01*
X963498Y558591D01*
X966115Y557890D01*
X968825D01*
X971442Y558591D01*
X973788Y559946D01*
X975704Y561862D01*
X977059Y564208D01*
X977760Y566825D01*
Y569535D01*
X977059Y572152D01*
X975704Y574498D01*
X973788Y576414D01*
X971442Y577769D01*
X968825Y578470D01*
X966115D01*
X963498Y577769D01*
X962462Y577170D01*
X961674Y577327D01*
X842010D01*
Y581660D01*
D02*
G37*
G36*
X613225Y578470D02*
X610515D01*
X607898Y577769D01*
X605552Y576414D01*
X603636Y574498D01*
X602281Y572152D01*
X601580Y569535D01*
Y566825D01*
X602281Y564208D01*
X603636Y561862D01*
X605552Y559946D01*
X607898Y558591D01*
X610515Y557890D01*
X613225D01*
X615842Y558591D01*
X618188Y559946D01*
X620104Y561862D01*
X620246Y562108D01*
X643890D01*
Y557530D01*
X664210D01*
Y577850D01*
X643890D01*
Y573762D01*
X620529D01*
X620104Y574498D01*
X618188Y576414D01*
X615842Y577769D01*
X613225Y578470D01*
D02*
G37*
G36*
X374326Y563245D02*
X363855D01*
Y555023D01*
X364450D01*
X367071Y555368D01*
X369513Y556380D01*
X371611Y557989D01*
X373220Y560087D01*
X374232Y562529D01*
X374326Y563245D01*
D02*
G37*
G36*
X360045D02*
X349574D01*
X349668Y562529D01*
X350680Y560087D01*
X352289Y557989D01*
X354387Y556380D01*
X356829Y555368D01*
X359450Y555023D01*
X360045D01*
Y563245D01*
D02*
G37*
G36*
X872390Y750570D02*
X870050D01*
X867789Y749964D01*
X865761Y748794D01*
X864106Y747139D01*
X862936Y745111D01*
X862330Y742850D01*
Y740510D01*
X862936Y738249D01*
X864106Y736221D01*
X865393Y734935D01*
Y655194D01*
X840866Y630667D01*
X718820D01*
X716590Y630223D01*
X714700Y628960D01*
X679140Y593400D01*
X677877Y591510D01*
X677578Y590007D01*
X672435Y584865D01*
X671453Y583394D01*
X671108Y581660D01*
Y560677D01*
X666143Y555712D01*
X620270D01*
X618536Y555367D01*
X617065Y554385D01*
X615217Y552536D01*
X613225Y553070D01*
X610515D01*
X607898Y552369D01*
X605552Y551014D01*
X603636Y549098D01*
X602281Y546752D01*
X601580Y544135D01*
Y541425D01*
X602281Y538808D01*
X603636Y536462D01*
X605552Y534546D01*
X607898Y533191D01*
X610515Y532490D01*
X613225D01*
X615842Y533191D01*
X618188Y534546D01*
X620104Y536462D01*
X621459Y538808D01*
X622160Y541425D01*
Y544135D01*
X621787Y545527D01*
X622705Y546648D01*
X668020D01*
X669754Y546993D01*
X671225Y547975D01*
X678845Y555595D01*
X679827Y557066D01*
X680172Y558800D01*
Y579783D01*
X683987Y583598D01*
X685490Y583897D01*
X687380Y585160D01*
X721234Y619013D01*
X843280D01*
X845510Y619457D01*
X847400Y620720D01*
X875340Y648660D01*
X876603Y650550D01*
X877047Y652780D01*
Y734935D01*
X878334Y736221D01*
X879504Y738249D01*
X880110Y740510D01*
Y742850D01*
X879504Y745111D01*
X878334Y747139D01*
X876679Y748794D01*
X874651Y749964D01*
X872390Y750570D01*
D02*
G37*
G36*
X842010Y556260D02*
X821690D01*
Y535940D01*
X842010D01*
Y540273D01*
X957489D01*
X957881Y538808D01*
X959236Y536462D01*
X961152Y534546D01*
X963498Y533191D01*
X966115Y532490D01*
X968825D01*
X971442Y533191D01*
X973788Y534546D01*
X975704Y536462D01*
X977059Y538808D01*
X977760Y541425D01*
Y544135D01*
X977059Y546752D01*
X975704Y549098D01*
X973788Y551014D01*
X971442Y552369D01*
X968825Y553070D01*
X966115D01*
X963498Y552369D01*
X962462Y551770D01*
X961674Y551927D01*
X842010D01*
Y556260D01*
D02*
G37*
G36*
Y530860D02*
X821690D01*
Y510540D01*
X842010D01*
Y514873D01*
X957489D01*
X957881Y513408D01*
X959236Y511062D01*
X961152Y509146D01*
X963498Y507791D01*
X966115Y507090D01*
X968825D01*
X971442Y507791D01*
X973788Y509146D01*
X975704Y511062D01*
X977059Y513408D01*
X977760Y516025D01*
Y518735D01*
X977059Y521352D01*
X975704Y523698D01*
X973788Y525614D01*
X971442Y526969D01*
X968825Y527670D01*
X966115D01*
X963498Y526969D01*
X962462Y526370D01*
X961674Y526527D01*
X842010D01*
Y530860D01*
D02*
G37*
G36*
X613225Y527670D02*
X610515D01*
X607898Y526969D01*
X605552Y525614D01*
X603636Y523698D01*
X602281Y521352D01*
X601580Y518735D01*
Y516025D01*
X602281Y513408D01*
X603636Y511062D01*
X605552Y509146D01*
X607898Y507791D01*
X610515Y507090D01*
X613225D01*
X615842Y507791D01*
X618188Y509146D01*
X620104Y511062D01*
X621459Y513408D01*
X622160Y516025D01*
Y518735D01*
X621459Y521352D01*
X620104Y523698D01*
X618188Y525614D01*
X615842Y526969D01*
X613225Y527670D01*
D02*
G37*
G36*
X664210Y543560D02*
X643890D01*
Y523240D01*
X648858D01*
Y519190D01*
X648206Y518539D01*
X647036Y516511D01*
X646430Y514250D01*
Y511910D01*
X647036Y509649D01*
X648206Y507621D01*
X649861Y505966D01*
X651889Y504796D01*
X654150Y504190D01*
X656490D01*
X658751Y504796D01*
X660779Y505966D01*
X662434Y507621D01*
X663604Y509649D01*
X664210Y511910D01*
Y514250D01*
X663604Y516511D01*
X662434Y518539D01*
X660779Y520194D01*
X660512Y520348D01*
Y523240D01*
X664210D01*
Y543560D01*
D02*
G37*
G36*
X968825Y502270D02*
X966115D01*
X963498Y501569D01*
X962462Y500970D01*
X961674Y501127D01*
X838200D01*
X835970Y500683D01*
X834080Y499420D01*
X833769Y499110D01*
X821690D01*
Y478790D01*
X842010D01*
Y489473D01*
X957489D01*
X957881Y488008D01*
X959236Y485662D01*
X961152Y483746D01*
X963498Y482391D01*
X966115Y481690D01*
X968825D01*
X971442Y482391D01*
X973788Y483746D01*
X975704Y485662D01*
X977059Y488008D01*
X977760Y490625D01*
Y493335D01*
X977059Y495952D01*
X975704Y498298D01*
X973788Y500214D01*
X971442Y501569D01*
X968825Y502270D01*
D02*
G37*
G36*
X613225D02*
X610515D01*
X607898Y501569D01*
X605552Y500214D01*
X603636Y498298D01*
X602281Y495952D01*
X601580Y493335D01*
Y490625D01*
X602281Y488008D01*
X603636Y485662D01*
X605552Y483746D01*
X607898Y482391D01*
X610515Y481690D01*
X613225D01*
X615842Y482391D01*
X618188Y483746D01*
X620104Y485662D01*
X621459Y488008D01*
X622160Y490625D01*
Y493335D01*
X621459Y495952D01*
X620104Y498298D01*
X618188Y500214D01*
X615842Y501569D01*
X613225Y502270D01*
D02*
G37*
G36*
X345125Y485333D02*
Y479425D01*
X351033D01*
X350712Y480623D01*
X349654Y482457D01*
X348157Y483954D01*
X346323Y485012D01*
X345125Y485333D01*
D02*
G37*
G36*
X341315D02*
X340117Y485012D01*
X338283Y483954D01*
X336786Y482457D01*
X335728Y480623D01*
X335407Y479425D01*
X341315D01*
Y485333D01*
D02*
G37*
G36*
X351033Y475615D02*
X345125D01*
Y469707D01*
X346323Y470028D01*
X348157Y471086D01*
X349654Y472583D01*
X350712Y474417D01*
X351033Y475615D01*
D02*
G37*
G36*
X341315D02*
X335407D01*
X335728Y474417D01*
X336786Y472583D01*
X338283Y471086D01*
X340117Y470028D01*
X341315Y469707D01*
Y475615D01*
D02*
G37*
G36*
X371260Y485560D02*
X355180D01*
Y469480D01*
X371260D01*
Y485560D01*
D02*
G37*
G36*
X920750Y482077D02*
X863600D01*
X861370Y481633D01*
X859480Y480370D01*
X848486Y469377D01*
X842010D01*
Y473710D01*
X821690D01*
Y453390D01*
X842010D01*
Y457723D01*
X850900D01*
X853130Y458167D01*
X855020Y459430D01*
X866014Y470423D01*
X918336D01*
X926300Y462460D01*
X928190Y461197D01*
X930420Y460753D01*
X958952D01*
X959236Y460262D01*
X961152Y458346D01*
X963498Y456991D01*
X966115Y456290D01*
X968825D01*
X971442Y456991D01*
X973788Y458346D01*
X975704Y460262D01*
X977059Y462608D01*
X977760Y465225D01*
Y467935D01*
X977059Y470552D01*
X975704Y472898D01*
X973788Y474814D01*
X971442Y476169D01*
X968825Y476870D01*
X966115D01*
X963498Y476169D01*
X961152Y474814D01*
X959236Y472898D01*
X958952Y472407D01*
X932834D01*
X924870Y480370D01*
X922980Y481633D01*
X920750Y482077D01*
D02*
G37*
G36*
X613225Y476870D02*
X610515D01*
X607898Y476169D01*
X605552Y474814D01*
X603636Y472898D01*
X602281Y470552D01*
X601580Y467935D01*
Y465225D01*
X602281Y462608D01*
X603636Y460262D01*
X605552Y458346D01*
X607898Y456991D01*
X610515Y456290D01*
X613225D01*
X615842Y456991D01*
X618188Y458346D01*
X620104Y460262D01*
X621459Y462608D01*
X622160Y465225D01*
Y467935D01*
X621459Y470552D01*
X620104Y472898D01*
X618188Y474814D01*
X615842Y476169D01*
X613225Y476870D01*
D02*
G37*
G36*
X968825Y451470D02*
X966115D01*
X963498Y450769D01*
X961152Y449414D01*
X959236Y447498D01*
X957881Y445152D01*
X957180Y442535D01*
Y439825D01*
X957881Y437208D01*
X959236Y434862D01*
X961152Y432946D01*
X963498Y431591D01*
X966115Y430890D01*
X968825D01*
X971442Y431591D01*
X973788Y432946D01*
X975704Y434862D01*
X977059Y437208D01*
X977760Y439825D01*
Y442535D01*
X977059Y445152D01*
X975704Y447498D01*
X973788Y449414D01*
X971442Y450769D01*
X968825Y451470D01*
D02*
G37*
G36*
X613225D02*
X610515D01*
X607898Y450769D01*
X605552Y449414D01*
X603636Y447498D01*
X602281Y445152D01*
X601580Y442535D01*
Y439825D01*
X602281Y437208D01*
X603636Y434862D01*
X605552Y432946D01*
X607898Y431591D01*
X610515Y430890D01*
X613225D01*
X615842Y431591D01*
X618188Y432946D01*
X620104Y434862D01*
X621459Y437208D01*
X622160Y439825D01*
Y442535D01*
X621459Y445152D01*
X620104Y447498D01*
X618188Y449414D01*
X615842Y450769D01*
X613225Y451470D01*
D02*
G37*
G36*
X892220Y467530D02*
X887780D01*
X883425Y466664D01*
X879323Y464965D01*
X875632Y462498D01*
X872492Y459358D01*
X870025Y455667D01*
X868326Y451565D01*
X867460Y447210D01*
Y442770D01*
X868326Y438415D01*
X870025Y434313D01*
X872492Y430622D01*
X875632Y427482D01*
X879323Y425015D01*
X883425Y423316D01*
X887780Y422450D01*
X892220D01*
X896575Y423316D01*
X900677Y425015D01*
X904368Y427482D01*
X907508Y430622D01*
X909975Y434313D01*
X911674Y438415D01*
X912540Y442770D01*
Y447210D01*
X911674Y451565D01*
X909975Y455667D01*
X907508Y459358D01*
X904368Y462498D01*
X900677Y464965D01*
X896575Y466664D01*
X892220Y467530D01*
D02*
G37*
G36*
X691560D02*
X687120D01*
X682765Y466664D01*
X678663Y464965D01*
X674972Y462498D01*
X671832Y459358D01*
X669365Y455667D01*
X667666Y451565D01*
X666800Y447210D01*
Y442770D01*
X667666Y438415D01*
X669365Y434313D01*
X671832Y430622D01*
X674972Y427482D01*
X678663Y425015D01*
X682765Y423316D01*
X687120Y422450D01*
X691560D01*
X695915Y423316D01*
X700017Y425015D01*
X703708Y427482D01*
X706848Y430622D01*
X709315Y434313D01*
X711014Y438415D01*
X711880Y442770D01*
Y447210D01*
X711014Y451565D01*
X709315Y455667D01*
X706848Y459358D01*
X703708Y462498D01*
X700017Y464965D01*
X695915Y466664D01*
X691560Y467530D01*
D02*
G37*
G36*
X968825Y426070D02*
X966115D01*
X963498Y425369D01*
X961152Y424014D01*
X959236Y422098D01*
X957881Y419752D01*
X957180Y417135D01*
Y414425D01*
X957881Y411808D01*
X959236Y409462D01*
X961152Y407546D01*
X963498Y406191D01*
X966115Y405490D01*
X968825D01*
X971442Y406191D01*
X973788Y407546D01*
X975704Y409462D01*
X977059Y411808D01*
X977760Y414425D01*
Y417135D01*
X977059Y419752D01*
X975704Y422098D01*
X973788Y424014D01*
X971442Y425369D01*
X968825Y426070D01*
D02*
G37*
G36*
X613225D02*
X610515D01*
X607898Y425369D01*
X605552Y424014D01*
X603636Y422098D01*
X602281Y419752D01*
X601580Y417135D01*
Y414425D01*
X602281Y411808D01*
X603636Y409462D01*
X605552Y407546D01*
X607898Y406191D01*
X610515Y405490D01*
X613225D01*
X615842Y406191D01*
X618188Y407546D01*
X620104Y409462D01*
X621459Y411808D01*
X622160Y414425D01*
Y417135D01*
X621459Y419752D01*
X620104Y422098D01*
X618188Y424014D01*
X615842Y425369D01*
X613225Y426070D01*
D02*
G37*
G36*
X568960Y547370D02*
X548640D01*
Y527050D01*
X552973D01*
Y408940D01*
X553417Y406710D01*
X554680Y404820D01*
X587700Y371800D01*
X587935Y371642D01*
Y351895D01*
X586665Y351369D01*
X585651Y352384D01*
X583589Y353574D01*
X581290Y354190D01*
X578910D01*
X576611Y353574D01*
X574549Y352384D01*
X572866Y350701D01*
X571676Y348639D01*
X571575Y348261D01*
X570305Y348428D01*
Y371642D01*
X570540Y371800D01*
X571803Y373690D01*
X572247Y375920D01*
X571803Y378150D01*
X570540Y380040D01*
X539227Y411354D01*
Y527050D01*
X543560D01*
Y547370D01*
X523240D01*
Y527050D01*
X527573D01*
Y408940D01*
X528017Y406710D01*
X529280Y404820D01*
X562300Y371800D01*
X562535Y371642D01*
Y351895D01*
X561265Y351369D01*
X560251Y352384D01*
X558189Y353574D01*
X555890Y354190D01*
X553510D01*
X551211Y353574D01*
X549545Y352612D01*
X548275Y353171D01*
Y370010D01*
X547979Y371497D01*
X547137Y372757D01*
X544252Y375642D01*
X544307Y375920D01*
X543863Y378150D01*
X542600Y380040D01*
X513827Y408814D01*
Y527050D01*
X518160D01*
Y547370D01*
X497840D01*
Y527050D01*
X502173D01*
Y406400D01*
X502617Y404170D01*
X503880Y402280D01*
X534360Y371800D01*
X536250Y370537D01*
X538480Y370093D01*
X538758Y370148D01*
X540505Y368401D01*
Y340880D01*
X540801Y339393D01*
X541643Y338133D01*
X543490Y336286D01*
X542840Y335140D01*
X540810D01*
X538511Y334524D01*
X536449Y333334D01*
X534766Y331651D01*
X534393Y331004D01*
X533054Y331225D01*
X532889Y332056D01*
X532047Y333316D01*
X530429Y334935D01*
X530931Y336228D01*
X532789Y336726D01*
X534851Y337916D01*
X536534Y339599D01*
X537724Y341661D01*
X538148Y343245D01*
X529300D01*
Y345150D01*
X527395D01*
Y353998D01*
X525811Y353574D01*
X523749Y352384D01*
X522066Y350701D01*
X520876Y348639D01*
X520775Y348261D01*
X519505Y348428D01*
Y371642D01*
X519740Y371800D01*
X521003Y373690D01*
X521447Y375920D01*
X521003Y378150D01*
X519740Y380040D01*
X488427Y411354D01*
Y527050D01*
X492760D01*
Y547370D01*
X472440D01*
Y527050D01*
X476773D01*
Y408940D01*
X477217Y406710D01*
X478480Y404820D01*
X511500Y371800D01*
X511735Y371642D01*
Y354190D01*
X505805D01*
Y345150D01*
Y336110D01*
X512940D01*
Y339776D01*
X514113Y340262D01*
X518090Y336286D01*
X517440Y335140D01*
X515410D01*
X513111Y334524D01*
X511049Y333334D01*
X509366Y331651D01*
X508176Y329589D01*
X507752Y328005D01*
X516600D01*
Y326100D01*
X518505D01*
Y317252D01*
X520089Y317676D01*
X522151Y318866D01*
X523834Y320549D01*
X524145Y321089D01*
X525415Y320749D01*
Y315246D01*
X523749Y314284D01*
X522066Y312601D01*
X520876Y310539D01*
X520260Y308240D01*
Y305860D01*
X520876Y303561D01*
X522066Y301499D01*
X523749Y299816D01*
X525811Y298626D01*
X528110Y298010D01*
X530490D01*
X532789Y298626D01*
X534851Y299816D01*
X536534Y301499D01*
X537724Y303561D01*
X538340Y305860D01*
Y308240D01*
X537724Y310539D01*
X536534Y312601D01*
X534851Y314284D01*
X533185Y315246D01*
Y320749D01*
X534455Y321089D01*
X534766Y320549D01*
X536449Y318866D01*
X538511Y317676D01*
X540095Y317252D01*
Y326100D01*
X543905D01*
Y317252D01*
X545489Y317676D01*
X547551Y318866D01*
X549234Y320549D01*
X549545Y321089D01*
X550815Y320749D01*
Y315246D01*
X549149Y314284D01*
X547466Y312601D01*
X546276Y310539D01*
X545660Y308240D01*
Y305860D01*
X546276Y303561D01*
X547466Y301499D01*
X549149Y299816D01*
X551211Y298626D01*
X553510Y298010D01*
X555890D01*
X558189Y298626D01*
X560251Y299816D01*
X561934Y301499D01*
X563124Y303561D01*
X563740Y305860D01*
Y308240D01*
X563124Y310539D01*
X561934Y312601D01*
X560251Y314284D01*
X558585Y315246D01*
Y320749D01*
X559855Y321089D01*
X560166Y320549D01*
X561849Y318866D01*
X563911Y317676D01*
X566210Y317060D01*
X568590D01*
X570889Y317676D01*
X572951Y318866D01*
X574634Y320549D01*
X574945Y321089D01*
X576215Y320749D01*
Y315246D01*
X574549Y314284D01*
X572866Y312601D01*
X571676Y310539D01*
X571060Y308240D01*
Y305860D01*
X571676Y303561D01*
X572866Y301499D01*
X574549Y299816D01*
X576611Y298626D01*
X578910Y298010D01*
X581290D01*
X583589Y298626D01*
X585651Y299816D01*
X587334Y301499D01*
X588524Y303561D01*
X589140Y305860D01*
Y308240D01*
X588524Y310539D01*
X587334Y312601D01*
X585651Y314284D01*
X583985Y315246D01*
Y320749D01*
X585255Y321089D01*
X585566Y320549D01*
X587249Y318866D01*
X589311Y317676D01*
X591610Y317060D01*
X593990D01*
X596289Y317676D01*
X598351Y318866D01*
X600034Y320549D01*
X600345Y321089D01*
X601615Y320749D01*
Y315246D01*
X599949Y314284D01*
X598266Y312601D01*
X597076Y310539D01*
X596460Y308240D01*
Y305860D01*
X597076Y303561D01*
X598266Y301499D01*
X599949Y299816D01*
X602011Y298626D01*
X604310Y298010D01*
X606690D01*
X608989Y298626D01*
X611051Y299816D01*
X612734Y301499D01*
X613924Y303561D01*
X614540Y305860D01*
Y308240D01*
X613924Y310539D01*
X612734Y312601D01*
X611051Y314284D01*
X609385Y315246D01*
Y320749D01*
X610655Y321089D01*
X610966Y320549D01*
X612649Y318866D01*
X614711Y317676D01*
X616295Y317252D01*
Y326100D01*
Y334949D01*
X614711Y334524D01*
X612649Y333334D01*
X610966Y331651D01*
X610593Y331004D01*
X609254Y331225D01*
X609089Y332056D01*
X608247Y333316D01*
X606628Y334935D01*
X607131Y336228D01*
X608989Y336726D01*
X611051Y337916D01*
X612734Y339599D01*
X613924Y341661D01*
X614540Y343960D01*
Y346340D01*
X613924Y348639D01*
X612734Y350701D01*
X611051Y352384D01*
X608989Y353574D01*
X606690Y354190D01*
X604310D01*
X602011Y353574D01*
X599949Y352384D01*
X598266Y350701D01*
X597076Y348639D01*
X596975Y348261D01*
X595705Y348428D01*
Y371642D01*
X595940Y371800D01*
X597203Y373690D01*
X597647Y375920D01*
X597203Y378150D01*
X595940Y380040D01*
X564627Y411354D01*
Y527050D01*
X568960D01*
Y547370D01*
D02*
G37*
G36*
X531205Y353998D02*
Y347055D01*
X538148D01*
X537724Y348639D01*
X536534Y350701D01*
X534851Y352384D01*
X532789Y353574D01*
X531205Y353998D01*
D02*
G37*
G36*
X754048Y324195D02*
X747105D01*
Y317252D01*
X748689Y317676D01*
X750751Y318866D01*
X752434Y320549D01*
X753624Y322611D01*
X754048Y324195D01*
D02*
G37*
G36*
X514695D02*
X507752D01*
X508176Y322611D01*
X509366Y320549D01*
X511049Y318866D01*
X513111Y317676D01*
X514695Y317252D01*
Y324195D01*
D02*
G37*
G36*
X505805Y315898D02*
Y308955D01*
X512748D01*
X512324Y310539D01*
X511134Y312601D01*
X509451Y314284D01*
X507389Y315474D01*
X505805Y315898D01*
D02*
G37*
G36*
X512748Y305145D02*
X505805D01*
Y298202D01*
X507389Y298626D01*
X509451Y299816D01*
X511134Y301499D01*
X512324Y303561D01*
X512748Y305145D01*
D02*
G37*
G36*
X467360Y547370D02*
X447040D01*
Y527050D01*
X451373D01*
Y403860D01*
X451817Y401630D01*
X453080Y399740D01*
X481020Y371800D01*
X482910Y370537D01*
X485140Y370093D01*
X485418Y370148D01*
X486335Y369231D01*
Y287020D01*
X486631Y285533D01*
X487473Y284273D01*
X500173Y271573D01*
X501433Y270731D01*
X502920Y270435D01*
X556260D01*
X557747Y270731D01*
X559007Y271573D01*
X566394Y278960D01*
X568590D01*
X570889Y279576D01*
X572951Y280766D01*
X574634Y282449D01*
X575824Y284511D01*
X576440Y286810D01*
Y289190D01*
X575824Y291489D01*
X574634Y293551D01*
X572951Y295234D01*
X570889Y296424D01*
X568590Y297040D01*
X566210D01*
X563911Y296424D01*
X561849Y295234D01*
X560166Y293551D01*
X558976Y291489D01*
X558360Y289190D01*
Y286810D01*
X558976Y284511D01*
X559701Y283255D01*
X554651Y278205D01*
X545278D01*
X545111Y279475D01*
X545489Y279576D01*
X547551Y280766D01*
X549234Y282449D01*
X550424Y284511D01*
X551040Y286810D01*
Y289190D01*
X550424Y291489D01*
X549234Y293551D01*
X547551Y295234D01*
X545489Y296424D01*
X543190Y297040D01*
X540810D01*
X538511Y296424D01*
X536449Y295234D01*
X534766Y293551D01*
X533576Y291489D01*
X532960Y289190D01*
Y286810D01*
X533576Y284511D01*
X534766Y282449D01*
X536449Y280766D01*
X538511Y279576D01*
X538889Y279475D01*
X538722Y278205D01*
X519878D01*
X519711Y279475D01*
X520089Y279576D01*
X522151Y280766D01*
X523834Y282449D01*
X525024Y284511D01*
X525448Y286095D01*
X516600D01*
X507752D01*
X508176Y284511D01*
X509366Y282449D01*
X511049Y280766D01*
X513111Y279576D01*
X513489Y279475D01*
X513322Y278205D01*
X504529D01*
X494105Y288629D01*
Y303772D01*
X495375Y303939D01*
X495476Y303561D01*
X496666Y301499D01*
X498349Y299816D01*
X500411Y298626D01*
X501995Y298202D01*
Y307050D01*
Y315898D01*
X500411Y315474D01*
X498349Y314284D01*
X496666Y312601D01*
X495476Y310539D01*
X495375Y310161D01*
X494105Y310328D01*
Y335153D01*
X494860Y336110D01*
X495375Y336110D01*
X501995D01*
Y345150D01*
Y354190D01*
X495375D01*
X494860Y354190D01*
X494105Y355147D01*
Y370840D01*
X493809Y372327D01*
X492967Y373587D01*
X490912Y375642D01*
X490967Y375920D01*
X490523Y378150D01*
X489260Y380040D01*
X463027Y406274D01*
Y527050D01*
X467360D01*
Y547370D01*
D02*
G37*
G36*
X518505Y296848D02*
Y289905D01*
X525448D01*
X525024Y291489D01*
X523834Y293551D01*
X522151Y295234D01*
X520089Y296424D01*
X518505Y296848D01*
D02*
G37*
G36*
X514695Y296849D02*
X513111Y296424D01*
X511049Y295234D01*
X509366Y293551D01*
X508176Y291489D01*
X507752Y289905D01*
X514695D01*
Y296849D01*
D02*
G37*
G36*
X644790Y297040D02*
X642410D01*
X640111Y296424D01*
X638049Y295234D01*
X636366Y293551D01*
X635176Y291489D01*
X634560Y289190D01*
Y286810D01*
X635176Y284511D01*
X636366Y282449D01*
X638049Y280766D01*
X640111Y279576D01*
X642410Y278960D01*
X644790D01*
X647089Y279576D01*
X649151Y280766D01*
X650834Y282449D01*
X652024Y284511D01*
X652640Y286810D01*
Y289190D01*
X652024Y291489D01*
X650834Y293551D01*
X649151Y295234D01*
X647089Y296424D01*
X644790Y297040D01*
D02*
G37*
G36*
X619390D02*
X617010D01*
X614711Y296424D01*
X612649Y295234D01*
X610966Y293551D01*
X609776Y291489D01*
X609160Y289190D01*
Y286810D01*
X609776Y284511D01*
X610966Y282449D01*
X612649Y280766D01*
X614711Y279576D01*
X617010Y278960D01*
X619390D01*
X621689Y279576D01*
X623751Y280766D01*
X625434Y282449D01*
X626624Y284511D01*
X627240Y286810D01*
Y289190D01*
X626624Y291489D01*
X625434Y293551D01*
X623751Y295234D01*
X621689Y296424D01*
X619390Y297040D01*
D02*
G37*
G36*
X441960Y547370D02*
X421640D01*
Y527050D01*
X425973D01*
Y393700D01*
X426417Y391470D01*
X427680Y389580D01*
X468320Y348940D01*
X470210Y347677D01*
X472440Y347233D01*
X472718Y347288D01*
X476175Y343831D01*
Y279400D01*
X476471Y277913D01*
X477313Y276653D01*
X492553Y261413D01*
X493813Y260571D01*
X495300Y260275D01*
X568960D01*
X570447Y260571D01*
X571707Y261413D01*
X589752Y279458D01*
X591610Y278960D01*
X593990D01*
X596289Y279576D01*
X598351Y280766D01*
X600034Y282449D01*
X601224Y284511D01*
X601840Y286810D01*
Y289190D01*
X601224Y291489D01*
X600034Y293551D01*
X598351Y295234D01*
X596289Y296424D01*
X593990Y297040D01*
X591610D01*
X589311Y296424D01*
X587249Y295234D01*
X585566Y293551D01*
X584376Y291489D01*
X583760Y289190D01*
Y286810D01*
X584258Y284952D01*
X567351Y268045D01*
X496909D01*
X483945Y281009D01*
Y345440D01*
X483649Y346927D01*
X482807Y348187D01*
X478212Y352782D01*
X478267Y353060D01*
X477823Y355290D01*
X476560Y357180D01*
X437627Y396114D01*
Y527050D01*
X441960D01*
Y547370D01*
D02*
G37*
G36*
X797875Y307040D02*
X794125D01*
X790446Y306308D01*
X786981Y304873D01*
X783863Y302789D01*
X781211Y300137D01*
X779127Y297019D01*
X777692Y293554D01*
X776960Y289875D01*
Y286125D01*
X777692Y282446D01*
X779127Y278981D01*
X781211Y275863D01*
X783863Y273211D01*
X786981Y271127D01*
X790446Y269692D01*
X794125Y268960D01*
X797875D01*
X801554Y269692D01*
X805019Y271127D01*
X808137Y273211D01*
X810789Y275863D01*
X812873Y278981D01*
X814308Y282446D01*
X815040Y286125D01*
Y289875D01*
X814308Y293554D01*
X812873Y297019D01*
X810789Y300137D01*
X808137Y302789D01*
X805019Y304873D01*
X801554Y306308D01*
X797875Y307040D01*
D02*
G37*
G36*
X454975D02*
X451225D01*
X447546Y306308D01*
X444081Y304873D01*
X440963Y302789D01*
X438311Y300137D01*
X436227Y297019D01*
X434792Y293554D01*
X434060Y289875D01*
Y286125D01*
X434792Y282446D01*
X436227Y278981D01*
X438311Y275863D01*
X440963Y273211D01*
X444081Y271127D01*
X447546Y269692D01*
X451225Y268960D01*
X454975D01*
X458654Y269692D01*
X462119Y271127D01*
X465237Y273211D01*
X467889Y275863D01*
X469973Y278981D01*
X471408Y282446D01*
X472140Y286125D01*
Y289875D01*
X471408Y293554D01*
X469973Y297019D01*
X467889Y300137D01*
X465237Y302789D01*
X462119Y304873D01*
X458654Y306308D01*
X454975Y307040D01*
D02*
G37*
%LPD*%
D11*
X668020Y551180D02*
X675640Y558800D01*
Y581660D01*
X620270Y551180D02*
X668020D01*
X611870Y542780D02*
X620270Y551180D01*
X675640Y581660D02*
X683260Y589280D01*
X688340Y546100D02*
X739140Y596900D01*
X688340Y502920D02*
Y546100D01*
X650240Y464820D02*
X688340Y502920D01*
X650240Y373380D02*
Y464820D01*
X739140Y596900D02*
X797560D01*
X756920Y467360D02*
X767080Y457200D01*
X779780Y322580D02*
Y408940D01*
X745200Y288000D02*
X779780Y322580D01*
X797560Y325120D02*
Y463550D01*
X767080Y294640D02*
X797560Y325120D01*
X767080D02*
Y457200D01*
X749300Y307340D02*
X767080Y325120D01*
X732500Y307050D02*
X732790Y307340D01*
X749300D01*
Y365760D02*
Y408940D01*
X739140Y426720D02*
Y495300D01*
X815340Y325120D02*
Y482600D01*
Y325120D02*
X828040Y312420D01*
Y274320D02*
Y312420D01*
X815340Y261620D02*
X828040Y274320D01*
X695380Y261620D02*
X815340D01*
X721360Y408940D02*
X739140Y426720D01*
X764540Y520700D02*
X797560D01*
X739140Y495300D02*
X764540Y520700D01*
X721360Y368300D02*
Y408940D01*
X660400Y459740D02*
X695960Y495300D01*
X660400Y375920D02*
Y459740D01*
X695960Y495300D02*
Y538480D01*
X728980Y571500D01*
X797560D01*
X736600Y546100D02*
X797560D01*
X718820Y528320D02*
X736600Y546100D01*
X718820Y434340D02*
Y528320D01*
X693420Y368300D02*
Y408940D01*
X718820Y434340D01*
X645346Y368486D02*
X650240Y373380D01*
X660400Y375920D02*
X668020Y368300D01*
X754380Y271780D02*
X767080Y284480D01*
Y294640D01*
X669000Y288000D02*
X695380Y261620D01*
X694400Y288000D02*
X710620Y271780D01*
X754380D01*
X810258Y487682D02*
X815340Y482600D01*
X808990Y488950D02*
X810258Y487682D01*
X797560Y488950D02*
X808990D01*
D13*
X749300Y347369D02*
Y365760D01*
X734213Y332282D02*
X749300Y347369D01*
X719800Y310860D02*
X734213Y325273D01*
Y332282D01*
X719800Y288000D02*
Y310860D01*
X721360Y344829D02*
Y368300D01*
X707100Y330569D02*
X721360Y344829D01*
X707100Y307050D02*
Y330569D01*
X693420Y342290D02*
Y368300D01*
X681700Y330569D02*
X693420Y342290D01*
X681700Y307050D02*
Y330569D01*
X656300D02*
X668020Y342290D01*
Y368300D01*
X656300Y307050D02*
Y330569D01*
X645346Y345015D02*
Y368486D01*
X630900Y330569D02*
X645346Y345015D01*
X630900Y307050D02*
Y330569D01*
X485140Y375920D02*
X490220Y370840D01*
X538480Y375920D02*
X544390Y370010D01*
Y340880D02*
Y370010D01*
X502920Y274320D02*
X556260D01*
X490220Y287020D02*
Y370840D01*
Y287020D02*
X502920Y274320D01*
X480060Y279400D02*
X495300Y264160D01*
X480060Y279400D02*
Y345440D01*
X472440Y353060D02*
X480060Y345440D01*
X568960Y264160D02*
X592800Y288000D01*
X495300Y264160D02*
X568960D01*
X556260Y274320D02*
X567400Y285460D01*
Y288000D01*
X515620Y344249D02*
Y375920D01*
Y344249D02*
X529300Y330569D01*
Y307050D02*
Y330569D01*
X544390Y340880D02*
X554700Y330569D01*
Y307050D02*
Y330569D01*
X566420Y344249D02*
X580100Y330569D01*
Y307050D02*
Y330569D01*
X566420Y344249D02*
Y375920D01*
X591820Y344249D02*
Y375920D01*
Y344249D02*
X605500Y330569D01*
Y307050D02*
Y330569D01*
D17*
X1130300Y1201420D02*
D03*
X1164300D02*
D03*
D18*
X1059180Y1203960D02*
D03*
X1093470D02*
D03*
X1473200Y845820D02*
D03*
X1507490D02*
D03*
X457200Y1149350D02*
D03*
X491490D02*
D03*
X1361440Y866140D02*
D03*
X1327150D02*
D03*
X1028700Y1200150D02*
D03*
X994410D02*
D03*
X1501140Y1054100D02*
D03*
X1466850D02*
D03*
X797560Y463550D02*
D03*
X831850D02*
D03*
X797560Y488950D02*
D03*
X831850D02*
D03*
Y520700D02*
D03*
X797560D02*
D03*
X831850Y596900D02*
D03*
X797560D02*
D03*
X831850Y571500D02*
D03*
X797560D02*
D03*
X831850Y546100D02*
D03*
X797560D02*
D03*
X1356360Y1054100D02*
D03*
X1390650D02*
D03*
X1010920Y1109980D02*
D03*
X976630D02*
D03*
X1102000Y1353000D02*
D03*
X1067710D02*
D03*
D19*
X1546860Y845820D02*
D03*
Y879820D02*
D03*
D20*
X457200Y988880D02*
D03*
X469900D02*
D03*
X482600D02*
D03*
X495300D02*
D03*
Y1043120D02*
D03*
X482600D02*
D03*
X469900D02*
D03*
X457200D02*
D03*
D21*
X488950Y1085850D02*
D03*
Y1120140D02*
D03*
X457200Y1085850D02*
D03*
Y1120140D02*
D03*
X654050Y533400D02*
D03*
Y567690D02*
D03*
X431800Y537210D02*
D03*
Y571500D02*
D03*
X508000D02*
D03*
Y537210D02*
D03*
X482600Y571500D02*
D03*
Y537210D02*
D03*
X558800Y571500D02*
D03*
Y537210D02*
D03*
X533400Y571500D02*
D03*
Y537210D02*
D03*
X457200D02*
D03*
Y571500D02*
D03*
X1428750Y1054100D02*
D03*
Y1088390D02*
D03*
X769620Y745490D02*
D03*
Y779780D02*
D03*
X792480Y745490D02*
D03*
Y779780D02*
D03*
D22*
X1020000Y1049950D02*
D03*
Y1062650D02*
D03*
Y1075350D02*
D03*
Y1088050D02*
D03*
X966000Y1049950D02*
D03*
Y1062650D02*
D03*
Y1075350D02*
D03*
Y1088050D02*
D03*
D23*
X1311999Y1139399D02*
D03*
X1337000D02*
D03*
X1370500D02*
D03*
X1387000D02*
D03*
X1411998D02*
D03*
X1437000D02*
D03*
X1461300D02*
D03*
X1478300D02*
D03*
X1287000D02*
D03*
X1354000D02*
D03*
X1511800D02*
D03*
D24*
X1517000Y1361500D02*
D03*
X1237000Y1349500D02*
D03*
D50*
X654685Y513715D02*
Y532765D01*
Y513715D02*
X655320Y513080D01*
X654050Y533400D02*
X654685Y532765D01*
X718820Y624840D02*
X843280D01*
X871220Y652780D02*
Y741680D01*
X843280Y624840D02*
X871220Y652780D01*
X683260Y589280D02*
X718820Y624840D01*
X769620Y650240D02*
Y745490D01*
X792480Y665480D02*
Y745490D01*
X967470Y797290D02*
X967980Y796780D01*
X825500Y797560D02*
X911860D01*
X612260Y797170D02*
X710810D01*
X711200Y797560D01*
X611870Y796780D02*
X612260Y797170D01*
X967980Y796780D02*
X997440D01*
X967470Y771380D02*
X997440D01*
X553720Y993140D02*
X568960Y977900D01*
X553720Y993140D02*
Y1023620D01*
X1463040Y924560D02*
Y1028700D01*
Y886460D02*
Y924560D01*
X1530618Y961657D02*
Y971497D01*
X1570040Y1010920D01*
X1493520Y924560D02*
X1530618Y961657D01*
X1463040Y924560D02*
X1493520D01*
X351790Y1149350D02*
X457200D01*
X337820Y1135380D02*
X351790Y1149350D01*
X337820Y1107440D02*
Y1135380D01*
X1507490Y845820D02*
X1546860D01*
X1463040Y886460D02*
X1473200Y876300D01*
Y845820D02*
Y876300D01*
X457200Y1041475D02*
Y1043120D01*
Y1028700D02*
Y1041475D01*
X1381760Y1163320D02*
X1387000Y1158080D01*
X1211580Y1163320D02*
X1381760D01*
X1387000Y1139399D02*
Y1158080D01*
X1354000Y1056460D02*
Y1139399D01*
Y1054100D02*
X1356360D01*
X1354000Y1056460D02*
X1356360Y1054100D01*
X1325880D02*
X1354000D01*
X942340Y863600D02*
X960120Y881380D01*
X942340Y680720D02*
Y863600D01*
X960120Y881380D02*
X1056640D01*
X861060Y1229360D02*
X883920Y1252220D01*
X1054100D02*
X1078880Y1277000D01*
X883920Y1252220D02*
X1054100D01*
X861060Y1097280D02*
Y1229360D01*
X848380Y899180D02*
X889980D01*
X848360Y899160D02*
X848380Y899180D01*
X812800Y949960D02*
Y1026160D01*
X833120Y1097280D02*
Y1264920D01*
X870600Y1302400D01*
X807720Y1097280D02*
Y1282700D01*
X852820Y1327800D01*
X782320Y1300480D02*
X835040Y1353200D01*
X782320Y1097280D02*
Y1300480D01*
X870600Y1302400D02*
X979000D01*
X852820Y1327800D02*
X979000D01*
X835040Y1353200D02*
X979000D01*
X769620Y777909D02*
Y1046480D01*
X792480Y776740D02*
Y1033780D01*
X800140Y1077000D02*
X890000D01*
X769620Y1046480D02*
X800140Y1077000D01*
X792480Y1033780D02*
X810300Y1051600D01*
X685550Y875050D02*
X686800Y873800D01*
X361950Y876300D02*
X363200Y875050D01*
X685550D01*
X289560Y599440D02*
X363220Y525780D01*
X289560Y599440D02*
Y990600D01*
X340360Y1041400D02*
X457125D01*
X289560Y990600D02*
X340360Y1041400D01*
X457125D02*
X457200Y1041475D01*
X488950Y1065530D02*
Y1085850D01*
X482600Y1043120D02*
Y1059180D01*
X457200Y1071880D02*
X469900Y1059180D01*
Y1043120D02*
Y1059180D01*
X482600D02*
X488950Y1065530D01*
X457200Y1071880D02*
Y1085850D01*
X889980Y899180D02*
X890000Y899200D01*
X812800Y949960D02*
X838160Y924600D01*
X810300Y1051600D02*
X890000D01*
X838160Y924600D02*
X890000D01*
X845780Y950000D02*
X890000D01*
X833120Y962660D02*
Y1026160D01*
Y962660D02*
X845780Y950000D01*
X890000Y1026200D02*
X985560D01*
X1078880Y1277000D02*
X1179000D01*
X1102000Y1353000D02*
X1102100Y1353100D01*
X1178900D01*
X1179000Y1353200D01*
X1358900Y949960D02*
X1383150Y925710D01*
Y909650D02*
Y925710D01*
X1104900Y1021080D02*
X1145540D01*
X1063330Y1062650D02*
X1104900Y1021080D01*
X1020000Y1062650D02*
X1063330D01*
X1145500Y1000800D02*
X1145540Y1000760D01*
X1003300Y1000800D02*
X1145500D01*
X1153160Y1041400D02*
X1160780Y1049020D01*
X1112520Y1041400D02*
X1153160D01*
X1496060Y967740D02*
X1501140Y972820D01*
Y1054100D01*
X1351280Y967740D02*
X1424940D01*
X1002520Y618980D02*
X1351280Y967740D01*
X967470Y618980D02*
X1002520D01*
X967470Y644380D02*
X997440D01*
X1320800Y967740D01*
X1478280Y988060D02*
X1483360Y993140D01*
Y1076960D01*
X1478300Y1082020D02*
X1483360Y1076960D01*
X1478300Y1082020D02*
Y1139399D01*
X1308100Y988060D02*
X1442720D01*
X1015220Y695180D02*
X1308100Y988060D01*
X967470Y695180D02*
X1015220D01*
X1461300Y1135919D02*
X1463040Y1137659D01*
X1450340Y1089660D02*
X1461300Y1100620D01*
Y1135919D01*
Y1139399D02*
X1463040Y1137659D01*
X1297940Y1010920D02*
X1427480D01*
X967470Y720580D02*
X1007600D01*
X1297940Y1010920D01*
X1437640Y1054100D02*
X1466850D01*
X1437640D02*
X1463040Y1028700D01*
X1428750Y1054100D02*
X1437640D01*
X1427480Y1010920D02*
X1437640Y1021080D01*
X967470Y745980D02*
X1002520D01*
X1287780Y1031240D02*
X1412240D01*
X1002520Y745980D02*
X1287780Y1031240D01*
X1404620Y1089660D02*
X1411998Y1097038D01*
Y1139399D01*
X1056640Y881380D02*
X1287000Y1111740D01*
Y1139399D01*
X1337000Y1110940D02*
Y1139399D01*
X997440Y771380D02*
X1337000Y1110940D01*
X1311999Y1111339D02*
Y1139399D01*
X997440Y796780D02*
X1311999Y1111339D01*
X1043940Y1109980D02*
X1112520Y1041400D01*
X1010920Y1109980D02*
X1043940D01*
X1357750Y909650D02*
X1359405Y907995D01*
Y868175D02*
Y907995D01*
Y868175D02*
X1361440Y866140D01*
X1442720D02*
X1463040Y886460D01*
X1361440Y866140D02*
X1442720D01*
X942340Y680720D02*
X953280Y669780D01*
X967470D01*
Y796780D02*
Y797290D01*
X1501140Y1054100D02*
Y1089257D01*
X1511800Y1099917D01*
Y1139399D01*
X1387000Y1057750D02*
Y1139399D01*
Y1057750D02*
X1390650Y1054100D01*
X1428750D01*
X995680D02*
X1004055Y1062475D01*
X995680Y1036320D02*
Y1054100D01*
X1004055Y1062475D02*
X1019825D01*
X1020000Y1062650D01*
X985560Y1026200D02*
X995680Y1036320D01*
X1020000Y1017500D02*
Y1049950D01*
X1003300Y1000800D02*
X1020000Y1017500D01*
X890000Y1000800D02*
X1003300D01*
X1019400Y1169000D02*
Y1173705D01*
X1160780Y1049020D02*
Y1065530D01*
X1162050Y1066800D01*
X1010920Y1109980D02*
X1020000Y1100900D01*
Y1088050D02*
Y1100900D01*
X495300Y970280D02*
Y988880D01*
X529100Y822180D02*
X611870D01*
X495300Y855980D02*
X529100Y822180D01*
X469900Y988880D02*
Y1010920D01*
X472440Y1013460D01*
X482600Y988880D02*
Y1008380D01*
X472440Y1013460D02*
X477520D01*
X482600Y1008380D01*
X457200Y1028700D02*
X472440Y1013460D01*
X490220Y1121410D02*
Y1148080D01*
X491490Y1149350D01*
X488950Y1120140D02*
X490220Y1121410D01*
X457200Y1120140D02*
Y1149350D01*
X499150Y1207730D02*
X502920Y1203960D01*
X499150Y1207730D02*
Y1257300D01*
X491490Y1149350D02*
X502920Y1160780D01*
Y1203960D01*
X438150Y1168400D02*
Y1257300D01*
Y1168400D02*
X457200Y1149350D01*
X685550Y1179850D02*
X686800Y1178600D01*
X615950Y1181100D02*
X617200Y1179850D01*
X685550D01*
X617200Y1154450D02*
X685550D01*
X686800Y1153200D01*
X615950Y1155700D02*
X617200Y1154450D01*
X685550Y1129050D02*
X686800Y1127800D01*
X615950Y1130300D02*
X617200Y1129050D01*
X685550D01*
X617200Y1103650D02*
X685550D01*
X686800Y1102400D01*
X615950Y1104900D02*
X617200Y1103650D01*
X685550Y1078250D02*
X686800Y1077000D01*
X615950Y1079500D02*
X617200Y1078250D01*
X685550D01*
X615950Y1054100D02*
X617200Y1052850D01*
X685550D01*
X686800Y1051600D01*
X617200Y1027450D02*
X685550D01*
X686800Y1026200D01*
X615950Y1028700D02*
X617200Y1027450D01*
X667980Y950000D02*
X686800D01*
X652780Y965200D02*
X667980Y950000D01*
X652780Y965200D02*
Y985520D01*
X635000Y1003300D02*
X652780Y985520D01*
X615950Y1003300D02*
X635000D01*
X363200Y900450D02*
X685550D01*
X686800Y899200D01*
X361950Y901700D02*
X363200Y900450D01*
X361950Y927100D02*
X363200Y925850D01*
X685550D01*
X686800Y924600D01*
X457200Y403860D02*
X485140Y375920D01*
X508000Y406400D02*
X538480Y375920D01*
X508000Y406400D02*
Y537210D01*
X533400Y408940D02*
X566420Y375920D01*
X431800Y393700D02*
X472440Y353060D01*
X482600Y408940D02*
X515620Y375920D01*
X431800Y393700D02*
Y537210D01*
X457200Y403860D02*
Y537210D01*
X482600Y408940D02*
Y537210D01*
X533400Y408940D02*
Y537210D01*
X558800Y408940D02*
X591820Y375920D01*
X558800Y408940D02*
Y537210D01*
X609394Y745980D02*
X611870D01*
X610355Y769865D02*
X611870Y771380D01*
X610355Y795265D02*
X611870Y796780D01*
X431800Y571500D02*
Y673100D01*
X479280Y720580D02*
X611870D01*
X431800Y673100D02*
X479280Y720580D01*
X508000Y571500D02*
Y612140D01*
X541020Y645160D02*
X611090D01*
X508000Y612140D02*
X541020Y645160D01*
X457200Y571500D02*
Y655320D01*
X497060Y695180D02*
X611870D01*
X457200Y655320D02*
X497060Y695180D01*
X517380Y669780D02*
X611870D01*
X482600Y635000D02*
X517380Y669780D01*
X482600Y571500D02*
Y635000D01*
X611090Y645160D02*
X611870Y644380D01*
X533400Y575945D02*
Y591820D01*
X560560Y618980D01*
X530860Y574040D02*
X531495D01*
X533400Y575945D01*
X530860Y574040D02*
X533400Y571500D01*
X560560Y618980D02*
X611870D01*
X580880Y593580D02*
X611870D01*
X558800Y571500D02*
X580880Y593580D01*
X653805Y567935D02*
X654050Y567690D01*
X612115Y567935D02*
X653805D01*
X611870Y568180D02*
X612115Y567935D01*
X920750Y476250D02*
X930420Y466580D01*
X967470D01*
X863600Y476250D02*
X920750D01*
X831850Y463550D02*
X850900D01*
X863600Y476250D01*
X838200Y495300D02*
X961674D01*
X831850Y488950D02*
X838200Y495300D01*
X961674D02*
X964994Y491980D01*
X967470D01*
X961674Y520700D02*
X964994Y517380D01*
X967470D01*
X831850Y520700D02*
X961674D01*
Y546100D02*
X964994Y542780D01*
X967470D01*
X831850Y546100D02*
X961674D01*
X964994Y568180D02*
X967470D01*
X831850Y571500D02*
X961674D01*
X964994Y568180D01*
X961674Y596900D02*
X964994Y593580D01*
X831850Y596900D02*
X961674D01*
X964994Y593580D02*
X967470D01*
D51*
X1093470Y1203960D02*
X1129030D01*
X1130300Y1202690D01*
Y1201420D02*
Y1202690D01*
X1032510Y1203960D02*
X1059180D01*
X1028700Y1200150D02*
X1032510Y1203960D01*
X937260Y1229360D02*
X1016000D01*
X1027430Y1201420D02*
Y1217930D01*
Y1201420D02*
X1028700Y1200150D01*
X1016000Y1229360D02*
X1027430Y1217930D01*
X736600Y1216660D02*
X751840Y1231900D01*
X736600Y673100D02*
Y1216660D01*
X665480Y601980D02*
X736600Y673100D01*
X314960Y833120D02*
Y975360D01*
X330200Y990600D02*
X388620D01*
X314960Y975360D02*
X330200Y990600D01*
X388620D02*
X431800Y947420D01*
X314960Y607060D02*
Y833120D01*
Y607060D02*
X331470Y590550D01*
X890000Y1153200D02*
X954653D01*
X968600Y1167147D02*
Y1169000D01*
X954653Y1153200D02*
X968600Y1167147D01*
X1180014Y1352186D02*
X1195434D01*
X1179000Y1353200D02*
X1180014Y1352186D01*
X1195434D02*
X1211580Y1336040D01*
Y1163320D02*
Y1336040D01*
X1187450Y1136650D02*
Y1139190D01*
X1211580Y1163320D01*
X1179000Y1353200D02*
Y1378600D01*
X1019400Y1173705D02*
X1028700Y1183005D01*
Y1200150D01*
X1136650Y1136650D02*
Y1138503D01*
X1135477Y1139676D02*
X1136650Y1138503D01*
X1133624Y1139676D02*
X1135477D01*
X1104300Y1169000D02*
X1133624Y1139676D01*
X1019400Y1169000D02*
X1104300D01*
X1136650Y1066800D02*
Y1136650D01*
X1161610Y1087950D02*
X1187450Y1113790D01*
X1161610Y1067240D02*
Y1087950D01*
X1187450Y1113790D02*
Y1136650D01*
X1161610Y1067240D02*
X1162050Y1066800D01*
X332740Y850900D02*
X361950D01*
X314960Y833120D02*
X332740Y850900D01*
X331470Y590550D02*
X361950D01*
X431800Y947420D02*
X538480D01*
X568960Y977900D01*
X615950D01*
D52*
X967470Y415780D02*
D03*
Y441180D02*
D03*
Y466580D02*
D03*
Y491980D02*
D03*
Y517380D02*
D03*
Y542780D02*
D03*
Y568180D02*
D03*
Y593580D02*
D03*
Y618980D02*
D03*
Y644380D02*
D03*
Y669780D02*
D03*
Y695180D02*
D03*
Y720580D02*
D03*
Y745980D02*
D03*
Y771380D02*
D03*
Y796780D02*
D03*
Y822180D02*
D03*
Y847580D02*
D03*
X611870Y669780D02*
D03*
Y644380D02*
D03*
Y618980D02*
D03*
Y593580D02*
D03*
Y568180D02*
D03*
Y542780D02*
D03*
Y517380D02*
D03*
Y491980D02*
D03*
Y466580D02*
D03*
Y441180D02*
D03*
Y415780D02*
D03*
Y847580D02*
D03*
Y822180D02*
D03*
Y796780D02*
D03*
Y771380D02*
D03*
Y745980D02*
D03*
Y720580D02*
D03*
Y695180D02*
D03*
X890000Y873800D02*
D03*
Y899200D02*
D03*
Y924600D02*
D03*
Y950000D02*
D03*
Y1102400D02*
D03*
Y1127800D02*
D03*
Y1153200D02*
D03*
Y1178600D02*
D03*
Y1077000D02*
D03*
Y975400D02*
D03*
Y1000800D02*
D03*
Y1026200D02*
D03*
Y1051600D02*
D03*
X686800Y873800D02*
D03*
Y899200D02*
D03*
Y924600D02*
D03*
Y950000D02*
D03*
Y1000800D02*
D03*
Y1026200D02*
D03*
Y1051600D02*
D03*
Y1077000D02*
D03*
Y1102400D02*
D03*
Y1127800D02*
D03*
Y1153200D02*
D03*
Y1178600D02*
D03*
Y975400D02*
D03*
D53*
X553720Y1023620D02*
D03*
D54*
Y1043620D02*
D03*
X343220Y477520D02*
D03*
X1590040Y1010920D02*
D03*
D55*
X363220Y477520D02*
D03*
X1570040Y1010920D02*
D03*
D56*
X337820Y1107440D02*
D03*
X388620D02*
D03*
X363220D02*
D03*
X1187450Y1066800D02*
D03*
X1136650D02*
D03*
X1162050D02*
D03*
X1408550Y909650D02*
D03*
X1433950D02*
D03*
X1357750D02*
D03*
X1332350D02*
D03*
X1383150D02*
D03*
D57*
X398150Y1371300D02*
D03*
D58*
X530150Y1191300D02*
D03*
X468150D02*
D03*
X408150D02*
D03*
X490150Y1330300D02*
D03*
X438150D02*
D03*
X468150Y1296300D02*
D03*
X386150D02*
D03*
X438150Y1257300D02*
D03*
X499150D02*
D03*
X377150D02*
D03*
D59*
X890000Y1204000D02*
D03*
X686800D02*
D03*
D60*
X615950Y1155700D02*
D03*
Y1181100D02*
D03*
Y1104900D02*
D03*
Y1079500D02*
D03*
Y1130300D02*
D03*
Y1028700D02*
D03*
Y1054100D02*
D03*
Y977900D02*
D03*
Y952500D02*
D03*
Y1003300D02*
D03*
X361950Y901700D02*
D03*
Y850900D02*
D03*
Y876300D02*
D03*
Y952500D02*
D03*
Y927100D02*
D03*
Y768350D02*
D03*
Y793750D02*
D03*
Y717550D02*
D03*
Y692150D02*
D03*
Y742950D02*
D03*
Y641350D02*
D03*
Y666750D02*
D03*
Y590550D02*
D03*
Y565150D02*
D03*
Y615950D02*
D03*
D61*
X1162050Y1136650D02*
D03*
X1136650D02*
D03*
X1187450D02*
D03*
X968600Y1169000D02*
D03*
X1019400D02*
D03*
X994000D02*
D03*
D62*
X979000Y1404000D02*
D03*
Y1378600D02*
D03*
Y1353200D02*
D03*
Y1327800D02*
D03*
Y1302400D02*
D03*
Y1277000D02*
D03*
X1179000Y1404000D02*
D03*
Y1378600D02*
D03*
Y1353200D02*
D03*
Y1327800D02*
D03*
Y1302400D02*
D03*
Y1277000D02*
D03*
D63*
X1502000Y1382500D02*
D03*
X1260000D02*
D03*
D64*
X796000Y288000D02*
D03*
X453100D02*
D03*
D65*
X745200D02*
D03*
X732500Y307050D02*
D03*
X719800Y288000D02*
D03*
X707100Y307050D02*
D03*
X694400Y288000D02*
D03*
X681700Y307050D02*
D03*
X669000Y288000D02*
D03*
X656300Y307050D02*
D03*
X643600Y288000D02*
D03*
X630900Y307050D02*
D03*
X618200Y288000D02*
D03*
X605500Y307050D02*
D03*
X592800Y288000D02*
D03*
X580100Y307050D02*
D03*
X567400Y288000D02*
D03*
X554700Y307050D02*
D03*
X542000Y288000D02*
D03*
X529300Y307050D02*
D03*
X516600Y288000D02*
D03*
X503900Y307050D02*
D03*
X745200Y326100D02*
D03*
X732500Y345150D02*
D03*
X719800Y326100D02*
D03*
X707100Y345150D02*
D03*
X694400Y326100D02*
D03*
X681700Y345150D02*
D03*
X669000Y326100D02*
D03*
X656300Y345150D02*
D03*
X643600Y326100D02*
D03*
X630900Y345150D02*
D03*
X618200Y326100D02*
D03*
X605500Y345150D02*
D03*
X592800Y326100D02*
D03*
X580100Y345150D02*
D03*
X567400Y326100D02*
D03*
X554700Y345150D02*
D03*
X542000Y326100D02*
D03*
X529300Y345150D02*
D03*
X516600Y326100D02*
D03*
D66*
X503900Y345150D02*
D03*
D67*
X655320Y513080D02*
D03*
X769620Y650240D02*
D03*
X792480Y665480D02*
D03*
X756920Y467360D02*
D03*
X871220Y741680D02*
D03*
X911860Y797560D02*
D03*
X825500D02*
D03*
X711200D02*
D03*
X779780Y408940D02*
D03*
X749300D02*
D03*
X899160Y665480D02*
D03*
X843280D02*
D03*
X899160Y716280D02*
D03*
X843280D02*
D03*
X899160Y767080D02*
D03*
X843280D02*
D03*
X693420Y690880D02*
D03*
X655320D02*
D03*
Y728980D02*
D03*
X690880D02*
D03*
Y769620D02*
D03*
X655320D02*
D03*
X937260Y1229360D02*
D03*
X751840Y1231900D02*
D03*
X848360Y899160D02*
D03*
X812800Y1026160D02*
D03*
X833120Y1097280D02*
D03*
X807720D02*
D03*
X782320D02*
D03*
X861060D02*
D03*
X665480Y601980D02*
D03*
X363220Y525780D02*
D03*
X833120Y1026160D02*
D03*
X1358900Y949960D02*
D03*
X1145540Y1021080D02*
D03*
Y1000760D02*
D03*
X1496060Y967740D02*
D03*
X1424940D02*
D03*
X1325880Y1054100D02*
D03*
X1320800Y967740D02*
D03*
X1478280Y988060D02*
D03*
X1442720D02*
D03*
X1450340Y1089660D02*
D03*
X1437640Y1021080D02*
D03*
X1404620Y1089660D02*
D03*
X1412240Y1031240D02*
D03*
X985560Y1026200D02*
D03*
X495300Y970280D02*
D03*
Y855980D02*
D03*
M02*
