G04*
G04 #@! TF.GenerationSoftware,Altium Limited,Altium Designer,25.0.2 (28)*
G04*
G04 Layer_Color=8421504*
%FSLAX44Y44*%
%MOMM*%
G71*
G04*
G04 #@! TF.SameCoordinates,A7C3AEC9-9CA1-47B5-BDAE-58582B56A9DF*
G04*
G04*
G04 #@! TF.FilePolarity,Positive*
G04*
G01*
G75*
%ADD17R,1.5240X2.3000*%
%ADD18R,1.5240X1.5240*%
%ADD19R,2.3000X1.5240*%
%ADD20R,0.6500X1.5250*%
%ADD21R,1.5240X1.5240*%
%ADD22R,1.5500X0.6000*%
%ADD23R,1.0000X1.5000*%
%ADD24R,1.2000X2.0000*%
D17*
X1130300Y1201420D02*
D03*
X1164300D02*
D03*
D18*
X1059180Y1203960D02*
D03*
X1093470D02*
D03*
X1473200Y845820D02*
D03*
X1507490D02*
D03*
X457200Y1149350D02*
D03*
X491490D02*
D03*
X1361440Y866140D02*
D03*
X1327150D02*
D03*
X1028700Y1200150D02*
D03*
X994410D02*
D03*
X1501140Y1054100D02*
D03*
X1466850D02*
D03*
X797560Y463550D02*
D03*
X831850D02*
D03*
X797560Y488950D02*
D03*
X831850D02*
D03*
Y520700D02*
D03*
X797560D02*
D03*
X831850Y596900D02*
D03*
X797560D02*
D03*
X831850Y571500D02*
D03*
X797560D02*
D03*
X831850Y546100D02*
D03*
X797560D02*
D03*
X1356360Y1054100D02*
D03*
X1390650D02*
D03*
X1010920Y1109980D02*
D03*
X976630D02*
D03*
X1102000Y1353000D02*
D03*
X1067710D02*
D03*
D19*
X1546860Y845820D02*
D03*
Y879820D02*
D03*
D20*
X457200Y988880D02*
D03*
X469900D02*
D03*
X482600D02*
D03*
X495300D02*
D03*
Y1043120D02*
D03*
X482600D02*
D03*
X469900D02*
D03*
X457200D02*
D03*
D21*
X488950Y1085850D02*
D03*
Y1120140D02*
D03*
X457200Y1085850D02*
D03*
Y1120140D02*
D03*
X654050Y533400D02*
D03*
Y567690D02*
D03*
X431800Y537210D02*
D03*
Y571500D02*
D03*
X508000D02*
D03*
Y537210D02*
D03*
X482600Y571500D02*
D03*
Y537210D02*
D03*
X558800Y571500D02*
D03*
Y537210D02*
D03*
X533400Y571500D02*
D03*
Y537210D02*
D03*
X457200D02*
D03*
Y571500D02*
D03*
X1428750Y1054100D02*
D03*
Y1088390D02*
D03*
X769620Y745490D02*
D03*
Y779780D02*
D03*
X792480Y745490D02*
D03*
Y779780D02*
D03*
D22*
X1020000Y1049950D02*
D03*
Y1062650D02*
D03*
Y1075350D02*
D03*
Y1088050D02*
D03*
X966000Y1049950D02*
D03*
Y1062650D02*
D03*
Y1075350D02*
D03*
Y1088050D02*
D03*
D23*
X1311999Y1139399D02*
D03*
X1337000D02*
D03*
X1370500D02*
D03*
X1387000D02*
D03*
X1411998D02*
D03*
X1437000D02*
D03*
X1461300D02*
D03*
X1478300D02*
D03*
X1287000D02*
D03*
X1354000D02*
D03*
X1511800D02*
D03*
D24*
X1517000Y1361500D02*
D03*
X1237000Y1349500D02*
D03*
M02*
