M48
;Layer_Color=9474304
;FILE_FORMAT=4:4
METRIC,LZ
;TYPE=PLATED
T01F00S00C0.7000
T02F00S00C0.7112
T03F00S00C0.8000
T04F00S00C0.8890
T05F00S00C1.0000
T06F00S00C1.0160
T07F00S00C1.0400
T08F00S00C1.2000
T09F00S00C2.2000
T10F00S00C4.0000
;TYPE=NON_PLATED
T11F00S00C1.5000
T12F00S00C2.1000
%
T01
X0034322Y0047752
X0036322
X0055372Y0102362
Y0104362
X0157004Y0101092
X0159004
T02
X0084328Y0066548
Y0071628
Y0076708
X0087122Y0074168
X0089916Y0071628
Y0066548
Y0076708
X0079248Y0066548
X0076962Y0065024
X0069342Y0069088
X0065532
Y0072898
X0069088
Y0076962
X0065532
X0066548Y0060198
X0065532Y0051308
X0075692Y0046736
X007493Y0040894
X0077978
X0036322Y0052578
X004953Y0085598
Y0097028
X007112Y0079756
X0078232Y0109728
X0080772
X0083312
X0086106
X0083312Y0102616
X008128
X0084836Y0089916
X008255Y0079756
X0091186
X0098556Y010262
X0114554Y0102108
Y0100076
X013208Y0096774
X013589Y0094996
X0142494Y0096774
X0144272Y0098806
X0147828
X0149606Y0096774
X0143764Y0102108
X0141224Y0103124
X0140462Y0108966
X0145034
X0132588Y010541
X0093726Y0122936
X0075184Y012319
T03
X005166Y00288
X00542
X005674
X005928
X006182
X006436
X00669
X006944
X007198
X007452
X007325Y0030705
X007071
X006817
X006563
X006309
X006055
X005801
X005547
X005293
X005039
X005166Y003261
X00542
X005674
X005928
X006182
X006436
X00669
X006944
X007198
X007452
X007325Y0034515
X007071
X006817
X006563
X006309
X006055
X005801
X005547
X005293
X005039
T04
X009686Y01169
X00994
X010194
X0113665Y0113665
X0116205
X0118745
T05
X0036195Y0056515
Y0059055
Y0061595
Y0064135
Y0066675
Y0069215
Y0071755
Y0074295
Y0076835
Y0079375
Y008509
Y008763
Y009017
Y009271
Y009525
X0036322Y0110744
X0033782
X0038862
X0061595Y011049
Y010795
Y010541
Y010287
Y010033
Y009779
Y009525
Y011303
Y011557
Y011811
X0113665Y010668
X0116205
X0118745
X0133235Y0090965
X0135775
X0138315
X0140855
X0143395
T06
X00979Y01277
Y013024
Y013278
Y013532
Y013786
Y01404
X01179
Y013786
Y013532
Y013278
Y013024
Y01277
T07
X0096747Y0041578
Y0044118
Y0046658
Y0049198
Y0051738
Y0054278
Y0056818
Y0059358
Y0061898
Y0064438
Y0066978
Y0069518
Y0072058
Y0074598
Y0077138
X0061187
Y0074598
Y0072058
Y0069518
Y0066978
Y0064438
Y0061898
Y0059358
Y0056818
Y0054278
Y0051738
Y0049198
Y0046658
Y0044118
Y0041578
Y0079678
Y0082218
Y0084758
X006868Y008738
Y008992
Y009246
Y0095
Y009754
Y010008
Y010262
Y010516
Y01077
Y011024
Y011278
Y011532
Y011786
X0089
Y011532
Y011278
Y011024
Y01077
Y010516
Y010262
Y010008
Y009754
Y0095
Y009246
Y008992
Y008738
X0096747Y0084758
Y0082218
Y0079678
X0089Y01204
X006868
T08
X0040815Y011913
X0046815
X0053015
X0049915Y012573
X0043815
X0046815Y012963
X0049015Y013303
X0043815
X0038615Y012963
X0037715Y012573
T09
X004531Y00288
X00796
T10
X0089Y0044499
X0068934
X0067918Y0083361
X0090016
X0157Y0137
X0062
T11
X0126Y013825
X01502
T12
X0039815Y013713
M30
