G04*
G04 #@! TF.GenerationSoftware,Altium Limited,Altium Designer,25.0.2 (28)*
G04*
G04 Layer_Color=65535*
%FSLAX44Y44*%
%MOMM*%
G71*
G04*
G04 #@! TF.SameCoordinates,A7C3AEC9-9CA1-47B5-BDAE-58582B56A9DF*
G04*
G04*
G04 #@! TF.FilePolarity,Positive*
G04*
G01*
G75*
%ADD10C,0.2000*%
%ADD11C,0.3810*%
%ADD12C,0.1000*%
%ADD13C,0.2540*%
%ADD14C,0.1270*%
%ADD15R,0.5080X2.2860*%
%ADD16R,2.2860X0.5080*%
G36*
X1483011Y683574D02*
X1483428D01*
Y620258D01*
X1483011D01*
Y619841D01*
X1478846D01*
Y620258D01*
X1478429D01*
Y677326D01*
X1478013D01*
Y676492D01*
X1477596D01*
Y675243D01*
X1477180D01*
Y673993D01*
X1476763D01*
Y672744D01*
X1476346D01*
Y671494D01*
X1475930D01*
Y669828D01*
X1475513D01*
Y668578D01*
X1475097D01*
Y667328D01*
X1474680D01*
Y666079D01*
X1474264D01*
Y664829D01*
X1473847D01*
Y663579D01*
X1473431D01*
Y662330D01*
X1473014D01*
Y661080D01*
X1472598D01*
Y659830D01*
X1472181D01*
Y658581D01*
X1471764D01*
Y657331D01*
X1471348D01*
Y656081D01*
X1470931D01*
Y654832D01*
X1470515D01*
Y653582D01*
X1470098D01*
Y651916D01*
X1469682D01*
Y650666D01*
X1469265D01*
Y649417D01*
X1468849D01*
Y648167D01*
X1468432D01*
Y646917D01*
X1468015D01*
Y645668D01*
X1467599D01*
Y644835D01*
Y644418D01*
X1467182D01*
Y643168D01*
X1466766D01*
Y641502D01*
X1466349D01*
Y640252D01*
X1465933D01*
Y639003D01*
X1465516D01*
Y637753D01*
X1465099D01*
Y636503D01*
X1464683D01*
Y635254D01*
X1464266D01*
Y634004D01*
X1463850D01*
Y632755D01*
X1463433D01*
Y631505D01*
X1463017D01*
Y629839D01*
X1462600D01*
Y628589D01*
X1462184D01*
Y627339D01*
X1461767D01*
Y626090D01*
X1461351D01*
Y624840D01*
X1460934D01*
Y623590D01*
X1460517D01*
Y622341D01*
X1460101D01*
Y621091D01*
X1459684D01*
Y620258D01*
X1459268D01*
Y619841D01*
X1452603D01*
Y620258D01*
X1452186D01*
Y620675D01*
X1451770D01*
Y621924D01*
X1451353D01*
Y623174D01*
X1450937D01*
Y624423D01*
X1450520D01*
Y625673D01*
X1450104D01*
Y626923D01*
X1449687D01*
Y628172D01*
X1449270D01*
Y629422D01*
X1448854D01*
Y631088D01*
X1448437D01*
Y632338D01*
X1448021D01*
Y633588D01*
X1447604D01*
Y634837D01*
X1447188D01*
Y636087D01*
X1446771D01*
Y637337D01*
X1446355D01*
Y638586D01*
X1445938D01*
Y639836D01*
X1445522D01*
Y641086D01*
X1445105D01*
Y642752D01*
X1444688D01*
Y644001D01*
X1444272D01*
Y645251D01*
X1443855D01*
Y646501D01*
X1443439D01*
Y647750D01*
X1443022D01*
Y649000D01*
X1442606D01*
Y650250D01*
X1442189D01*
Y651499D01*
X1441773D01*
Y653166D01*
X1441356D01*
Y654415D01*
X1440939D01*
Y655665D01*
X1440523D01*
Y656915D01*
X1440106D01*
Y658164D01*
X1439690D01*
Y659414D01*
X1439273D01*
Y660664D01*
X1438857D01*
Y661913D01*
X1438440D01*
Y663163D01*
X1438024D01*
Y664413D01*
X1437607D01*
Y666079D01*
X1437191D01*
Y667328D01*
X1436774D01*
Y668578D01*
X1436357D01*
Y669828D01*
X1435941D01*
Y671077D01*
X1435524D01*
Y672327D01*
X1435108D01*
Y673577D01*
X1434691D01*
Y674826D01*
X1434275D01*
Y676076D01*
X1433858D01*
Y677326D01*
X1433441D01*
Y677742D01*
X1433025D01*
Y620258D01*
X1432608D01*
Y619841D01*
X1428860D01*
Y620258D01*
X1428443D01*
Y683574D01*
X1428860D01*
Y683990D01*
X1435941D01*
Y683574D01*
X1436357D01*
Y683157D01*
X1436774D01*
Y681908D01*
X1437191D01*
Y680658D01*
X1437607D01*
Y679408D01*
X1438024D01*
Y678159D01*
X1438440D01*
Y676909D01*
X1438857D01*
Y675659D01*
X1439273D01*
Y674410D01*
X1439690D01*
Y673160D01*
X1440106D01*
Y671910D01*
X1440523D01*
Y670661D01*
X1440939D01*
Y669411D01*
X1441356D01*
Y668161D01*
X1441773D01*
Y666912D01*
X1442189D01*
Y665662D01*
X1442606D01*
Y664413D01*
X1443022D01*
Y663163D01*
X1443439D01*
Y661497D01*
X1443855D01*
Y660247D01*
X1444272D01*
Y658997D01*
X1444688D01*
Y657748D01*
X1445105D01*
Y656498D01*
X1445522D01*
Y655248D01*
X1445938D01*
Y653999D01*
X1446355D01*
Y652749D01*
X1446771D01*
Y651499D01*
X1447188D01*
Y650250D01*
X1447604D01*
Y649000D01*
X1448021D01*
Y647750D01*
X1448437D01*
Y646501D01*
X1448854D01*
Y645251D01*
X1449270D01*
Y644001D01*
X1449687D01*
Y642752D01*
X1450104D01*
Y641502D01*
X1450520D01*
Y640252D01*
X1450937D01*
Y639003D01*
X1451353D01*
Y637753D01*
X1451770D01*
Y636503D01*
X1452186D01*
Y635254D01*
X1452603D01*
Y634004D01*
X1453020D01*
Y632755D01*
X1453436D01*
Y631505D01*
X1453853D01*
Y630255D01*
X1454269D01*
Y629006D01*
X1454686D01*
Y627756D01*
X1455102D01*
Y626506D01*
X1455519D01*
Y625257D01*
X1456352D01*
Y626506D01*
X1456768D01*
Y628172D01*
X1457185D01*
Y629006D01*
X1457602D01*
Y630255D01*
X1458018D01*
Y631921D01*
X1458435D01*
Y633171D01*
X1458851D01*
Y634421D01*
X1459268D01*
Y635670D01*
X1459684D01*
Y636920D01*
X1460101D01*
Y638170D01*
X1460517D01*
Y639419D01*
X1460934D01*
Y640669D01*
X1461351D01*
Y641919D01*
X1461767D01*
Y643168D01*
X1462184D01*
Y644418D01*
X1462600D01*
Y645668D01*
X1463017D01*
Y646917D01*
X1463433D01*
Y648167D01*
X1463850D01*
Y649417D01*
X1464266D01*
Y650666D01*
X1464683D01*
Y651916D01*
X1465099D01*
Y653166D01*
X1465516D01*
Y654415D01*
X1465933D01*
Y655665D01*
X1466349D01*
Y656915D01*
X1466766D01*
Y658164D01*
X1467182D01*
Y659414D01*
X1467599D01*
Y660664D01*
X1468015D01*
Y661913D01*
X1468432D01*
Y663163D01*
X1468849D01*
Y664829D01*
X1469265D01*
Y666079D01*
X1469682D01*
Y667328D01*
X1470098D01*
Y668578D01*
X1470515D01*
Y669828D01*
X1470931D01*
Y671077D01*
X1471348D01*
Y672327D01*
X1471764D01*
Y673577D01*
X1472181D01*
Y674826D01*
X1472598D01*
Y676076D01*
X1473014D01*
Y677326D01*
X1473431D01*
Y678575D01*
X1473847D01*
Y679825D01*
X1474264D01*
Y681075D01*
X1474680D01*
Y682324D01*
X1475097D01*
Y683574D01*
X1475513D01*
Y683990D01*
X1483011D01*
Y683574D01*
D02*
G37*
G36*
X1419279D02*
X1419695D01*
Y620258D01*
X1419279D01*
Y619841D01*
X1415113D01*
Y620258D01*
X1414697D01*
Y649417D01*
Y649833D01*
Y676492D01*
X1415113D01*
Y677742D01*
X1414280D01*
Y676492D01*
X1413864D01*
Y675243D01*
X1413447D01*
Y673993D01*
X1413031D01*
Y672744D01*
X1412614D01*
Y671494D01*
X1412197D01*
Y670244D01*
X1411781D01*
Y668995D01*
X1411364D01*
Y667745D01*
X1410948D01*
Y666079D01*
X1410531D01*
Y664829D01*
X1410115D01*
Y663579D01*
X1409698D01*
Y662330D01*
X1409281D01*
Y661080D01*
X1408865D01*
Y659830D01*
X1408448D01*
Y658581D01*
X1408032D01*
Y657331D01*
X1407615D01*
Y656081D01*
X1407199D01*
Y654832D01*
X1406782D01*
Y653582D01*
X1406366D01*
Y652333D01*
X1405949D01*
Y650666D01*
X1405533D01*
Y649417D01*
X1405116D01*
Y648167D01*
X1404699D01*
Y646917D01*
X1404283D01*
Y645668D01*
X1403866D01*
Y644418D01*
X1403450D01*
Y643168D01*
X1403033D01*
Y641919D01*
X1402617D01*
Y640669D01*
X1402200D01*
Y639003D01*
X1401784D01*
Y637753D01*
X1401367D01*
Y636503D01*
X1400950D01*
Y635254D01*
X1400534D01*
Y634004D01*
X1400117D01*
Y632755D01*
X1399701D01*
Y631505D01*
X1399284D01*
Y630255D01*
X1398868D01*
Y628589D01*
X1398451D01*
Y627339D01*
X1398035D01*
Y626090D01*
X1397618D01*
Y624840D01*
X1397202D01*
Y623590D01*
X1396785D01*
Y622341D01*
X1396368D01*
Y621091D01*
X1395952D01*
Y620258D01*
X1395535D01*
Y619841D01*
X1388871D01*
Y620258D01*
X1388454D01*
Y620675D01*
X1388037D01*
Y621924D01*
X1387621D01*
Y623174D01*
X1387204D01*
Y624423D01*
X1386788D01*
Y625673D01*
X1386371D01*
Y626923D01*
X1385955D01*
Y628172D01*
X1385538D01*
Y629422D01*
X1385121D01*
Y630672D01*
X1384705D01*
Y631921D01*
X1384288D01*
Y633588D01*
X1383872D01*
Y634837D01*
X1383455D01*
Y636087D01*
X1383039D01*
Y637337D01*
X1382622D01*
Y638586D01*
X1382206D01*
Y639836D01*
X1381789D01*
Y641086D01*
X1381373D01*
Y642335D01*
X1380956D01*
Y643585D01*
X1380539D01*
Y645251D01*
X1380123D01*
Y646501D01*
X1379706D01*
Y647750D01*
X1379290D01*
Y649000D01*
X1378873D01*
Y650250D01*
X1378457D01*
Y651499D01*
X1378040D01*
Y652749D01*
X1377623D01*
Y653999D01*
X1377207D01*
Y655665D01*
X1376790D01*
Y656915D01*
X1376374D01*
Y658164D01*
X1375957D01*
Y659414D01*
X1375541D01*
Y660664D01*
X1375124D01*
Y661913D01*
X1374708D01*
Y663163D01*
X1374291D01*
Y664413D01*
X1373875D01*
Y665662D01*
X1373458D01*
Y666912D01*
X1373042D01*
Y668578D01*
X1372625D01*
Y669828D01*
X1372208D01*
Y671077D01*
X1371792D01*
Y672327D01*
X1371375D01*
Y673577D01*
X1370959D01*
Y674826D01*
X1370542D01*
Y676076D01*
X1370126D01*
Y677326D01*
X1369709D01*
Y677742D01*
X1369292D01*
Y620258D01*
X1368876D01*
Y619841D01*
X1365127D01*
Y620258D01*
X1364710D01*
Y683574D01*
X1365127D01*
Y683990D01*
X1372208D01*
Y683574D01*
X1372625D01*
Y683157D01*
X1373042D01*
Y681908D01*
X1373458D01*
Y680658D01*
X1373875D01*
Y679408D01*
X1374291D01*
Y678159D01*
X1374708D01*
Y676909D01*
X1375124D01*
Y675659D01*
X1375541D01*
Y674410D01*
X1375957D01*
Y673160D01*
X1376374D01*
Y671910D01*
X1376790D01*
Y670661D01*
X1377207D01*
Y669411D01*
X1377623D01*
Y668161D01*
X1378040D01*
Y666912D01*
X1378457D01*
Y665246D01*
X1378873D01*
Y663996D01*
X1379290D01*
Y662746D01*
X1379706D01*
Y661497D01*
X1380123D01*
Y660247D01*
X1380539D01*
Y658997D01*
X1380956D01*
Y657748D01*
X1381373D01*
Y656498D01*
X1381789D01*
Y655248D01*
X1382206D01*
Y653999D01*
X1382622D01*
Y652749D01*
X1383039D01*
Y651499D01*
X1383455D01*
Y650250D01*
X1383872D01*
Y649000D01*
X1384288D01*
Y647750D01*
X1384705D01*
Y646501D01*
X1385121D01*
Y645251D01*
X1385538D01*
Y644001D01*
X1385955D01*
Y642752D01*
X1386371D01*
Y641502D01*
X1386788D01*
Y640252D01*
X1387204D01*
Y639003D01*
X1387621D01*
Y637753D01*
X1388037D01*
Y636503D01*
X1388454D01*
Y635254D01*
X1388871D01*
Y634004D01*
X1389287D01*
Y632755D01*
X1389704D01*
Y631505D01*
X1390120D01*
Y630255D01*
X1390537D01*
Y629006D01*
X1390953D01*
Y627756D01*
X1391370D01*
Y626506D01*
X1391786D01*
Y625257D01*
X1392203D01*
Y625673D01*
X1392619D01*
Y626923D01*
X1393036D01*
Y628172D01*
X1393452D01*
Y629422D01*
X1393869D01*
Y630672D01*
X1394286D01*
Y631921D01*
X1394702D01*
Y633171D01*
X1395119D01*
Y634421D01*
X1395535D01*
Y635670D01*
X1395952D01*
Y636920D01*
X1396368D01*
Y638170D01*
X1396785D01*
Y639419D01*
X1397202D01*
Y640669D01*
X1397618D01*
Y641919D01*
X1398035D01*
Y643168D01*
X1398451D01*
Y644418D01*
X1398868D01*
Y645668D01*
X1399284D01*
Y646917D01*
X1399701D01*
Y648167D01*
X1400117D01*
Y649417D01*
X1400534D01*
Y650666D01*
X1400950D01*
Y651916D01*
X1401367D01*
Y653166D01*
X1401784D01*
Y654415D01*
X1402200D01*
Y655665D01*
X1402617D01*
Y657331D01*
X1403033D01*
Y658581D01*
X1403450D01*
Y659830D01*
X1403866D01*
Y661080D01*
X1404283D01*
Y662330D01*
X1404699D01*
Y663579D01*
X1405116D01*
Y664829D01*
X1405533D01*
Y666079D01*
X1405949D01*
Y667328D01*
X1406366D01*
Y668578D01*
X1406782D01*
Y669828D01*
X1407199D01*
Y671077D01*
X1407615D01*
Y672327D01*
X1408032D01*
Y673577D01*
X1408448D01*
Y674826D01*
X1408865D01*
Y676076D01*
X1409281D01*
Y677326D01*
X1409698D01*
Y678575D01*
X1410115D01*
Y679825D01*
X1410531D01*
Y681075D01*
X1410948D01*
Y682324D01*
X1411364D01*
Y683574D01*
X1411781D01*
Y683990D01*
X1419279D01*
Y683574D01*
D02*
G37*
G36*
X1567155D02*
X1569654D01*
Y683157D01*
X1571320D01*
Y682741D01*
X1572153D01*
Y682324D01*
X1572986D01*
Y681908D01*
X1573820D01*
Y681491D01*
X1574236D01*
Y681075D01*
X1575069D01*
Y680658D01*
X1575486D01*
Y680241D01*
X1575902D01*
Y679825D01*
X1576319D01*
Y678992D01*
X1576736D01*
Y678575D01*
X1577152D01*
Y677742D01*
X1577569D01*
Y676909D01*
X1577985D01*
Y675659D01*
X1578402D01*
Y673577D01*
X1578818D01*
Y659830D01*
X1578402D01*
Y657748D01*
X1577985D01*
Y656498D01*
X1577569D01*
Y655665D01*
X1577152D01*
Y654832D01*
X1576736D01*
Y654415D01*
X1576319D01*
Y653582D01*
X1575902D01*
Y653166D01*
X1575486D01*
Y652749D01*
X1575069D01*
Y652333D01*
X1574653D01*
Y651916D01*
X1573820D01*
Y651499D01*
X1572986D01*
Y651083D01*
X1572153D01*
Y650666D01*
X1571320D01*
Y650250D01*
X1569654D01*
Y649833D01*
X1568405D01*
Y649000D01*
X1568821D01*
Y647750D01*
X1569238D01*
Y646501D01*
X1569654D01*
Y645251D01*
X1570071D01*
Y644001D01*
X1570487D01*
Y642752D01*
X1570904D01*
Y641919D01*
X1571320D01*
Y640669D01*
X1571737D01*
Y639419D01*
X1572153D01*
Y638170D01*
X1572570D01*
Y636920D01*
X1572986D01*
Y636087D01*
X1573403D01*
Y634837D01*
X1573820D01*
Y633588D01*
X1574236D01*
Y632338D01*
X1574653D01*
Y631088D01*
X1575069D01*
Y630255D01*
X1575486D01*
Y629006D01*
X1575902D01*
Y627756D01*
X1576319D01*
Y626506D01*
X1576736D01*
Y625257D01*
X1577152D01*
Y624423D01*
X1577569D01*
Y623174D01*
X1577985D01*
Y621924D01*
X1578402D01*
Y620675D01*
X1578818D01*
Y620258D01*
X1578402D01*
Y619841D01*
X1574653D01*
Y620258D01*
X1574236D01*
Y620675D01*
X1573820D01*
Y621924D01*
X1573403D01*
Y622757D01*
X1572986D01*
Y624007D01*
X1572570D01*
Y625257D01*
X1572153D01*
Y626506D01*
X1571737D01*
Y627756D01*
X1571320D01*
Y628589D01*
X1570904D01*
Y629839D01*
X1570487D01*
Y631088D01*
X1570071D01*
Y632338D01*
X1569654D01*
Y633588D01*
X1569238D01*
Y634837D01*
X1568821D01*
Y635670D01*
X1568405D01*
Y636920D01*
X1567988D01*
Y638170D01*
X1567571D01*
Y639419D01*
X1567155D01*
Y640669D01*
X1566738D01*
Y641919D01*
X1566322D01*
Y642752D01*
X1565905D01*
Y644001D01*
X1565489D01*
Y645251D01*
X1565072D01*
Y646501D01*
X1564655D01*
Y647750D01*
X1564239D01*
Y648584D01*
X1563822D01*
Y649417D01*
X1563406D01*
Y649833D01*
X1543828D01*
Y649417D01*
X1543411D01*
Y649833D01*
X1542578D01*
Y620258D01*
X1542162D01*
Y619841D01*
X1537996D01*
Y683990D01*
X1567155D01*
Y683574D01*
D02*
G37*
G36*
X1528832Y678992D02*
X1496758D01*
Y654415D01*
X1497174D01*
Y653999D01*
X1527999D01*
Y654415D01*
X1528416D01*
Y653999D01*
X1528832D01*
Y649833D01*
X1497174D01*
Y649417D01*
X1496758D01*
Y624840D01*
X1528416D01*
Y624423D01*
X1528832D01*
Y619841D01*
X1492592D01*
Y620258D01*
X1492175D01*
Y683574D01*
X1492592D01*
Y683990D01*
X1528832D01*
Y678992D01*
D02*
G37*
G36*
X1355546Y619841D02*
X1351381D01*
Y620258D01*
X1350964D01*
Y644001D01*
Y644418D01*
Y683574D01*
X1351381D01*
Y683990D01*
X1355546D01*
Y619841D01*
D02*
G37*
G36*
X1330137Y683574D02*
X1333053D01*
Y683157D01*
X1334302D01*
Y682741D01*
X1335552D01*
Y682324D01*
X1336385D01*
Y681908D01*
X1336801D01*
Y681491D01*
X1337634D01*
Y681075D01*
X1338051D01*
Y680658D01*
X1338468D01*
Y680241D01*
X1338884D01*
Y679825D01*
X1339301D01*
Y679408D01*
X1339717D01*
Y678575D01*
X1340134D01*
Y678159D01*
X1340550D01*
Y677326D01*
X1340967D01*
Y676076D01*
X1341384D01*
Y674410D01*
X1341800D01*
Y670661D01*
X1342217D01*
Y633171D01*
X1341800D01*
Y629422D01*
X1341384D01*
Y627756D01*
X1340967D01*
Y626506D01*
X1340550D01*
Y625673D01*
X1340134D01*
Y625257D01*
X1339717D01*
Y624423D01*
X1339301D01*
Y624007D01*
X1338884D01*
Y623590D01*
X1338468D01*
Y623174D01*
X1338051D01*
Y622757D01*
X1337634D01*
Y622341D01*
X1337218D01*
Y621924D01*
X1336385D01*
Y621508D01*
X1335552D01*
Y621091D01*
X1334302D01*
Y620675D01*
X1333053D01*
Y620258D01*
X1330137D01*
Y619841D01*
X1301395D01*
Y620258D01*
X1300978D01*
Y621924D01*
Y622341D01*
Y683574D01*
X1301395D01*
Y683990D01*
X1330137D01*
Y683574D01*
D02*
G37*
G36*
X1292647Y624423D02*
X1293063D01*
Y619841D01*
X1261405D01*
Y620258D01*
X1260989D01*
Y624423D01*
X1261405D01*
Y624840D01*
X1292647D01*
Y624423D01*
D02*
G37*
G36*
X1253074Y683157D02*
X1253491D01*
Y682741D01*
X1253074D01*
Y682324D01*
X1253491D01*
Y681908D01*
X1253074D01*
Y680241D01*
X1253491D01*
Y679825D01*
X1253074D01*
Y678992D01*
X1227248D01*
Y678575D01*
X1225999D01*
Y678159D01*
X1225165D01*
Y677742D01*
X1224332D01*
Y677326D01*
X1223916D01*
Y676909D01*
X1223499D01*
Y676492D01*
X1223083D01*
Y676076D01*
X1222666D01*
Y675243D01*
X1222250D01*
Y674410D01*
X1221833D01*
Y672744D01*
X1221416D01*
Y631088D01*
X1221833D01*
Y629422D01*
X1222250D01*
Y628589D01*
X1222666D01*
Y627756D01*
X1223083D01*
Y627339D01*
X1223499D01*
Y626923D01*
X1223916D01*
Y626506D01*
X1224332D01*
Y626090D01*
X1225165D01*
Y625673D01*
X1225999D01*
Y625257D01*
X1227248D01*
Y624840D01*
X1253074D01*
Y619841D01*
X1228498D01*
Y620258D01*
X1225999D01*
Y620675D01*
X1224332D01*
Y621091D01*
X1223499D01*
Y621508D01*
X1222666D01*
Y621924D01*
X1221833D01*
Y622341D01*
X1221000D01*
Y622757D01*
X1220583D01*
Y623174D01*
X1220167D01*
Y623590D01*
X1219750D01*
Y624007D01*
X1219334D01*
Y624840D01*
X1218917D01*
Y625257D01*
X1218501D01*
Y626090D01*
X1218084D01*
Y626923D01*
X1217667D01*
Y628172D01*
X1217251D01*
Y629839D01*
X1216834D01*
Y673993D01*
X1217251D01*
Y675659D01*
X1217667D01*
Y676909D01*
X1218084D01*
Y677742D01*
X1218501D01*
Y678575D01*
X1218917D01*
Y678992D01*
X1219334D01*
Y679825D01*
X1219750D01*
Y680241D01*
X1220167D01*
Y680658D01*
X1220583D01*
Y681075D01*
X1221416D01*
Y681491D01*
X1221833D01*
Y681908D01*
X1222666D01*
Y682324D01*
X1223499D01*
Y682741D01*
X1224332D01*
Y683157D01*
X1225999D01*
Y683574D01*
X1228914D01*
Y683990D01*
X1253074D01*
Y683157D01*
D02*
G37*
G36*
X1195590Y683574D02*
X1198506D01*
Y683157D01*
X1200172D01*
Y682741D01*
X1201005D01*
Y682324D01*
X1201839D01*
Y681908D01*
X1202672D01*
Y681491D01*
X1203088D01*
Y681075D01*
X1203921D01*
Y680658D01*
X1204338D01*
Y680241D01*
X1204754D01*
Y679825D01*
X1205171D01*
Y678992D01*
X1205587D01*
Y678575D01*
X1206004D01*
Y677742D01*
X1206421D01*
Y676909D01*
X1206837D01*
Y675659D01*
X1207254D01*
Y673993D01*
X1207670D01*
Y659414D01*
X1207254D01*
Y657748D01*
X1206837D01*
Y656498D01*
X1206421D01*
Y655665D01*
X1206004D01*
Y654832D01*
X1205587D01*
Y654415D01*
X1205171D01*
Y653582D01*
X1204754D01*
Y653166D01*
X1204338D01*
Y652749D01*
X1203921D01*
Y652333D01*
X1203088D01*
Y651916D01*
X1202672D01*
Y651499D01*
X1201839D01*
Y651083D01*
X1201005D01*
Y650666D01*
X1200172D01*
Y650250D01*
X1198506D01*
Y649833D01*
X1171847D01*
Y649417D01*
X1171430D01*
Y620258D01*
X1171014D01*
Y619841D01*
X1166848D01*
Y681908D01*
Y682324D01*
Y683990D01*
X1195590D01*
Y683574D01*
D02*
G37*
G36*
X1151436Y703985D02*
X1152685D01*
Y703568D01*
X1153518D01*
Y703152D01*
X1154352D01*
Y702735D01*
X1154768D01*
Y702319D01*
X1155185D01*
Y701902D01*
X1155601D01*
Y701069D01*
X1156018D01*
Y700236D01*
X1156434D01*
Y603596D01*
X1156018D01*
Y602763D01*
X1155601D01*
Y601930D01*
X1155185D01*
Y601513D01*
X1154768D01*
Y601096D01*
X1154352D01*
Y600680D01*
X1153518D01*
Y600263D01*
X1152685D01*
Y599847D01*
X1151436D01*
Y599430D01*
X1056878D01*
Y599847D01*
X1055629D01*
Y600263D01*
X1054796D01*
Y600680D01*
X1054379D01*
Y601096D01*
X1053962D01*
Y601513D01*
X1053546D01*
Y601930D01*
X1053129D01*
Y602346D01*
X1052713D01*
Y602763D01*
X1052296D01*
Y604012D01*
X1051880D01*
Y699819D01*
X1052296D01*
Y701069D01*
X1052713D01*
Y701486D01*
X1053129D01*
Y701902D01*
X1053546D01*
Y702735D01*
X1054379D01*
Y703152D01*
X1054796D01*
Y703568D01*
X1055629D01*
Y703985D01*
X1056878D01*
Y704401D01*
X1151436D01*
Y703985D01*
D02*
G37*
%LPC*%
G36*
X1568405Y678992D02*
X1542578D01*
Y654415D01*
X1542995D01*
Y653999D01*
X1565905D01*
Y654415D01*
X1568821D01*
Y654832D01*
X1570071D01*
Y655248D01*
X1570487D01*
Y655665D01*
X1571320D01*
Y656081D01*
X1571737D01*
Y656498D01*
X1572153D01*
Y656915D01*
X1572570D01*
Y657331D01*
X1572986D01*
Y658164D01*
X1573403D01*
Y658997D01*
X1573820D01*
Y660664D01*
X1574236D01*
Y672744D01*
X1573820D01*
Y674410D01*
X1573403D01*
Y675243D01*
X1572986D01*
Y676076D01*
X1572570D01*
Y676492D01*
X1572153D01*
Y676909D01*
X1571737D01*
Y677326D01*
X1571320D01*
Y677742D01*
X1570487D01*
Y678159D01*
X1569654D01*
Y678575D01*
X1568405D01*
Y678992D01*
D02*
G37*
G36*
X1331803D02*
X1305560D01*
Y624840D01*
X1331803D01*
Y625257D01*
X1333053D01*
Y625673D01*
X1333885D01*
Y626090D01*
X1334302D01*
Y626506D01*
X1335135D01*
Y626923D01*
X1335552D01*
Y627756D01*
X1335968D01*
Y628172D01*
X1336385D01*
Y629006D01*
X1336801D01*
Y630255D01*
X1337218D01*
Y673577D01*
X1336801D01*
Y673993D01*
Y674826D01*
X1336385D01*
Y675659D01*
X1335968D01*
Y676076D01*
X1335552D01*
Y676909D01*
X1335135D01*
Y677326D01*
X1334302D01*
Y677742D01*
X1333885D01*
Y678159D01*
X1333053D01*
Y678575D01*
X1331803D01*
Y678992D01*
D02*
G37*
G36*
X1197256D02*
X1171430D01*
Y654415D01*
X1171847D01*
Y653999D01*
X1172263D01*
Y654415D01*
X1172680D01*
Y653999D01*
X1194341D01*
Y654415D01*
X1197673D01*
Y654832D01*
X1198506D01*
Y655248D01*
X1199339D01*
Y655665D01*
X1200172D01*
Y656081D01*
X1200589D01*
Y656498D01*
X1201005D01*
Y656915D01*
X1201422D01*
Y657331D01*
X1201839D01*
Y658164D01*
X1202255D01*
Y658997D01*
X1202672D01*
Y660664D01*
X1203088D01*
Y672744D01*
X1202672D01*
Y674410D01*
X1202255D01*
Y675243D01*
X1201839D01*
Y676076D01*
X1201422D01*
Y676492D01*
X1201005D01*
Y676909D01*
X1200589D01*
Y677326D01*
X1200172D01*
Y677742D01*
X1199339D01*
Y678159D01*
X1198506D01*
Y678575D01*
X1197256D01*
Y678992D01*
D02*
G37*
G36*
X1151436Y700652D02*
X1056878D01*
Y700236D01*
X1056045D01*
Y699403D01*
X1055629D01*
Y698570D01*
X1055212D01*
Y605262D01*
X1055629D01*
Y604012D01*
X1056045D01*
Y603596D01*
X1056878D01*
Y603179D01*
X1151436D01*
Y603596D01*
X1152269D01*
Y604012D01*
X1152685D01*
Y604846D01*
X1153102D01*
Y698986D01*
X1152685D01*
Y699819D01*
X1152269D01*
Y700236D01*
X1151436D01*
Y700652D01*
D02*
G37*
%LPD*%
G36*
X1122277Y698153D02*
X1121861D01*
Y686906D01*
X1121444D01*
Y684824D01*
Y684407D01*
Y675659D01*
X1121027D01*
Y667328D01*
X1120194D01*
Y667745D01*
X1118945D01*
Y668161D01*
X1117695D01*
Y668578D01*
X1115612D01*
Y668161D01*
X1114362D01*
Y667745D01*
X1113946D01*
Y667328D01*
X1113529D01*
Y666912D01*
X1113113D01*
Y666079D01*
X1112696D01*
Y665246D01*
X1112280D01*
Y664829D01*
X1111863D01*
Y663996D01*
X1111030D01*
Y666079D01*
X1110614D01*
Y668578D01*
X1110197D01*
Y671077D01*
X1109780D01*
Y673577D01*
X1109364D01*
Y675659D01*
X1108947D01*
Y678159D01*
X1108531D01*
Y680658D01*
X1108114D01*
Y683157D01*
X1107698D01*
Y685657D01*
X1107281D01*
Y687739D01*
X1106865D01*
Y690239D01*
X1106448D01*
Y692738D01*
X1106031D01*
Y695237D01*
X1105615D01*
Y697737D01*
X1105198D01*
Y698986D01*
X1122277D01*
Y698153D01*
D02*
G37*
G36*
X1151019Y698570D02*
X1151436D01*
Y686906D01*
X1151019D01*
Y686073D01*
X1150603D01*
Y685240D01*
X1150186D01*
Y684407D01*
X1149770D01*
Y683574D01*
X1149353D01*
Y682741D01*
X1148936D01*
Y681908D01*
X1148520D01*
Y680658D01*
X1148103D01*
Y679825D01*
X1147687D01*
Y678992D01*
X1147270D01*
Y678159D01*
X1146854D01*
Y677326D01*
X1146437D01*
Y676492D01*
X1146021D01*
Y675659D01*
X1145604D01*
Y674410D01*
X1145187D01*
Y673577D01*
X1144771D01*
Y672744D01*
X1144354D01*
Y671910D01*
X1143938D01*
Y671077D01*
X1143521D01*
Y670244D01*
X1143105D01*
Y669411D01*
X1142688D01*
Y668578D01*
X1142271D01*
Y667328D01*
X1141855D01*
Y666495D01*
X1141438D01*
Y665662D01*
X1141022D01*
Y664829D01*
X1140605D01*
Y663996D01*
X1140189D01*
Y663163D01*
X1139772D01*
Y662330D01*
X1139356D01*
Y661497D01*
X1138939D01*
Y660664D01*
X1138106D01*
Y661080D01*
X1137273D01*
Y661497D01*
X1136023D01*
Y661913D01*
X1135190D01*
Y662330D01*
X1133941D01*
Y662746D01*
X1132691D01*
Y663163D01*
X1131858D01*
Y663579D01*
X1130608D01*
Y663996D01*
X1129775D01*
Y666079D01*
X1130191D01*
Y667745D01*
X1130608D01*
Y669411D01*
X1131025D01*
Y670244D01*
Y670661D01*
Y671494D01*
X1131441D01*
Y673160D01*
X1131858D01*
Y674826D01*
X1132274D01*
Y676909D01*
X1132691D01*
Y678575D01*
X1133107D01*
Y680241D01*
X1133524D01*
Y682324D01*
X1133941D01*
Y683990D01*
X1134357D01*
Y685657D01*
X1134774D01*
Y687739D01*
X1135190D01*
Y689406D01*
X1135607D01*
Y691072D01*
X1136023D01*
Y692738D01*
X1136440D01*
Y694821D01*
X1136856D01*
Y696487D01*
X1137273D01*
Y698153D01*
X1137689D01*
Y698986D01*
X1151019D01*
Y698570D01*
D02*
G37*
G36*
X1089786Y697737D02*
X1090202D01*
Y696487D01*
X1090619D01*
Y695237D01*
X1091036D01*
Y693988D01*
X1091452D01*
Y693155D01*
X1091869D01*
Y691905D01*
X1092285D01*
Y690655D01*
X1092702D01*
Y689406D01*
X1093118D01*
Y688572D01*
X1093535D01*
Y688156D01*
Y687739D01*
Y687323D01*
X1093951D01*
Y686073D01*
X1094368D01*
Y684824D01*
X1094785D01*
Y683990D01*
X1095201D01*
Y682741D01*
X1095618D01*
Y681491D01*
X1096034D01*
Y680658D01*
X1096451D01*
Y679408D01*
X1096867D01*
Y678159D01*
X1097284D01*
Y676909D01*
X1097700D01*
Y676076D01*
X1098117D01*
Y674826D01*
X1098533D01*
Y673577D01*
X1098950D01*
Y672327D01*
X1099367D01*
Y671494D01*
X1099783D01*
Y670244D01*
X1100200D01*
Y668995D01*
X1100616D01*
Y667745D01*
X1101033D01*
Y666495D01*
X1101449D01*
Y665662D01*
X1101866D01*
Y664413D01*
X1102282D01*
Y663163D01*
X1102699D01*
Y661913D01*
X1103116D01*
Y661080D01*
X1103532D01*
Y659830D01*
X1103949D01*
Y658581D01*
X1104365D01*
Y657331D01*
X1104782D01*
Y655665D01*
X1104365D01*
Y655248D01*
X1103532D01*
Y654832D01*
X1103116D01*
Y654415D01*
X1102699D01*
Y653999D01*
X1101866D01*
Y653582D01*
X1101449D01*
Y653166D01*
X1100616D01*
Y652749D01*
X1100200D01*
Y652333D01*
X1099367D01*
Y651916D01*
X1097700D01*
Y652749D01*
X1097284D01*
Y653166D01*
X1096867D01*
Y653999D01*
X1096451D01*
Y654415D01*
X1096034D01*
Y655248D01*
X1095618D01*
Y656081D01*
X1095201D01*
Y656498D01*
X1094785D01*
Y657331D01*
X1094368D01*
Y658164D01*
X1093951D01*
Y658581D01*
X1093535D01*
Y659414D01*
X1093118D01*
Y659830D01*
X1092702D01*
Y660664D01*
X1092285D01*
Y661497D01*
X1091869D01*
Y661913D01*
X1091452D01*
Y662746D01*
X1091036D01*
Y663579D01*
X1090619D01*
Y663996D01*
X1090202D01*
Y664829D01*
X1089786D01*
Y665246D01*
X1089369D01*
Y666079D01*
X1088953D01*
Y666912D01*
X1088536D01*
Y667328D01*
X1088120D01*
Y668161D01*
X1087703D01*
Y668578D01*
X1087287D01*
Y669411D01*
X1086870D01*
Y670244D01*
X1086453D01*
Y670661D01*
X1086037D01*
Y671494D01*
X1085620D01*
Y672327D01*
X1085204D01*
Y672744D01*
X1084787D01*
Y673577D01*
X1084371D01*
Y673993D01*
X1083954D01*
Y674826D01*
X1083538D01*
Y675659D01*
X1083121D01*
Y676076D01*
X1082704D01*
Y676909D01*
X1082288D01*
Y677742D01*
X1081871D01*
Y678159D01*
X1081455D01*
Y678992D01*
X1081038D01*
Y679408D01*
X1080622D01*
Y680241D01*
X1080205D01*
Y681075D01*
X1079789D01*
Y681491D01*
X1079372D01*
Y682324D01*
X1078956D01*
Y682741D01*
X1078539D01*
Y683574D01*
X1078122D01*
Y684407D01*
X1077706D01*
Y684824D01*
X1077289D01*
Y685657D01*
X1076873D01*
Y686073D01*
X1076456D01*
Y686906D01*
X1076040D01*
Y687739D01*
X1075623D01*
Y688156D01*
X1075207D01*
Y688989D01*
X1074790D01*
Y689822D01*
X1074373D01*
Y690239D01*
X1073957D01*
Y691072D01*
X1073540D01*
Y691488D01*
X1073124D01*
Y692321D01*
X1072707D01*
Y693155D01*
X1072291D01*
Y693571D01*
X1071874D01*
Y694404D01*
X1071458D01*
Y694821D01*
X1071041D01*
Y695654D01*
X1070624D01*
Y696487D01*
X1070208D01*
Y696904D01*
X1069791D01*
Y697737D01*
X1069375D01*
Y698570D01*
X1068958D01*
Y698986D01*
X1089786D01*
Y697737D01*
D02*
G37*
G36*
X1057711Y683990D02*
X1058128D01*
Y683574D01*
X1058544D01*
Y683157D01*
X1058961D01*
Y682741D01*
X1059378D01*
Y682324D01*
X1059794D01*
Y681908D01*
X1060211D01*
Y681491D01*
X1060627D01*
Y680658D01*
X1061044D01*
Y680241D01*
X1061460D01*
Y679825D01*
X1061877D01*
Y679408D01*
X1062293D01*
Y678992D01*
X1062710D01*
Y678575D01*
X1063127D01*
Y678159D01*
X1063543D01*
Y677742D01*
X1063960D01*
Y677326D01*
X1064376D01*
Y676909D01*
X1064793D01*
Y676492D01*
X1065209D01*
Y676076D01*
X1065626D01*
Y675243D01*
X1066042D01*
Y674826D01*
X1066459D01*
Y674410D01*
X1066876D01*
Y673993D01*
X1067292D01*
Y673577D01*
X1067709D01*
Y673160D01*
X1068125D01*
Y672744D01*
X1068542D01*
Y672327D01*
X1068958D01*
Y671910D01*
X1069375D01*
Y671494D01*
X1069791D01*
Y671077D01*
X1070208D01*
Y670661D01*
X1070624D01*
Y670244D01*
X1071041D01*
Y669411D01*
X1071458D01*
Y668995D01*
X1071874D01*
Y668578D01*
X1072291D01*
Y668161D01*
X1072707D01*
Y667745D01*
X1073124D01*
Y667328D01*
X1073540D01*
Y666912D01*
X1073957D01*
Y666495D01*
X1074373D01*
Y666079D01*
X1074790D01*
Y665662D01*
X1075207D01*
Y665246D01*
X1075623D01*
Y664829D01*
X1076040D01*
Y664413D01*
X1076456D01*
Y663996D01*
X1076873D01*
Y663163D01*
X1077289D01*
Y662746D01*
X1077706D01*
Y662330D01*
X1078122D01*
Y661913D01*
X1078539D01*
Y661497D01*
X1078956D01*
Y661080D01*
X1079372D01*
Y660664D01*
X1079789D01*
Y660247D01*
X1080205D01*
Y659830D01*
X1080622D01*
Y659414D01*
X1081038D01*
Y658997D01*
X1081455D01*
Y658581D01*
X1081871D01*
Y657748D01*
X1082288D01*
Y657331D01*
X1082704D01*
Y656915D01*
X1083121D01*
Y656498D01*
X1083538D01*
Y656081D01*
X1083954D01*
Y655665D01*
X1084371D01*
Y655248D01*
X1084787D01*
Y654832D01*
X1085204D01*
Y654415D01*
X1085620D01*
Y653999D01*
X1086037D01*
Y653582D01*
X1086453D01*
Y653166D01*
X1086870D01*
Y652749D01*
X1087287D01*
Y651916D01*
X1087703D01*
Y651499D01*
X1088120D01*
Y651083D01*
X1088536D01*
Y650666D01*
X1088953D01*
Y650250D01*
X1089369D01*
Y649833D01*
X1089786D01*
Y649417D01*
X1084787D01*
Y649833D01*
X1083121D01*
Y650250D01*
X1082288D01*
Y650666D01*
X1081455D01*
Y651083D01*
X1080205D01*
Y651499D01*
X1078122D01*
Y651083D01*
X1077289D01*
Y650666D01*
X1076873D01*
Y650250D01*
X1076456D01*
Y649833D01*
X1076040D01*
Y649417D01*
X1075623D01*
Y649000D01*
X1074790D01*
Y649417D01*
X1074373D01*
Y649833D01*
X1073540D01*
Y650250D01*
X1073124D01*
Y650666D01*
X1072291D01*
Y651083D01*
X1071874D01*
Y651499D01*
X1071041D01*
Y651916D01*
X1070624D01*
Y652333D01*
X1070208D01*
Y652749D01*
X1069375D01*
Y653166D01*
X1068958D01*
Y653582D01*
X1068125D01*
Y653999D01*
X1067709D01*
Y654415D01*
X1066876D01*
Y654832D01*
X1066459D01*
Y655248D01*
X1066042D01*
Y655665D01*
X1065209D01*
Y656081D01*
X1064793D01*
Y656498D01*
X1063960D01*
Y656915D01*
X1063543D01*
Y657331D01*
X1062710D01*
Y657748D01*
X1062293D01*
Y658164D01*
X1061877D01*
Y658581D01*
X1061044D01*
Y658997D01*
X1060627D01*
Y659414D01*
X1059794D01*
Y659830D01*
X1059378D01*
Y660247D01*
X1058961D01*
Y660664D01*
X1058128D01*
Y661080D01*
X1057711D01*
Y661497D01*
X1057295D01*
Y661913D01*
X1056878D01*
Y684407D01*
X1057711D01*
Y683990D01*
D02*
G37*
G36*
X1118111Y666079D02*
X1119361D01*
Y665662D01*
X1120611D01*
Y665246D01*
X1121861D01*
Y664829D01*
X1122694D01*
Y664413D01*
X1123943D01*
Y663996D01*
X1125193D01*
Y663579D01*
X1126442D01*
Y663163D01*
X1127276D01*
Y662746D01*
X1128525D01*
Y662330D01*
X1129775D01*
Y661913D01*
X1130608D01*
Y661497D01*
X1131858D01*
Y661080D01*
X1133107D01*
Y660664D01*
X1133941D01*
Y660247D01*
X1135190D01*
Y659830D01*
X1136440D01*
Y659414D01*
X1137273D01*
Y658997D01*
X1138522D01*
Y658581D01*
X1139356D01*
Y658164D01*
X1140605D01*
Y657748D01*
X1141438D01*
Y657331D01*
X1142271D01*
Y656915D01*
X1142688D01*
Y656498D01*
X1143105D01*
Y656081D01*
X1143521D01*
Y655665D01*
X1143938D01*
Y655248D01*
X1144354D01*
Y654415D01*
X1144771D01*
Y653999D01*
X1145187D01*
Y652749D01*
X1145604D01*
Y651499D01*
X1146437D01*
Y651916D01*
X1147270D01*
Y652333D01*
X1148103D01*
Y652749D01*
X1148936D01*
Y653166D01*
X1149353D01*
Y653582D01*
X1150186D01*
Y653999D01*
X1151019D01*
Y654415D01*
X1151436D01*
Y650250D01*
X1150603D01*
Y649833D01*
X1149770D01*
Y649417D01*
X1148936D01*
Y649000D01*
X1148520D01*
Y648584D01*
X1147687D01*
Y648167D01*
X1146854D01*
Y647750D01*
X1146437D01*
Y639836D01*
X1146021D01*
Y636920D01*
X1145604D01*
Y634837D01*
X1145187D01*
Y633588D01*
X1144771D01*
Y633171D01*
X1144354D01*
Y632755D01*
X1143938D01*
Y632338D01*
X1143521D01*
Y631921D01*
X1143105D01*
Y631505D01*
X1142271D01*
Y631088D01*
X1141438D01*
Y630672D01*
X1141022D01*
Y630255D01*
X1140189D01*
Y629839D01*
X1139356D01*
Y629422D01*
X1138522D01*
Y629006D01*
X1138106D01*
Y628589D01*
X1137273D01*
Y628172D01*
X1136440D01*
Y627756D01*
X1135607D01*
Y627339D01*
X1135190D01*
Y626923D01*
X1134357D01*
Y626506D01*
X1133524D01*
Y626090D01*
X1132691D01*
Y625673D01*
X1132274D01*
Y625257D01*
X1131441D01*
Y624840D01*
X1130608D01*
Y624423D01*
X1129775D01*
Y624007D01*
X1129358D01*
Y623590D01*
X1128525D01*
Y623174D01*
X1127692D01*
Y622757D01*
X1127276D01*
Y622341D01*
X1126442D01*
Y621924D01*
X1125609D01*
Y621508D01*
X1124776D01*
Y621091D01*
X1124360D01*
Y620675D01*
X1123527D01*
Y620258D01*
X1122694D01*
Y619841D01*
X1121861D01*
Y619425D01*
X1121444D01*
Y619008D01*
X1120611D01*
Y618592D01*
X1119778D01*
Y618175D01*
X1119361D01*
Y617759D01*
X1118528D01*
Y617342D01*
X1117695D01*
Y616926D01*
X1116862D01*
Y616509D01*
X1116445D01*
Y616092D01*
X1115612D01*
Y615676D01*
X1114779D01*
Y615259D01*
X1113946D01*
Y614843D01*
X1113529D01*
Y614426D01*
X1112696D01*
Y614010D01*
X1111863D01*
Y613593D01*
X1111447D01*
Y613176D01*
X1110614D01*
Y612760D01*
X1109780D01*
Y612343D01*
X1108947D01*
Y611927D01*
X1108531D01*
Y611510D01*
X1107698D01*
Y611094D01*
X1106865D01*
Y610677D01*
X1106031D01*
Y610261D01*
X1105615D01*
Y609844D01*
X1104782D01*
Y609428D01*
X1103949D01*
Y609011D01*
X1103116D01*
Y608595D01*
X1102699D01*
Y608178D01*
X1101866D01*
Y607761D01*
X1101033D01*
Y607345D01*
X1098117D01*
Y607761D01*
X1097284D01*
Y608178D01*
X1096451D01*
Y608595D01*
X1096034D01*
Y609011D01*
X1095201D01*
Y609428D01*
X1094785D01*
Y609844D01*
X1093951D01*
Y610261D01*
X1093535D01*
Y610677D01*
X1092702D01*
Y611094D01*
X1092285D01*
Y611510D01*
X1091452D01*
Y611927D01*
X1090619D01*
Y612343D01*
X1090202D01*
Y612760D01*
X1089369D01*
Y613176D01*
X1088953D01*
Y613593D01*
X1088120D01*
Y614010D01*
X1087703D01*
Y614426D01*
X1086870D01*
Y614843D01*
X1086453D01*
Y614426D01*
X1085620D01*
Y614010D01*
X1084787D01*
Y613593D01*
X1084371D01*
Y613176D01*
X1083538D01*
Y612760D01*
X1082704D01*
Y612343D01*
X1081871D01*
Y611927D01*
X1081038D01*
Y611510D01*
X1080622D01*
Y611094D01*
X1079789D01*
Y610677D01*
X1078956D01*
Y610261D01*
X1078122D01*
Y609844D01*
X1077289D01*
Y609428D01*
X1076456D01*
Y609011D01*
X1076040D01*
Y608595D01*
X1075207D01*
Y608178D01*
X1074373D01*
Y607761D01*
X1073540D01*
Y607345D01*
X1072707D01*
Y606928D01*
X1071874D01*
Y606512D01*
X1071458D01*
Y606095D01*
X1070624D01*
Y605679D01*
X1069791D01*
Y605262D01*
X1068958D01*
Y604846D01*
X1068125D01*
Y604429D01*
X1065626D01*
Y604846D01*
X1065209D01*
Y604429D01*
X1063127D01*
Y604846D01*
X1062710D01*
Y604429D01*
X1062293D01*
Y604846D01*
X1061877D01*
Y605262D01*
X1062710D01*
Y605679D01*
X1063127D01*
Y606095D01*
X1063960D01*
Y606512D01*
X1064793D01*
Y606928D01*
X1065626D01*
Y607345D01*
X1066459D01*
Y607761D01*
X1067292D01*
Y608178D01*
X1067709D01*
Y608595D01*
X1068542D01*
Y609011D01*
X1069375D01*
Y609428D01*
X1070208D01*
Y609844D01*
X1071041D01*
Y610261D01*
X1071458D01*
Y610677D01*
X1072291D01*
Y611094D01*
X1073124D01*
Y611510D01*
X1073957D01*
Y611927D01*
X1074790D01*
Y612343D01*
X1075623D01*
Y612760D01*
X1076040D01*
Y613176D01*
X1076873D01*
Y613593D01*
X1077706D01*
Y614010D01*
X1078539D01*
Y614426D01*
X1079372D01*
Y614843D01*
X1080205D01*
Y615259D01*
X1080622D01*
Y615676D01*
X1081455D01*
Y616092D01*
X1082288D01*
Y616509D01*
X1083121D01*
Y617342D01*
X1082704D01*
Y617759D01*
X1081871D01*
Y618175D01*
X1081455D01*
Y618592D01*
X1080622D01*
Y619008D01*
X1080205D01*
Y619425D01*
X1079372D01*
Y619841D01*
X1078956D01*
Y620258D01*
X1078122D01*
Y620675D01*
X1077706D01*
Y621091D01*
X1077289D01*
Y621508D01*
X1076873D01*
Y621924D01*
X1076456D01*
Y622757D01*
X1076040D01*
Y623174D01*
X1075623D01*
Y624423D01*
X1075207D01*
Y625257D01*
X1074790D01*
Y626090D01*
X1074373D01*
Y627339D01*
X1073957D01*
Y628589D01*
X1073540D01*
Y630255D01*
X1073124D01*
Y632755D01*
X1072707D01*
Y637753D01*
X1073124D01*
Y640252D01*
X1073540D01*
Y641919D01*
X1073957D01*
Y643168D01*
X1074373D01*
Y644001D01*
X1074790D01*
Y644835D01*
X1075207D01*
Y645668D01*
X1075623D01*
Y646501D01*
X1076040D01*
Y646917D01*
X1076456D01*
Y647334D01*
X1076873D01*
Y648167D01*
X1077289D01*
Y648584D01*
X1077706D01*
Y649000D01*
X1078122D01*
Y649417D01*
X1080622D01*
Y649000D01*
X1081455D01*
Y648584D01*
X1082288D01*
Y648167D01*
X1083954D01*
Y647750D01*
X1086037D01*
Y647334D01*
X1091452D01*
Y647750D01*
X1093535D01*
Y648167D01*
X1095201D01*
Y648584D01*
X1096451D01*
Y649000D01*
X1097284D01*
Y649417D01*
X1098533D01*
Y649833D01*
X1099367D01*
Y650250D01*
X1100200D01*
Y650666D01*
X1101033D01*
Y651083D01*
X1101449D01*
Y651499D01*
X1102282D01*
Y651916D01*
X1102699D01*
Y652333D01*
X1103532D01*
Y652749D01*
X1103949D01*
Y653166D01*
X1104782D01*
Y653582D01*
X1105198D01*
Y653999D01*
X1105615D01*
Y654415D01*
X1106031D01*
Y654832D01*
X1106448D01*
Y655248D01*
X1106865D01*
Y655665D01*
X1107698D01*
Y656081D01*
X1108114D01*
Y656498D01*
X1108531D01*
Y656915D01*
X1108947D01*
Y657748D01*
X1109364D01*
Y658164D01*
X1109780D01*
Y658581D01*
X1110197D01*
Y658997D01*
X1110614D01*
Y659414D01*
X1111030D01*
Y660247D01*
X1111447D01*
Y660664D01*
X1111863D01*
Y661080D01*
X1112280D01*
Y661913D01*
X1112696D01*
Y662330D01*
X1113113D01*
Y663163D01*
X1113529D01*
Y663996D01*
X1113946D01*
Y664413D01*
X1114362D01*
Y665246D01*
X1114779D01*
Y666079D01*
X1115612D01*
Y666495D01*
X1118111D01*
Y666079D01*
D02*
G37*
G36*
X1058128Y646501D02*
X1058961D01*
Y646084D01*
X1059794D01*
Y645668D01*
X1060627D01*
Y645251D01*
X1061460D01*
Y644835D01*
X1062710D01*
Y644418D01*
X1063543D01*
Y644001D01*
X1064376D01*
Y643585D01*
X1065209D01*
Y643168D01*
X1066042D01*
Y642752D01*
X1066876D01*
Y642335D01*
X1067709D01*
Y641919D01*
X1068542D01*
Y641502D01*
X1069375D01*
Y641086D01*
X1070624D01*
Y640669D01*
X1071041D01*
Y640252D01*
X1071458D01*
Y639419D01*
X1071041D01*
Y631505D01*
X1071458D01*
Y629422D01*
X1069791D01*
Y629839D01*
X1067709D01*
Y630255D01*
X1066042D01*
Y630672D01*
X1064376D01*
Y631088D01*
X1062293D01*
Y631505D01*
X1060627D01*
Y631921D01*
X1058961D01*
Y632338D01*
X1057295D01*
Y632755D01*
X1056878D01*
Y646917D01*
X1058128D01*
Y646501D01*
D02*
G37*
%LPC*%
G36*
X1101449D02*
X1099367D01*
Y646084D01*
X1098533D01*
Y645668D01*
X1097284D01*
Y645251D01*
X1096034D01*
Y644835D01*
X1094785D01*
Y644418D01*
X1092702D01*
Y644001D01*
X1084371D01*
Y644418D01*
X1082704D01*
Y644835D01*
X1081455D01*
Y645251D01*
X1080205D01*
Y645668D01*
X1079372D01*
Y644835D01*
X1078956D01*
Y644418D01*
X1078539D01*
Y643585D01*
X1078122D01*
Y642752D01*
X1077706D01*
Y641919D01*
X1077289D01*
Y640669D01*
X1076873D01*
Y639003D01*
X1076456D01*
Y631921D01*
X1076873D01*
Y629839D01*
X1077289D01*
Y628589D01*
X1077706D01*
Y627339D01*
X1078122D01*
Y626506D01*
X1078539D01*
Y625673D01*
X1078956D01*
Y624840D01*
X1079372D01*
Y624007D01*
X1079789D01*
Y623590D01*
X1080205D01*
Y623174D01*
X1081038D01*
Y622757D01*
X1081455D01*
Y622341D01*
X1082288D01*
Y621924D01*
X1082704D01*
Y621508D01*
X1083538D01*
Y621091D01*
X1083954D01*
Y620675D01*
X1084787D01*
Y620258D01*
X1085204D01*
Y619841D01*
X1085620D01*
Y619425D01*
X1086453D01*
Y619008D01*
X1086870D01*
Y618592D01*
X1087703D01*
Y618175D01*
X1088536D01*
Y617759D01*
X1088953D01*
Y617342D01*
X1089786D01*
Y616926D01*
X1090202D01*
Y616509D01*
X1091036D01*
Y616092D01*
X1091452D01*
Y615676D01*
X1092285D01*
Y615259D01*
X1092702D01*
Y614843D01*
X1093535D01*
Y614426D01*
X1093951D01*
Y614010D01*
X1094785D01*
Y613593D01*
X1095201D01*
Y613176D01*
X1096034D01*
Y612760D01*
X1096451D01*
Y612343D01*
X1097284D01*
Y611927D01*
X1098117D01*
Y611510D01*
X1098533D01*
Y611094D01*
X1099367D01*
Y610677D01*
X1099783D01*
Y611094D01*
X1100616D01*
Y611510D01*
X1101449D01*
Y611927D01*
X1102282D01*
Y612343D01*
X1102699D01*
Y612760D01*
X1103532D01*
Y613176D01*
X1104365D01*
Y613593D01*
X1104782D01*
Y614010D01*
X1105615D01*
Y614426D01*
X1106448D01*
Y614843D01*
X1107281D01*
Y615259D01*
X1107698D01*
Y615676D01*
X1108531D01*
Y616092D01*
X1109364D01*
Y616509D01*
X1110197D01*
Y616926D01*
X1110614D01*
Y617342D01*
X1111447D01*
Y617759D01*
X1112280D01*
Y618175D01*
X1112696D01*
Y618592D01*
X1113529D01*
Y619008D01*
X1114362D01*
Y619425D01*
X1115196D01*
Y619841D01*
X1115612D01*
Y620258D01*
X1116445D01*
Y620675D01*
X1117278D01*
Y621091D01*
X1118111D01*
Y621508D01*
X1118528D01*
Y621924D01*
X1119361D01*
Y622341D01*
X1120194D01*
Y622757D01*
X1120611D01*
Y623174D01*
X1121027D01*
Y628172D01*
X1120611D01*
Y633171D01*
X1120194D01*
Y636503D01*
X1119361D01*
Y636087D01*
X1118528D01*
Y635670D01*
X1117695D01*
Y635254D01*
X1116445D01*
Y634837D01*
X1114779D01*
Y634421D01*
X1113113D01*
Y634004D01*
X1110197D01*
Y633588D01*
X1107281D01*
Y634004D01*
X1104365D01*
Y634421D01*
X1102699D01*
Y634837D01*
X1101866D01*
Y635254D01*
X1100616D01*
Y635670D01*
X1100200D01*
Y635254D01*
X1099783D01*
Y634421D01*
X1099367D01*
Y634004D01*
X1098950D01*
Y633171D01*
X1098533D01*
Y632755D01*
X1098117D01*
Y631921D01*
X1097700D01*
Y631088D01*
X1097284D01*
Y630255D01*
X1096867D01*
Y629006D01*
X1096451D01*
Y627756D01*
X1096034D01*
Y626090D01*
X1095618D01*
Y621924D01*
X1095201D01*
Y620675D01*
X1095618D01*
Y616926D01*
X1096034D01*
Y615259D01*
X1095618D01*
Y616092D01*
X1095201D01*
Y617759D01*
X1094785D01*
Y619841D01*
X1094368D01*
Y626923D01*
X1094785D01*
Y629006D01*
X1095201D01*
Y630255D01*
X1095618D01*
Y631505D01*
X1096034D01*
Y632338D01*
X1096451D01*
Y633171D01*
X1096867D01*
Y634004D01*
X1097284D01*
Y634837D01*
X1097700D01*
Y635254D01*
X1098117D01*
Y636087D01*
X1098533D01*
Y636503D01*
X1098117D01*
Y636920D01*
X1097700D01*
Y637337D01*
X1096867D01*
Y637753D01*
X1096034D01*
Y638170D01*
X1095201D01*
Y638586D01*
X1094368D01*
Y639003D01*
X1093535D01*
Y639419D01*
X1092702D01*
Y639836D01*
X1092285D01*
Y640252D01*
X1091452D01*
Y640669D01*
X1090619D01*
Y641086D01*
X1089786D01*
Y641502D01*
X1088953D01*
Y641919D01*
X1088120D01*
Y642335D01*
X1089369D01*
Y641919D01*
X1090619D01*
Y641502D01*
X1091452D01*
Y641086D01*
X1092702D01*
Y640669D01*
X1093535D01*
Y640252D01*
X1094785D01*
Y639836D01*
X1095618D01*
Y639419D01*
X1096867D01*
Y639003D01*
X1097700D01*
Y638586D01*
X1098950D01*
Y638170D01*
X1099783D01*
Y637753D01*
X1101033D01*
Y637337D01*
X1101866D01*
Y636920D01*
X1102699D01*
Y636503D01*
X1104365D01*
Y636087D01*
X1106448D01*
Y635670D01*
X1111030D01*
Y636087D01*
X1111863D01*
Y636503D01*
X1111447D01*
Y636920D01*
X1110614D01*
Y637337D01*
X1110197D01*
Y637753D01*
X1109364D01*
Y638170D01*
X1108531D01*
Y638586D01*
X1108114D01*
Y639003D01*
X1107281D01*
Y639419D01*
X1106865D01*
Y639836D01*
X1106031D01*
Y640252D01*
X1105198D01*
Y640669D01*
X1106448D01*
Y640252D01*
X1107281D01*
Y639836D01*
X1108531D01*
Y639419D01*
X1109364D01*
Y639003D01*
X1110614D01*
Y638586D01*
X1111447D01*
Y638170D01*
X1112280D01*
Y637753D01*
X1113529D01*
Y637337D01*
X1114362D01*
Y636920D01*
X1116445D01*
Y637337D01*
X1117695D01*
Y637753D01*
X1118111D01*
Y638586D01*
X1117278D01*
Y639003D01*
X1116445D01*
Y639419D01*
X1115612D01*
Y639836D01*
X1114362D01*
Y640252D01*
X1113529D01*
Y640669D01*
X1112696D01*
Y641086D01*
X1111863D01*
Y641502D01*
X1111030D01*
Y641919D01*
X1110197D01*
Y642335D01*
X1109364D01*
Y642752D01*
X1108531D01*
Y643168D01*
X1107698D01*
Y643585D01*
X1106865D01*
Y644001D01*
X1105615D01*
Y644418D01*
X1104782D01*
Y644835D01*
X1103949D01*
Y645251D01*
X1103116D01*
Y645668D01*
X1102282D01*
Y646084D01*
X1101449D01*
Y646501D01*
D02*
G37*
G36*
X1118111Y662746D02*
X1117278D01*
Y662330D01*
X1116862D01*
Y661913D01*
X1116445D01*
Y661080D01*
X1116029D01*
Y660664D01*
X1115612D01*
Y659830D01*
X1115196D01*
Y659414D01*
X1114779D01*
Y658581D01*
X1114362D01*
Y658164D01*
X1113946D01*
Y657748D01*
X1113529D01*
Y656915D01*
X1113113D01*
Y656498D01*
X1112696D01*
Y656081D01*
X1112280D01*
Y655665D01*
X1111863D01*
Y655248D01*
X1111447D01*
Y654832D01*
X1111030D01*
Y654415D01*
X1110614D01*
Y653999D01*
X1110197D01*
Y653582D01*
X1109780D01*
Y653166D01*
X1109364D01*
Y652749D01*
X1108947D01*
Y652333D01*
X1108531D01*
Y651916D01*
X1108114D01*
Y651499D01*
X1107698D01*
Y651083D01*
X1106865D01*
Y650666D01*
X1106448D01*
Y650250D01*
X1106031D01*
Y649833D01*
X1105198D01*
Y649417D01*
X1104782D01*
Y649000D01*
X1103949D01*
Y648584D01*
X1103532D01*
Y648167D01*
X1103116D01*
Y647750D01*
X1103532D01*
Y647334D01*
X1104365D01*
Y646917D01*
X1105198D01*
Y646501D01*
X1106031D01*
Y646084D01*
X1107281D01*
Y645668D01*
X1108114D01*
Y645251D01*
X1108947D01*
Y644835D01*
X1109780D01*
Y644418D01*
X1110614D01*
Y644001D01*
X1111447D01*
Y643585D01*
X1112280D01*
Y643168D01*
X1113113D01*
Y642752D01*
X1113946D01*
Y642335D01*
X1115196D01*
Y641919D01*
X1116029D01*
Y641502D01*
X1116862D01*
Y641086D01*
X1117695D01*
Y640669D01*
X1118528D01*
Y640252D01*
X1119361D01*
Y639836D01*
X1120194D01*
Y639419D01*
X1121861D01*
Y639836D01*
X1122277D01*
Y640252D01*
X1123110D01*
Y640669D01*
X1123527D01*
Y641502D01*
X1122694D01*
Y641919D01*
X1121861D01*
Y642335D01*
X1121027D01*
Y642752D01*
X1120194D01*
Y643168D01*
X1119361D01*
Y643585D01*
X1118528D01*
Y644001D01*
X1117695D01*
Y644418D01*
X1117278D01*
Y644835D01*
X1116445D01*
Y645251D01*
X1115612D01*
Y645668D01*
X1114779D01*
Y646084D01*
X1113946D01*
Y646501D01*
X1113113D01*
Y646917D01*
X1112280D01*
Y647334D01*
X1111863D01*
Y647750D01*
X1111030D01*
Y648167D01*
X1111863D01*
Y647750D01*
X1112696D01*
Y647334D01*
X1113529D01*
Y646917D01*
X1114362D01*
Y646501D01*
X1115612D01*
Y646084D01*
X1116445D01*
Y645668D01*
X1117278D01*
Y645251D01*
X1118111D01*
Y644835D01*
X1118945D01*
Y644418D01*
X1120194D01*
Y644001D01*
X1121027D01*
Y643585D01*
X1121861D01*
Y643168D01*
X1122694D01*
Y642752D01*
X1123943D01*
Y642335D01*
X1124776D01*
Y641919D01*
X1125609D01*
Y642335D01*
X1126442D01*
Y642752D01*
X1126859D01*
Y643168D01*
X1127276D01*
Y643585D01*
X1127692D01*
Y644001D01*
X1126859D01*
Y644418D01*
X1126026D01*
Y644835D01*
X1125609D01*
Y645251D01*
X1124776D01*
Y645668D01*
X1123943D01*
Y646084D01*
X1123110D01*
Y646501D01*
X1122277D01*
Y646917D01*
X1121444D01*
Y647334D01*
X1120611D01*
Y647750D01*
X1119778D01*
Y648167D01*
X1119361D01*
Y648584D01*
X1118528D01*
Y649000D01*
X1117695D01*
Y649417D01*
X1118945D01*
Y649000D01*
X1119778D01*
Y648584D01*
X1120611D01*
Y648167D01*
X1121861D01*
Y647750D01*
X1122694D01*
Y647334D01*
X1123527D01*
Y646917D01*
X1124360D01*
Y646501D01*
X1125609D01*
Y646084D01*
X1126442D01*
Y645668D01*
X1127276D01*
Y645251D01*
X1128525D01*
Y644835D01*
X1129358D01*
Y645251D01*
X1129775D01*
Y645668D01*
X1130191D01*
Y646084D01*
X1130608D01*
Y646501D01*
X1131025D01*
Y646917D01*
X1131441D01*
Y647334D01*
X1131858D01*
Y647750D01*
X1132274D01*
Y648167D01*
X1132691D01*
Y648584D01*
X1133107D01*
Y649417D01*
X1133524D01*
Y649833D01*
X1133941D01*
Y650250D01*
X1134357D01*
Y650666D01*
X1134774D01*
Y651083D01*
X1135190D01*
Y650250D01*
X1134774D01*
Y649833D01*
X1134357D01*
Y649000D01*
X1133941D01*
Y648584D01*
X1133524D01*
Y648167D01*
X1133107D01*
Y647334D01*
X1132691D01*
Y646917D01*
X1132274D01*
Y646501D01*
X1131858D01*
Y646084D01*
X1131441D01*
Y645251D01*
X1131025D01*
Y644835D01*
X1130608D01*
Y644418D01*
X1130191D01*
Y644001D01*
X1129775D01*
Y643585D01*
X1129358D01*
Y643168D01*
X1128942D01*
Y642752D01*
X1128525D01*
Y642335D01*
X1128109D01*
Y641919D01*
X1127692D01*
Y641502D01*
X1126859D01*
Y641086D01*
X1126442D01*
Y640669D01*
X1126026D01*
Y640252D01*
X1125609D01*
Y639836D01*
X1125193D01*
Y639419D01*
X1124360D01*
Y639003D01*
X1123943D01*
Y638586D01*
X1123110D01*
Y638170D01*
X1122277D01*
Y632755D01*
X1122694D01*
Y627756D01*
X1123110D01*
Y624423D01*
X1123527D01*
Y624840D01*
X1124360D01*
Y625257D01*
X1125193D01*
Y625673D01*
X1126026D01*
Y626090D01*
X1126442D01*
Y626506D01*
X1127276D01*
Y626923D01*
X1128109D01*
Y627339D01*
X1128525D01*
Y627756D01*
X1129358D01*
Y628172D01*
X1130191D01*
Y628589D01*
X1131025D01*
Y629006D01*
X1131441D01*
Y629422D01*
X1132274D01*
Y629839D01*
X1133107D01*
Y630255D01*
X1133941D01*
Y630672D01*
X1134357D01*
Y631088D01*
X1135190D01*
Y631505D01*
X1136023D01*
Y631921D01*
X1136856D01*
Y632338D01*
X1137273D01*
Y632755D01*
X1138106D01*
Y633171D01*
X1138939D01*
Y633588D01*
X1139772D01*
Y634004D01*
X1140189D01*
Y634421D01*
X1141022D01*
Y634837D01*
X1141855D01*
Y636087D01*
X1142271D01*
Y638170D01*
X1142688D01*
Y641502D01*
X1143105D01*
Y648584D01*
X1142688D01*
Y650666D01*
X1142271D01*
Y651916D01*
X1141855D01*
Y652749D01*
X1141438D01*
Y653166D01*
X1141022D01*
Y653582D01*
X1140605D01*
Y653999D01*
X1140189D01*
Y654415D01*
X1139356D01*
Y654832D01*
X1138522D01*
Y655248D01*
X1137273D01*
Y655665D01*
X1136440D01*
Y656081D01*
X1135190D01*
Y656498D01*
X1133941D01*
Y656915D01*
X1133107D01*
Y657331D01*
X1131858D01*
Y657748D01*
X1130608D01*
Y658164D01*
X1129775D01*
Y658581D01*
X1128525D01*
Y658997D01*
X1127276D01*
Y659414D01*
X1126442D01*
Y659830D01*
X1125193D01*
Y660247D01*
X1123943D01*
Y660664D01*
X1122694D01*
Y661080D01*
X1121861D01*
Y661497D01*
X1120611D01*
Y661913D01*
X1119361D01*
Y662330D01*
X1118111D01*
Y662746D01*
D02*
G37*
%LPD*%
G36*
X1088120Y642335D02*
X1087703D01*
Y642752D01*
X1088120D01*
Y642335D01*
D02*
G37*
G36*
X1135607Y651499D02*
Y651083D01*
X1135190D01*
Y651916D01*
X1135607D01*
Y651499D01*
D02*
G37*
G36*
X1116029Y650250D02*
X1116862D01*
Y649833D01*
X1117695D01*
Y649417D01*
X1116862D01*
Y649833D01*
X1116029D01*
Y650250D01*
X1115196D01*
Y650666D01*
X1116029D01*
Y650250D01*
D02*
G37*
G36*
X1109780Y648584D02*
X1109364D01*
Y649000D01*
X1109780D01*
Y648584D01*
D02*
G37*
G36*
X1110614Y648167D02*
X1110197D01*
Y648584D01*
X1110614D01*
Y648167D01*
D02*
G37*
D10*
X581220Y1033620D02*
G03*
X581220Y1033620I-27500J0D01*
G01*
X380720Y477520D02*
G03*
X380720Y477520I-27500J0D01*
G01*
X1607540Y1010920D02*
G03*
X1607540Y1010920I-27500J0D01*
G01*
X290150Y1254800D02*
G03*
X291150Y1254800I500J0D01*
G01*
D02*
G03*
X290150Y1254800I-500J0D01*
G01*
D02*
G03*
X291150Y1254800I500J0D01*
G01*
X1438136Y1372386D02*
G03*
X1486000Y1436500I-74132J105266D01*
G01*
X1322332Y1374534D02*
G03*
X1438136Y1372386I59703J96023D01*
G01*
X1282072Y1431047D02*
G03*
X1322332Y1374534I106191J33054D01*
G01*
X451750Y1000000D02*
Y1032000D01*
X500750D01*
Y1000000D02*
Y1032000D01*
X451750Y1000000D02*
X500750D01*
X450450Y981250D02*
Y996500D01*
X902050Y858550D02*
Y1219250D01*
X877950D02*
X902050D01*
X877950Y858550D02*
Y1219250D01*
Y858550D02*
X902050D01*
X674750D02*
X698850D01*
Y1219250D01*
X674750Y858550D02*
Y1219250D01*
X698850D01*
X1237000Y1147500D02*
X1278500D01*
X1520000D02*
X1525000D01*
X1237000D02*
Y1336000D01*
Y1363000D02*
Y1436500D01*
X1525000Y1147500D02*
Y1348500D01*
Y1374500D02*
Y1436500D01*
X1486000D02*
X1525000D01*
X1237000D02*
X1282000D01*
Y1431025D02*
Y1436500D01*
X1486500Y1147500D02*
X1503500D01*
X741900Y352000D02*
X814550D01*
Y301150D02*
Y352000D01*
Y194000D02*
Y277150D01*
X434550Y194000D02*
X814550D01*
X434550D02*
Y275150D01*
Y301150D02*
Y352000D01*
X493900D01*
D11*
X986161Y1091860D02*
G03*
X999839Y1091860I6839J0D01*
G01*
X406400Y1089660D02*
Y1125220D01*
X320040D02*
X406400D01*
X320040Y1089660D02*
Y1125220D01*
Y1089660D02*
X406400D01*
X1118870Y1049020D02*
Y1084580D01*
Y1049020D02*
X1205230D01*
Y1084580D01*
X1118870D02*
X1205230D01*
X1314570Y927430D02*
X1451730D01*
Y891870D02*
Y927430D01*
X1314570Y891870D02*
X1451730D01*
X1314570D02*
Y927430D01*
X598170Y934720D02*
Y1198880D01*
X633730D01*
Y934720D02*
Y1198880D01*
X598170Y934720D02*
X633730D01*
X344170Y833120D02*
X379730D01*
Y970280D01*
X344170D02*
X379730D01*
X344170Y833120D02*
Y970280D01*
Y547370D02*
Y811530D01*
X379730D01*
Y547370D02*
Y811530D01*
X344170Y547370D02*
X379730D01*
X979030Y1091860D02*
X986161D01*
X999839D02*
X1006970D01*
X979030Y1046140D02*
Y1091860D01*
Y1046140D02*
X1006970D01*
Y1091860D01*
X1199000Y1239000D02*
Y1439000D01*
X959000Y1239000D02*
X1199000D01*
X959000D02*
Y1439000D01*
X1199000D01*
X1159000D02*
Y1479000D01*
X1004000D02*
X1159000D01*
X1004000Y1439000D02*
Y1479000D01*
D12*
X503900Y358150D02*
G03*
X503900Y357150I0J-500D01*
G01*
D02*
G03*
X503900Y358150I0J500D01*
G01*
X544650Y1187300D02*
X573150D01*
Y1441300D01*
X303150D02*
X573150D01*
X303150Y1187300D02*
Y1441300D01*
Y1187300D02*
X392150D01*
D13*
X594090Y861550D02*
X985250D01*
Y398000D02*
Y861550D01*
X594090Y398000D02*
X985250D01*
X594090D02*
Y861550D01*
X1123950Y1123950D02*
X1197610D01*
Y1179830D01*
X1123950D02*
X1197610D01*
X1123950Y1123950D02*
Y1179830D01*
X1126490Y1149350D02*
X1144270D01*
X1011780Y1156300D02*
X1029560D01*
X1032100Y1125820D02*
Y1181700D01*
X958440Y1125820D02*
X1032100D01*
X958440D02*
Y1181700D01*
X1032100D01*
X370840Y1000760D02*
X355605D01*
Y1008378D01*
X358144Y1010917D01*
X363222D01*
X365762Y1008378D01*
Y1000760D01*
X370840Y1015995D02*
Y1021073D01*
Y1018534D01*
X360683D01*
Y1015995D01*
X370840Y1028691D02*
X360683D01*
Y1036309D01*
X363222Y1038848D01*
X370840D01*
Y1054083D02*
Y1043926D01*
X360683Y1054083D01*
X358144D01*
X355605Y1051544D01*
Y1046465D01*
X358144Y1043926D01*
X370840Y1059161D02*
X360683Y1069318D01*
X363222Y1074396D02*
Y1084553D01*
X342900Y1000760D02*
X327665D01*
Y1008378D01*
X330204Y1010917D01*
X335282D01*
X337822Y1008378D01*
Y1000760D01*
X342900Y1015995D02*
Y1021073D01*
Y1018534D01*
X332743D01*
Y1015995D01*
X342900Y1028691D02*
X332743D01*
Y1036309D01*
X335282Y1038848D01*
X342900D01*
X330204Y1043926D02*
X327665Y1046465D01*
Y1051544D01*
X330204Y1054083D01*
X332743D01*
X335282Y1051544D01*
Y1049004D01*
Y1051544D01*
X337822Y1054083D01*
X340361D01*
X342900Y1051544D01*
Y1046465D01*
X340361Y1043926D01*
X342900Y1059161D02*
X332743Y1069318D01*
X335282Y1074396D02*
Y1084553D01*
X330204Y1079474D02*
X340361D01*
X396240Y1000760D02*
X381005D01*
Y1008378D01*
X383544Y1010917D01*
X388622D01*
X391162Y1008378D01*
Y1000760D01*
X396240Y1015995D02*
Y1021073D01*
Y1018534D01*
X386083D01*
Y1015995D01*
X396240Y1028691D02*
X386083D01*
Y1036309D01*
X388622Y1038848D01*
X396240D01*
Y1043926D02*
Y1049004D01*
Y1046465D01*
X381005D01*
X383544Y1043926D01*
X396240Y1056622D02*
X386083Y1066779D01*
X383544Y1082014D02*
X381005Y1079474D01*
Y1074396D01*
X383544Y1071857D01*
X393701D01*
X396240Y1074396D01*
Y1079474D01*
X393701Y1082014D01*
X388622D01*
Y1076935D01*
X299830Y800092D02*
X297291Y802631D01*
X292213D01*
X289674Y800092D01*
Y789936D01*
X292213Y787396D01*
X297291D01*
X299830Y789936D01*
Y795014D01*
X294752D01*
X304909Y787396D02*
Y802631D01*
X315065Y787396D01*
Y802631D01*
X320144D02*
Y787396D01*
X327761D01*
X330300Y789936D01*
Y800092D01*
X327761Y802631D01*
X320144D01*
X299830Y774692D02*
X297291Y777231D01*
X292213D01*
X289674Y774692D01*
Y764536D01*
X292213Y761996D01*
X297291D01*
X299830Y764536D01*
Y769614D01*
X294752D01*
X304909Y761996D02*
Y777231D01*
X315065Y761996D01*
Y777231D01*
X320144D02*
Y761996D01*
X327761D01*
X330300Y764536D01*
Y774692D01*
X327761Y777231D01*
X320144D01*
X1054100Y416558D02*
Y431793D01*
X1061718D01*
X1064257Y429254D01*
Y424176D01*
X1061718Y421637D01*
X1054100D01*
X1059178D02*
X1064257Y416558D01*
X1076953D02*
X1071874D01*
X1069335Y419098D01*
Y424176D01*
X1071874Y426715D01*
X1076953D01*
X1079492Y424176D01*
Y421637D01*
X1069335D01*
X1084570Y426715D02*
X1089649Y416558D01*
X1094727Y426715D01*
X1115040Y416558D02*
X1120119D01*
X1117579D01*
Y431793D01*
X1115040Y429254D01*
X1127736Y416558D02*
Y419098D01*
X1130275D01*
Y416558D01*
X1127736D01*
X1140432D02*
X1145510D01*
X1142971D01*
Y431793D01*
X1140432Y429254D01*
X1155667Y414019D02*
X1158206Y416558D01*
Y419098D01*
X1155667D01*
Y416558D01*
X1158206D01*
X1155667Y414019D01*
X1153128Y411480D01*
X1183598Y429254D02*
X1186137Y431793D01*
X1191216D01*
X1193755Y429254D01*
Y419098D01*
X1191216Y416558D01*
X1186137D01*
X1183598Y419098D01*
Y429254D01*
X1198833Y419098D02*
X1201372Y416558D01*
X1206451D01*
X1208990Y419098D01*
Y429254D01*
X1206451Y431793D01*
X1201372D01*
X1198833Y429254D01*
Y426715D01*
X1201372Y424176D01*
X1208990D01*
X1214068Y416558D02*
Y419098D01*
X1216607D01*
Y416558D01*
X1214068D01*
X1226764D02*
X1231842D01*
X1229303D01*
Y431793D01*
X1226764Y429254D01*
X1249617Y416558D02*
X1239460D01*
X1249617Y426715D01*
Y429254D01*
X1247077Y431793D01*
X1241999D01*
X1239460Y429254D01*
X1254695Y416558D02*
Y419098D01*
X1257234D01*
Y416558D01*
X1254695D01*
X1277548D02*
X1267391D01*
X1277548Y426715D01*
Y429254D01*
X1275008Y431793D01*
X1269930D01*
X1267391Y429254D01*
X1282626D02*
X1285165Y431793D01*
X1290244D01*
X1292783Y429254D01*
Y419098D01*
X1290244Y416558D01*
X1285165D01*
X1282626Y419098D01*
Y429254D01*
X1308018Y416558D02*
X1297861D01*
X1308018Y426715D01*
Y429254D01*
X1305479Y431793D01*
X1300400D01*
X1297861Y429254D01*
X1320714Y416558D02*
Y431793D01*
X1313096Y424176D01*
X1323253D01*
X605533Y885693D02*
X600454D01*
X602994D01*
Y872997D01*
X600454Y870458D01*
X597915D01*
X595376Y872997D01*
X620768Y870458D02*
X610611D01*
X620768Y880615D01*
Y883154D01*
X618229Y885693D01*
X613150D01*
X610611Y883154D01*
X625846D02*
X628385Y885693D01*
X633464D01*
X636003Y883154D01*
Y872997D01*
X633464Y870458D01*
X628385D01*
X625846Y872997D01*
Y883154D01*
X641081D02*
X643620Y885693D01*
X648699D01*
X651238Y883154D01*
Y880615D01*
X648699Y878075D01*
X646160D01*
X648699D01*
X651238Y875536D01*
Y872997D01*
X648699Y870458D01*
X643620D01*
X641081Y872997D01*
X719820Y839955D02*
X729977D01*
X724898D01*
Y824720D01*
X737594D02*
X742673D01*
X745212Y827259D01*
Y832337D01*
X742673Y834877D01*
X737594D01*
X735055Y832337D01*
Y827259D01*
X737594Y824720D01*
X765525Y839955D02*
Y829798D01*
X770604Y824720D01*
X775682Y829798D01*
Y839955D01*
X780760Y824720D02*
X785839D01*
X783299D01*
Y834877D01*
X780760D01*
X803613Y839955D02*
Y824720D01*
X795995D01*
X793456Y827259D01*
Y832337D01*
X795995Y834877D01*
X803613D01*
X811230Y824720D02*
X816309D01*
X818848Y827259D01*
Y832337D01*
X816309Y834877D01*
X811230D01*
X808691Y832337D01*
Y827259D01*
X811230Y824720D01*
X823926Y834877D02*
Y824720D01*
Y829798D01*
X826466Y832337D01*
X829005Y834877D01*
X831544D01*
X846779Y824720D02*
Y839955D01*
X839161Y832337D01*
X849318D01*
X854397Y824720D02*
Y839955D01*
Y829798D02*
X862014Y834877D01*
X854397Y829798D02*
X862014Y824720D01*
X320040Y1148075D02*
Y1132840D01*
X327658D01*
X330197Y1135379D01*
Y1145536D01*
X327658Y1148075D01*
X320040D01*
X335275Y1132840D02*
Y1148075D01*
X340353Y1142997D01*
X345432Y1148075D01*
Y1132840D01*
X350510Y1148075D02*
X360667Y1132840D01*
Y1148075D02*
X350510Y1132840D01*
X375902Y1148075D02*
X365745D01*
Y1140458D01*
X370824Y1142997D01*
X373363D01*
X375902Y1140458D01*
Y1135379D01*
X373363Y1132840D01*
X368284D01*
X365745Y1135379D01*
X380980Y1132840D02*
X386059D01*
X383520D01*
Y1148075D01*
X380980Y1145536D01*
X403833Y1132840D02*
X393676D01*
X403833Y1142997D01*
Y1145536D01*
X401294Y1148075D01*
X396215D01*
X393676Y1145536D01*
X1127757Y1234435D02*
X1117600D01*
Y1226817D01*
X1122678Y1229357D01*
X1125218D01*
X1127757Y1226817D01*
Y1221739D01*
X1125218Y1219200D01*
X1120139D01*
X1117600Y1221739D01*
X1132835Y1234435D02*
Y1224278D01*
X1137913Y1219200D01*
X1142992Y1224278D01*
Y1234435D01*
X1170923D02*
X1165844D01*
X1163305Y1231896D01*
Y1221739D01*
X1165844Y1219200D01*
X1170923D01*
X1173462Y1221739D01*
Y1231896D01*
X1170923Y1234435D01*
X1178540D02*
Y1219200D01*
Y1224278D01*
X1188697Y1234435D01*
X1181079Y1226817D01*
X1188697Y1219200D01*
X1569724Y817880D02*
X1567185Y820419D01*
Y825498D01*
X1569724Y828037D01*
X1572263D01*
X1574803Y825498D01*
Y822958D01*
Y825498D01*
X1577342Y828037D01*
X1579881D01*
X1582420Y825498D01*
Y820419D01*
X1579881Y817880D01*
X1567185Y833115D02*
X1577342D01*
X1582420Y838193D01*
X1577342Y843272D01*
X1567185D01*
X1569724Y848350D02*
X1567185Y850889D01*
Y855968D01*
X1569724Y858507D01*
X1572263D01*
X1574803Y855968D01*
Y853428D01*
Y855968D01*
X1577342Y858507D01*
X1579881D01*
X1582420Y855968D01*
Y850889D01*
X1579881Y848350D01*
X1567185Y886438D02*
Y881359D01*
X1569724Y878820D01*
X1579881D01*
X1582420Y881359D01*
Y886438D01*
X1579881Y888977D01*
X1569724D01*
X1567185Y886438D01*
Y894055D02*
X1582420D01*
X1577342D01*
X1567185Y904212D01*
X1574803Y896594D01*
X1582420Y904212D01*
X1532764Y1339697D02*
X1530225Y1337157D01*
Y1332079D01*
X1532764Y1329540D01*
X1535303D01*
X1537843Y1332079D01*
Y1337157D01*
X1540382Y1339697D01*
X1542921D01*
X1545460Y1337157D01*
Y1332079D01*
X1542921Y1329540D01*
X1530225Y1344775D02*
X1545460D01*
Y1352393D01*
X1542921Y1354932D01*
X1532764D01*
X1530225Y1352393D01*
Y1344775D01*
X1537843Y1360010D02*
Y1370167D01*
X1532764Y1385402D02*
X1530225Y1382863D01*
Y1377784D01*
X1532764Y1375245D01*
X1542921D01*
X1545460Y1377784D01*
Y1382863D01*
X1542921Y1385402D01*
X1535303Y1393020D02*
Y1398098D01*
X1537843Y1400637D01*
X1545460D01*
Y1393020D01*
X1542921Y1390480D01*
X1540382Y1393020D01*
Y1400637D01*
X1535303Y1405715D02*
X1545460D01*
X1540382D01*
X1537843Y1408255D01*
X1535303Y1410794D01*
Y1413333D01*
X1530225Y1431107D02*
X1545460D01*
Y1423490D01*
X1542921Y1420950D01*
X1537843D01*
X1535303Y1423490D01*
Y1431107D01*
X577225Y1347540D02*
X592460D01*
Y1355157D01*
X589921Y1357697D01*
X579764D01*
X577225Y1355157D01*
Y1347540D01*
X592460Y1362775D02*
X577225D01*
X582303Y1367853D01*
X577225Y1372932D01*
X592460D01*
X577225Y1378010D02*
X592460Y1388167D01*
X577225D02*
X592460Y1378010D01*
X577225Y1403402D02*
Y1393245D01*
X584842D01*
X582303Y1398324D01*
Y1400863D01*
X584842Y1403402D01*
X589921D01*
X592460Y1400863D01*
Y1395784D01*
X589921Y1393245D01*
X592460Y1408480D02*
Y1413559D01*
Y1411019D01*
X577225D01*
X579764Y1408480D01*
X592460Y1431333D02*
Y1421176D01*
X582303Y1431333D01*
X579764D01*
X577225Y1428794D01*
Y1423715D01*
X579764Y1421176D01*
X304797Y955036D02*
X302257Y957575D01*
X297179D01*
X294640Y955036D01*
Y944879D01*
X297179Y942340D01*
X302257D01*
X304797Y944879D01*
Y949958D01*
X299718D01*
X309875Y942340D02*
Y957575D01*
X320032Y942340D01*
Y957575D01*
X325110D02*
Y942340D01*
X332728D01*
X335267Y944879D01*
Y955036D01*
X332728Y957575D01*
X325110D01*
X1159514Y999490D02*
X1156975Y1002029D01*
Y1007107D01*
X1159514Y1009647D01*
X1162053D01*
X1164593Y1007107D01*
Y1004568D01*
Y1007107D01*
X1167132Y1009647D01*
X1169671D01*
X1172210Y1007107D01*
Y1002029D01*
X1169671Y999490D01*
X1156975Y1014725D02*
X1167132D01*
X1172210Y1019803D01*
X1167132Y1024882D01*
X1156975D01*
X1159514Y1029960D02*
X1156975Y1032499D01*
Y1037578D01*
X1159514Y1040117D01*
X1162053D01*
X1164593Y1037578D01*
Y1035039D01*
Y1037578D01*
X1167132Y1040117D01*
X1169671D01*
X1172210Y1037578D01*
Y1032499D01*
X1169671Y1029960D01*
X1131575Y1022347D02*
Y1012190D01*
X1139193D01*
X1136653Y1017268D01*
Y1019808D01*
X1139193Y1022347D01*
X1144271D01*
X1146810Y1019808D01*
Y1014729D01*
X1144271Y1012190D01*
X1131575Y1027425D02*
X1141732D01*
X1146810Y1032503D01*
X1141732Y1037582D01*
X1131575D01*
X1184914Y1009647D02*
X1182375Y1007107D01*
Y1002029D01*
X1184914Y999490D01*
X1195071D01*
X1197610Y1002029D01*
Y1007107D01*
X1195071Y1009647D01*
X1189993D01*
Y1004568D01*
X1197610Y1014725D02*
X1182375D01*
X1197610Y1024882D01*
X1182375D01*
Y1029960D02*
X1197610D01*
Y1037578D01*
X1195071Y1040117D01*
X1184914D01*
X1182375Y1037578D01*
Y1029960D01*
X1438910Y840740D02*
X1423675D01*
X1438910Y850897D01*
X1423675D01*
X1438910Y855975D02*
X1428753Y866132D01*
X1426214Y881367D02*
X1423675Y878828D01*
Y873749D01*
X1426214Y871210D01*
X1436371D01*
X1438910Y873749D01*
Y878828D01*
X1436371Y881367D01*
X1400814Y850897D02*
X1398275Y848357D01*
Y843279D01*
X1400814Y840740D01*
X1403353D01*
X1405892Y843279D01*
Y848357D01*
X1408432Y850897D01*
X1410971D01*
X1413510Y848357D01*
Y843279D01*
X1410971Y840740D01*
X1398275Y855975D02*
X1413510D01*
Y863593D01*
X1410971Y866132D01*
X1400814D01*
X1398275Y863593D01*
Y855975D01*
X1413510Y871210D02*
X1403353D01*
X1398275Y876289D01*
X1403353Y881367D01*
X1413510D01*
X1405892D01*
Y871210D01*
X1375414Y850897D02*
X1372875Y848357D01*
Y843279D01*
X1375414Y840740D01*
X1377953D01*
X1380493Y843279D01*
Y848357D01*
X1383032Y850897D01*
X1385571D01*
X1388110Y848357D01*
Y843279D01*
X1385571Y840740D01*
X1375414Y866132D02*
X1372875Y863593D01*
Y858514D01*
X1375414Y855975D01*
X1385571D01*
X1388110Y858514D01*
Y863593D01*
X1385571Y866132D01*
X1372875Y871210D02*
X1388110D01*
Y881367D01*
X872490Y340353D02*
Y325118D01*
Y332736D01*
X875029Y335275D01*
X880107D01*
X882647Y332736D01*
Y325118D01*
X890264Y337814D02*
Y335275D01*
X887725D01*
X892803D01*
X890264D01*
Y327658D01*
X892803Y325118D01*
X902960Y337814D02*
Y335275D01*
X900421D01*
X905499D01*
X902960D01*
Y327658D01*
X905499Y325118D01*
X913117Y320040D02*
Y335275D01*
X920734D01*
X923274Y332736D01*
Y327658D01*
X920734Y325118D01*
X913117D01*
X928352D02*
X935969D01*
X938509Y327658D01*
X935969Y330197D01*
X930891D01*
X928352Y332736D01*
X930891Y335275D01*
X938509D01*
X943587D02*
X946126D01*
Y332736D01*
X943587D01*
Y335275D01*
Y327658D02*
X946126D01*
Y325118D01*
X943587D01*
Y327658D01*
X956283Y325118D02*
X966440Y335275D01*
X971518Y325118D02*
X981675Y335275D01*
X986753D02*
Y327658D01*
X989292Y325118D01*
X991831Y327658D01*
X994371Y325118D01*
X996910Y327658D01*
Y335275D01*
X1001988D02*
Y327658D01*
X1004527Y325118D01*
X1007066Y327658D01*
X1009606Y325118D01*
X1012145Y327658D01*
Y335275D01*
X1017223D02*
Y327658D01*
X1019762Y325118D01*
X1022301Y327658D01*
X1024841Y325118D01*
X1027380Y327658D01*
Y335275D01*
X1032458Y325118D02*
Y327658D01*
X1034997D01*
Y325118D01*
X1032458D01*
X1045154Y335275D02*
Y327658D01*
X1047693Y325118D01*
X1055311D01*
Y322579D01*
X1052772Y320040D01*
X1050232D01*
X1055311Y325118D02*
Y335275D01*
X1062928Y325118D02*
X1068007D01*
X1070546Y327658D01*
Y332736D01*
X1068007Y335275D01*
X1062928D01*
X1060389Y332736D01*
Y327658D01*
X1062928Y325118D01*
X1075624Y335275D02*
Y327658D01*
X1078164Y325118D01*
X1085781D01*
Y335275D01*
X1093399Y337814D02*
Y335275D01*
X1090859D01*
X1095938D01*
X1093399D01*
Y327658D01*
X1095938Y325118D01*
X1103555Y335275D02*
Y327658D01*
X1106094Y325118D01*
X1113712D01*
Y335275D01*
X1118790Y340353D02*
Y325118D01*
X1126408D01*
X1128947Y327658D01*
Y330197D01*
Y332736D01*
X1126408Y335275D01*
X1118790D01*
X1141643Y325118D02*
X1136565D01*
X1134025Y327658D01*
Y332736D01*
X1136565Y335275D01*
X1141643D01*
X1144182Y332736D01*
Y330197D01*
X1134025D01*
X1149260Y325118D02*
Y327658D01*
X1151800D01*
Y325118D01*
X1149260D01*
X1172113Y335275D02*
X1164495D01*
X1161956Y332736D01*
Y327658D01*
X1164495Y325118D01*
X1172113D01*
X1179731D02*
X1184809D01*
X1187348Y327658D01*
Y332736D01*
X1184809Y335275D01*
X1179731D01*
X1177191Y332736D01*
Y327658D01*
X1179731Y325118D01*
X1192427D02*
Y335275D01*
X1194966D01*
X1197505Y332736D01*
Y325118D01*
Y332736D01*
X1200044Y335275D01*
X1202583Y332736D01*
Y325118D01*
X1207662D02*
X1217818Y335275D01*
X1230514Y330197D02*
Y332736D01*
X1227975D01*
Y330197D01*
X1230514D01*
X1233053Y332736D01*
Y337814D01*
X1230514Y340353D01*
X1225436D01*
X1222897Y337814D01*
Y327658D01*
X1225436Y325118D01*
X1233053D01*
X1238132Y320040D02*
Y335275D01*
X1245749D01*
X1248288Y332736D01*
Y327658D01*
X1245749Y325118D01*
X1238132D01*
X1263523Y335275D02*
X1255906D01*
X1253367Y332736D01*
Y327658D01*
X1255906Y325118D01*
X1263523D01*
X1278759Y340353D02*
Y325118D01*
X1271141D01*
X1268602Y327658D01*
Y332736D01*
X1271141Y335275D01*
X1278759D01*
X1283837Y325118D02*
X1288915D01*
X1286376D01*
Y335275D01*
X1283837D01*
X1296533Y325118D02*
Y335275D01*
X1299072D01*
X1301611Y332736D01*
Y325118D01*
Y332736D01*
X1304150Y335275D01*
X1306689Y332736D01*
Y325118D01*
X1311768D02*
Y335275D01*
X1314307D01*
X1316846Y332736D01*
Y325118D01*
Y332736D01*
X1319385Y335275D01*
X1321925Y332736D01*
Y325118D01*
X1334621D02*
X1329542D01*
X1327003Y327658D01*
Y332736D01*
X1329542Y335275D01*
X1334621D01*
X1337160Y332736D01*
Y330197D01*
X1327003D01*
X1342238Y335275D02*
Y325118D01*
Y330197D01*
X1344777Y332736D01*
X1347316Y335275D01*
X1349855D01*
X294640Y593086D02*
X297179Y595625D01*
X302257D01*
X304797Y593086D01*
Y590547D01*
X302257Y588008D01*
X299718D01*
X302257D01*
X304797Y585468D01*
Y582929D01*
X302257Y580390D01*
X297179D01*
X294640Y582929D01*
X309875Y595625D02*
Y585468D01*
X314953Y580390D01*
X320032Y585468D01*
Y595625D01*
X325110Y593086D02*
X327649Y595625D01*
X332728D01*
X335267Y593086D01*
Y590547D01*
X332728Y588008D01*
X330188D01*
X332728D01*
X335267Y585468D01*
Y582929D01*
X332728Y580390D01*
X327649D01*
X325110Y582929D01*
X302370Y571492D02*
X299831Y574031D01*
X294753D01*
X292214Y571492D01*
Y561335D01*
X294753Y558796D01*
X299831D01*
X302370Y561335D01*
Y566414D01*
X297292D01*
X307449Y558796D02*
Y574031D01*
X317605Y558796D01*
Y574031D01*
X322684D02*
Y558796D01*
X330301D01*
X332840Y561335D01*
Y571492D01*
X330301Y574031D01*
X322684D01*
X558797Y957576D02*
X556258Y960115D01*
X551179D01*
X548640Y957576D01*
Y947419D01*
X551179Y944880D01*
X556258D01*
X558797Y947419D01*
Y952497D01*
X553718D01*
X563875Y944880D02*
Y960115D01*
X574032Y944880D01*
Y960115D01*
X579110D02*
Y944880D01*
X586728D01*
X589267Y947419D01*
Y957576D01*
X586728Y960115D01*
X579110D01*
X548640Y982976D02*
X551179Y985515D01*
X556258D01*
X558797Y982976D01*
Y980437D01*
X556258Y977897D01*
X553718D01*
X556258D01*
X558797Y975358D01*
Y972819D01*
X556258Y970280D01*
X551179D01*
X548640Y972819D01*
X563875Y985515D02*
Y975358D01*
X568953Y970280D01*
X574032Y975358D01*
Y985515D01*
X579110Y982976D02*
X581649Y985515D01*
X586728D01*
X589267Y982976D01*
Y980437D01*
X586728Y977897D01*
X584188D01*
X586728D01*
X589267Y975358D01*
Y972819D01*
X586728Y970280D01*
X581649D01*
X579110Y972819D01*
X935225Y1327697D02*
Y1317540D01*
X950460D01*
Y1327697D01*
X942842Y1317540D02*
Y1322618D01*
X937764Y1335314D02*
X940303D01*
Y1332775D01*
Y1337853D01*
Y1335314D01*
X947921D01*
X950460Y1337853D01*
X935225Y1345471D02*
X950460D01*
X942842D01*
X940303Y1348010D01*
Y1353089D01*
X942842Y1355628D01*
X950460D01*
Y1368324D02*
Y1363245D01*
X947921Y1360706D01*
X942842D01*
X940303Y1363245D01*
Y1368324D01*
X942842Y1370863D01*
X945382D01*
Y1360706D01*
X940303Y1375941D02*
X950460D01*
X945382D01*
X942842Y1378480D01*
X940303Y1381019D01*
Y1383559D01*
X950460Y1391176D02*
X940303D01*
Y1398794D01*
X942842Y1401333D01*
X950460D01*
Y1414029D02*
Y1408950D01*
X947921Y1406411D01*
X942842D01*
X940303Y1408950D01*
Y1414029D01*
X942842Y1416568D01*
X945382D01*
Y1406411D01*
X937764Y1424185D02*
X940303D01*
Y1421646D01*
Y1426725D01*
Y1424185D01*
X947921D01*
X950460Y1426725D01*
X536224Y786025D02*
X533685Y783486D01*
Y778408D01*
X536224Y775868D01*
X546381D01*
X548920Y778408D01*
Y783486D01*
X546381Y786025D01*
X541302D01*
Y780947D01*
X548920Y791103D02*
X533685D01*
X548920Y801260D01*
X533685D01*
Y806339D02*
X548920D01*
Y813956D01*
X546381Y816495D01*
X536224D01*
X533685Y813956D01*
Y806339D01*
X294640Y853436D02*
X297179Y855975D01*
X302257D01*
X304797Y853436D01*
Y850897D01*
X302257Y848357D01*
X299718D01*
X302257D01*
X304797Y845818D01*
Y843279D01*
X302257Y840740D01*
X297179D01*
X294640Y843279D01*
X309875Y855975D02*
Y845818D01*
X314953Y840740D01*
X320032Y845818D01*
Y855975D01*
X325110Y853436D02*
X327649Y855975D01*
X332728D01*
X335267Y853436D01*
Y850897D01*
X332728Y848357D01*
X330188D01*
X332728D01*
X335267Y845818D01*
Y843279D01*
X332728Y840740D01*
X327649D01*
X325110Y843279D01*
X1351284Y810260D02*
X1348745Y812799D01*
Y817878D01*
X1351284Y820417D01*
X1353823D01*
X1356362Y817878D01*
Y815338D01*
Y817878D01*
X1358902Y820417D01*
X1361441D01*
X1363980Y817878D01*
Y812799D01*
X1361441Y810260D01*
X1348745Y825495D02*
X1358902D01*
X1363980Y830573D01*
X1358902Y835652D01*
X1348745D01*
X1351284Y840730D02*
X1348745Y843269D01*
Y848348D01*
X1351284Y850887D01*
X1353823D01*
X1356362Y848348D01*
Y845808D01*
Y848348D01*
X1358902Y850887D01*
X1361441D01*
X1363980Y848348D01*
Y843269D01*
X1361441Y840730D01*
X1323344Y820417D02*
X1320805Y817878D01*
Y812799D01*
X1323344Y810260D01*
X1333501D01*
X1336040Y812799D01*
Y817878D01*
X1333501Y820417D01*
X1328423D01*
Y815338D01*
X1336040Y825495D02*
X1320805D01*
X1336040Y835652D01*
X1320805D01*
Y840730D02*
X1336040D01*
Y848348D01*
X1333501Y850887D01*
X1323344D01*
X1320805Y848348D01*
Y840730D01*
X1308100Y952493D02*
X1313178D01*
X1310639D01*
Y937258D01*
X1308100D01*
X1313178D01*
X1330953D02*
X1320796D01*
X1330953Y947415D01*
Y949954D01*
X1328413Y952493D01*
X1323335D01*
X1320796Y949954D01*
X1346188D02*
X1343649Y952493D01*
X1338570D01*
X1336031Y949954D01*
Y939798D01*
X1338570Y937258D01*
X1343649D01*
X1346188Y939798D01*
X1366501Y952493D02*
Y937258D01*
X1374119D01*
X1376658Y939798D01*
Y949954D01*
X1374119Y952493D01*
X1366501D01*
X1381736Y937258D02*
X1386815D01*
X1384275D01*
Y947415D01*
X1381736D01*
X1394432Y937258D02*
X1402050D01*
X1404589Y939798D01*
X1402050Y942337D01*
X1396971D01*
X1394432Y944876D01*
X1396971Y947415D01*
X1404589D01*
X1409667Y932180D02*
Y947415D01*
X1417285D01*
X1419824Y944876D01*
Y939798D01*
X1417285Y937258D01*
X1409667D01*
X1424902D02*
X1429981D01*
X1427441D01*
Y952493D01*
X1424902D01*
X1440137Y947415D02*
X1445216D01*
X1447755Y944876D01*
Y937258D01*
X1440137D01*
X1437598Y939798D01*
X1440137Y942337D01*
X1447755D01*
X1452833Y947415D02*
Y939798D01*
X1455372Y937258D01*
X1462990D01*
Y934719D01*
X1460451Y932180D01*
X1457912D01*
X1462990Y937258D02*
Y947415D01*
X872490Y308603D02*
Y293368D01*
Y300986D01*
X875029Y303525D01*
X880107D01*
X882647Y300986D01*
Y293368D01*
X890264Y306064D02*
Y303525D01*
X887725D01*
X892803D01*
X890264D01*
Y295907D01*
X892803Y293368D01*
X902960Y306064D02*
Y303525D01*
X900421D01*
X905499D01*
X902960D01*
Y295907D01*
X905499Y293368D01*
X913117Y288290D02*
Y303525D01*
X920734D01*
X923274Y300986D01*
Y295907D01*
X920734Y293368D01*
X913117D01*
X928352D02*
X935969D01*
X938509Y295907D01*
X935969Y298447D01*
X930891D01*
X928352Y300986D01*
X930891Y303525D01*
X938509D01*
X943587D02*
X946126D01*
Y300986D01*
X943587D01*
Y303525D01*
Y295907D02*
X946126D01*
Y293368D01*
X943587D01*
Y295907D01*
X956283Y293368D02*
X966440Y303525D01*
X971518Y293368D02*
X981675Y303525D01*
X986753D02*
Y295907D01*
X989292Y293368D01*
X991831Y295907D01*
X994371Y293368D01*
X996910Y295907D01*
Y303525D01*
X1001988D02*
Y295907D01*
X1004527Y293368D01*
X1007066Y295907D01*
X1009606Y293368D01*
X1012145Y295907D01*
Y303525D01*
X1017223D02*
Y295907D01*
X1019762Y293368D01*
X1022301Y295907D01*
X1024841Y293368D01*
X1027380Y295907D01*
Y303525D01*
X1032458Y293368D02*
Y295907D01*
X1034997D01*
Y293368D01*
X1032458D01*
X1050232Y288290D02*
X1052772D01*
X1055311Y290829D01*
Y303525D01*
X1047693D01*
X1045154Y300986D01*
Y295907D01*
X1047693Y293368D01*
X1055311D01*
X1060389D02*
X1065468D01*
X1062928D01*
Y303525D01*
X1060389D01*
X1075624Y306064D02*
Y303525D01*
X1073085D01*
X1078163D01*
X1075624D01*
Y295907D01*
X1078163Y293368D01*
X1085781Y308603D02*
Y293368D01*
Y300986D01*
X1088320Y303525D01*
X1093399D01*
X1095938Y300986D01*
Y293368D01*
X1101016Y303525D02*
Y295907D01*
X1103555Y293368D01*
X1111173D01*
Y303525D01*
X1116251Y308603D02*
Y293368D01*
X1123869D01*
X1126408Y295907D01*
Y298447D01*
Y300986D01*
X1123869Y303525D01*
X1116251D01*
X1131486Y293368D02*
Y295907D01*
X1134025D01*
Y293368D01*
X1131486D01*
X1154339Y303525D02*
X1146721D01*
X1144182Y300986D01*
Y295907D01*
X1146721Y293368D01*
X1154339D01*
X1161956D02*
X1167035D01*
X1169574Y295907D01*
Y300986D01*
X1167035Y303525D01*
X1161956D01*
X1159417Y300986D01*
Y295907D01*
X1161956Y293368D01*
X1174652D02*
Y303525D01*
X1177191D01*
X1179731Y300986D01*
Y293368D01*
Y300986D01*
X1182270Y303525D01*
X1184809Y300986D01*
Y293368D01*
X1189887D02*
X1200044Y303525D01*
X1205122D02*
X1215279Y293368D01*
X1210201Y298447D01*
X1215279Y303525D01*
X1205122Y293368D01*
X1220357D02*
Y303525D01*
X1227975D01*
X1230514Y300986D01*
Y293368D01*
X1235592Y300986D02*
X1245749D01*
X1250828D02*
X1260984D01*
X1266063Y293368D02*
Y303525D01*
X1273680D01*
X1276219Y300986D01*
Y293368D01*
X1291454Y308603D02*
Y293368D01*
X1283837D01*
X1281298Y295907D01*
Y300986D01*
X1283837Y303525D01*
X1291454D01*
X1296533Y293368D02*
X1301611D01*
X1299072D01*
Y303525D01*
X1296533D01*
X1309229Y293368D02*
Y303525D01*
X1316846D01*
X1319385Y300986D01*
Y293368D01*
X1329542Y288290D02*
X1332081D01*
X1334621Y290829D01*
Y303525D01*
X1327003D01*
X1324464Y300986D01*
Y295907D01*
X1327003Y293368D01*
X1334621D01*
X1339699Y300986D02*
X1349855D01*
X1354934Y288290D02*
X1357473D01*
X1360012Y290829D01*
Y303525D01*
X1370169D02*
Y295907D01*
X1372708Y293368D01*
X1380326D01*
Y303525D01*
X1387943D02*
X1393022D01*
X1395561Y300986D01*
Y293368D01*
X1387943D01*
X1385404Y295907D01*
X1387943Y298447D01*
X1395561D01*
X1400639Y293368D02*
X1410796Y303525D01*
X1415874D02*
X1426031Y293368D01*
X1420952Y298447D01*
X1426031Y303525D01*
X1415874Y293368D01*
X1433648D02*
Y306064D01*
Y300986D01*
X1431109D01*
X1436188D01*
X1433648D01*
Y306064D01*
X1436188Y308603D01*
X1443805D02*
Y293368D01*
X1451423D01*
X1453962Y295907D01*
Y298447D01*
Y300986D01*
X1451423Y303525D01*
X1443805D01*
X1461579D02*
X1466658D01*
X1469197Y300986D01*
Y293368D01*
X1461579D01*
X1459040Y295907D01*
X1461579Y298447D01*
X1469197D01*
X1474275Y288290D02*
Y303525D01*
X1481893D01*
X1484432Y300986D01*
Y295907D01*
X1481893Y293368D01*
X1474275D01*
X1497128D02*
X1492050D01*
X1489510Y295907D01*
Y300986D01*
X1492050Y303525D01*
X1497128D01*
X1499667Y300986D01*
Y298447D01*
X1489510D01*
X1054010Y520965D02*
X1064167D01*
X1059088D01*
Y505730D01*
X1069245Y520965D02*
Y505730D01*
Y513348D01*
X1079402D01*
Y520965D01*
Y505730D01*
X1094637Y520965D02*
X1084480D01*
Y505730D01*
X1094637D01*
X1084480Y513348D02*
X1089558D01*
X1125107Y520965D02*
X1114950D01*
Y513348D01*
X1120029D01*
X1114950D01*
Y505730D01*
X1130185D02*
Y520965D01*
X1137803D01*
X1140342Y518426D01*
Y513348D01*
X1137803Y510808D01*
X1130185D01*
X1155577Y518426D02*
X1153038Y520965D01*
X1147960D01*
X1145420Y518426D01*
Y508269D01*
X1147960Y505730D01*
X1153038D01*
X1155577Y508269D01*
Y513348D01*
X1150499D01*
X1160656Y505730D02*
Y515887D01*
X1165734Y520965D01*
X1170812Y515887D01*
Y505730D01*
Y513348D01*
X1160656D01*
X1191126Y520965D02*
Y505730D01*
X1198743D01*
X1201282Y508269D01*
Y510808D01*
X1198743Y513348D01*
X1191126D01*
X1198743D01*
X1201282Y515887D01*
Y518426D01*
X1198743Y520965D01*
X1191126D01*
X1206361Y505730D02*
Y515887D01*
X1211439Y520965D01*
X1216517Y515887D01*
Y505730D01*
Y513348D01*
X1206361D01*
X1231752Y518426D02*
X1229213Y520965D01*
X1224135D01*
X1221596Y518426D01*
Y515887D01*
X1224135Y513348D01*
X1229213D01*
X1231752Y510808D01*
Y508269D01*
X1229213Y505730D01*
X1224135D01*
X1221596Y508269D01*
X1246988Y520965D02*
X1236831D01*
Y505730D01*
X1246988D01*
X1236831Y513348D02*
X1241909D01*
X1252066Y520965D02*
Y505730D01*
X1259684D01*
X1262223Y508269D01*
Y518426D01*
X1259684Y520965D01*
X1252066D01*
X1064167Y460965D02*
X1054010D01*
Y453348D01*
X1059088D01*
X1054010D01*
Y445730D01*
X1076863Y460965D02*
X1071784D01*
X1069245Y458426D01*
Y448269D01*
X1071784Y445730D01*
X1076863D01*
X1079402Y448269D01*
Y458426D01*
X1076863Y460965D01*
X1084480Y445730D02*
Y460965D01*
X1092098D01*
X1094637Y458426D01*
Y453348D01*
X1092098Y450808D01*
X1084480D01*
X1089558D02*
X1094637Y445730D01*
X1114950Y460965D02*
X1125107D01*
X1120029D01*
Y445730D01*
X1130185Y460965D02*
Y445730D01*
Y453348D01*
X1140342D01*
Y460965D01*
Y445730D01*
X1155577Y460965D02*
X1145420D01*
Y445730D01*
X1155577D01*
X1145420Y453348D02*
X1150499D01*
X1175891Y460965D02*
Y445730D01*
X1183508D01*
X1186047Y448269D01*
Y450808D01*
X1183508Y453348D01*
X1175891D01*
X1183508D01*
X1186047Y455887D01*
Y458426D01*
X1183508Y460965D01*
X1175891D01*
X1201282D02*
X1191126D01*
Y445730D01*
X1201282D01*
X1191126Y453348D02*
X1196204D01*
X1206361Y460965D02*
Y445730D01*
Y453348D01*
X1216517D01*
Y460965D01*
Y445730D01*
X1221596D02*
Y460965D01*
X1229213D01*
X1231752Y458426D01*
Y453348D01*
X1229213Y450808D01*
X1221596D01*
X1226674D02*
X1231752Y445730D01*
X1236831Y460965D02*
X1241909D01*
X1239370D01*
Y445730D01*
X1236831D01*
X1241909D01*
X1249527D02*
Y460965D01*
X1259684Y445730D01*
Y460965D01*
X1274919Y458426D02*
X1272379Y460965D01*
X1267301D01*
X1264762Y458426D01*
Y448269D01*
X1267301Y445730D01*
X1272379D01*
X1274919Y448269D01*
Y453348D01*
X1269840D01*
X1290154Y460965D02*
X1279997D01*
Y445730D01*
X1290154D01*
X1279997Y453348D02*
X1285075D01*
X1295232Y445730D02*
Y460965D01*
X1302849D01*
X1305389Y458426D01*
Y453348D01*
X1302849Y450808D01*
X1295232D01*
X1300310D02*
X1305389Y445730D01*
X1325702Y460965D02*
X1335859Y445730D01*
Y460965D02*
X1325702Y445730D01*
X1340937Y458426D02*
X1343476Y460965D01*
X1348555D01*
X1351094Y458426D01*
Y455887D01*
X1348555Y453348D01*
X1346015D01*
X1348555D01*
X1351094Y450808D01*
Y448269D01*
X1348555Y445730D01*
X1343476D01*
X1340937Y448269D01*
X1366329Y445730D02*
X1356172D01*
X1366329Y455887D01*
Y458426D01*
X1363790Y460965D01*
X1358712D01*
X1356172Y458426D01*
X1054010Y475730D02*
Y485887D01*
X1059088Y490965D01*
X1064167Y485887D01*
Y475730D01*
Y483348D01*
X1054010D01*
X1069245Y490965D02*
Y478269D01*
X1071784Y475730D01*
X1076863D01*
X1079402Y478269D01*
Y490965D01*
X1084480D02*
Y475730D01*
X1092098D01*
X1094637Y478269D01*
Y488426D01*
X1092098Y490965D01*
X1084480D01*
X1099715D02*
X1104794D01*
X1102254D01*
Y475730D01*
X1099715D01*
X1104794D01*
X1120029Y490965D02*
X1114950D01*
X1112411Y488426D01*
Y478269D01*
X1114950Y475730D01*
X1120029D01*
X1122568Y478269D01*
Y488426D01*
X1120029Y490965D01*
X1142881Y475730D02*
Y490965D01*
X1150499D01*
X1153038Y488426D01*
Y483348D01*
X1150499Y480808D01*
X1142881D01*
X1158116Y490965D02*
Y475730D01*
X1168273D01*
X1173351D02*
Y485887D01*
X1178430Y490965D01*
X1183508Y485887D01*
Y475730D01*
Y483348D01*
X1173351D01*
X1188587Y490965D02*
Y488426D01*
X1193665Y483348D01*
X1198743Y488426D01*
Y490965D01*
X1193665Y483348D02*
Y475730D01*
X1213978Y490965D02*
X1203821D01*
Y475730D01*
X1213978D01*
X1203821Y483348D02*
X1208900D01*
X1219057Y475730D02*
Y490965D01*
X1226674D01*
X1229213Y488426D01*
Y483348D01*
X1226674Y480808D01*
X1219057D01*
X1224135D02*
X1229213Y475730D01*
X1249527Y490965D02*
Y475730D01*
X1254605Y480808D01*
X1259684Y475730D01*
Y490965D01*
X1264762D02*
X1269840D01*
X1267301D01*
Y475730D01*
X1264762D01*
X1269840D01*
X1277458Y490965D02*
X1287614D01*
X1282536D01*
Y475730D01*
X1292693Y490965D02*
Y475730D01*
Y483348D01*
X1302849D01*
Y490965D01*
Y475730D01*
X1333320Y490965D02*
X1323163D01*
Y475730D01*
X1333320D01*
X1323163Y483348D02*
X1328241D01*
X1348555Y478269D02*
Y488426D01*
X1346015Y490965D01*
X1340937D01*
X1338398Y488426D01*
Y478269D01*
X1340937Y475730D01*
X1346015D01*
X1343476Y480808D02*
X1348555Y475730D01*
X1346015D02*
X1348555Y478269D01*
X877568Y356868D02*
X872490Y361947D01*
Y367025D01*
X877568Y372103D01*
X895343Y367025D02*
X887725D01*
X885186Y364486D01*
Y359408D01*
X887725Y356868D01*
X895343D01*
X900421D02*
X905499Y361947D01*
Y367025D01*
X900421Y372103D01*
X938509Y356868D02*
X928352D01*
X938509Y367025D01*
Y369564D01*
X935969Y372103D01*
X930891D01*
X928352Y369564D01*
X943587D02*
X946126Y372103D01*
X951205D01*
X953744Y369564D01*
Y359408D01*
X951205Y356868D01*
X946126D01*
X943587Y359408D01*
Y369564D01*
X968979Y356868D02*
X958822D01*
X968979Y367025D01*
Y369564D01*
X966440Y372103D01*
X961361D01*
X958822Y369564D01*
X981675Y356868D02*
Y372103D01*
X974057Y364486D01*
X984214D01*
X1014684Y369564D02*
X1012145Y372103D01*
X1007066D01*
X1004527Y369564D01*
Y359408D01*
X1007066Y356868D01*
X1012145D01*
X1014684Y359408D01*
X1019762Y372103D02*
Y356868D01*
Y364486D01*
X1022301Y367025D01*
X1027380D01*
X1029919Y364486D01*
Y356868D01*
X1034997Y367025D02*
Y356868D01*
Y361947D01*
X1037537Y364486D01*
X1040076Y367025D01*
X1042615D01*
X1050232Y356868D02*
X1055311D01*
X1052772D01*
Y367025D01*
X1050232D01*
X1062928Y356868D02*
X1070546D01*
X1073085Y359408D01*
X1070546Y361947D01*
X1065468D01*
X1062928Y364486D01*
X1065468Y367025D01*
X1073085D01*
X1093399Y356868D02*
Y372103D01*
X1103555Y356868D01*
Y372103D01*
X1111173Y356868D02*
X1116251D01*
X1118790Y359408D01*
Y364486D01*
X1116251Y367025D01*
X1111173D01*
X1108634Y364486D01*
Y359408D01*
X1111173Y356868D01*
X1131486D02*
X1126408D01*
X1123869Y359408D01*
Y364486D01*
X1126408Y367025D01*
X1131486D01*
X1134025Y364486D01*
Y361947D01*
X1123869D01*
X1149260Y372103D02*
Y356868D01*
X1141643D01*
X1139104Y359408D01*
Y364486D01*
X1141643Y367025D01*
X1149260D01*
X1154339Y356868D02*
X1159417D01*
X1156878D01*
Y367025D01*
X1154339D01*
X1167035Y356868D02*
Y367025D01*
X1174652D01*
X1177191Y364486D01*
Y356868D01*
X1187348Y351790D02*
X1189887D01*
X1192427Y354329D01*
Y367025D01*
X1184809D01*
X1182270Y364486D01*
Y359408D01*
X1184809Y356868D01*
X1192427D01*
X1054010Y550965D02*
X1064167Y535730D01*
Y550965D02*
X1054010Y535730D01*
X1069245Y543348D02*
X1079402D01*
X1094637Y550965D02*
X1084480D01*
Y543348D01*
X1089558D01*
X1084480D01*
Y535730D01*
X1099715D02*
X1109872Y545887D01*
X1114950Y550965D02*
Y535730D01*
X1122568D01*
X1125107Y538269D01*
Y540808D01*
X1122568Y543348D01*
X1114950D01*
X1122568D01*
X1125107Y545887D01*
Y548426D01*
X1122568Y550965D01*
X1114950D01*
X1130185Y535730D02*
Y545887D01*
X1135264Y550965D01*
X1140342Y545887D01*
Y535730D01*
Y543348D01*
X1130185D01*
X1145420Y535730D02*
Y550965D01*
X1153038D01*
X1155577Y548426D01*
Y543348D01*
X1153038Y540808D01*
X1145420D01*
X1170812Y550965D02*
X1160656D01*
Y535730D01*
X1170812D01*
X1160656Y543348D02*
X1165734D01*
X533651Y1086608D02*
X531111Y1089147D01*
X526033D01*
X523494Y1086608D01*
Y1076451D01*
X526033Y1073912D01*
X531111D01*
X533651Y1076451D01*
X548886Y1073912D02*
X538729D01*
X548886Y1084069D01*
Y1086608D01*
X546347Y1089147D01*
X541268D01*
X538729Y1086608D01*
X553964D02*
X556503Y1089147D01*
X561582D01*
X564121Y1086608D01*
Y1076451D01*
X561582Y1073912D01*
X556503D01*
X553964Y1076451D01*
Y1086608D01*
X569199D02*
X571738Y1089147D01*
X576817D01*
X579356Y1086608D01*
Y1084069D01*
X576817Y1081529D01*
X579356Y1078990D01*
Y1076451D01*
X576817Y1073912D01*
X571738D01*
X569199Y1076451D01*
Y1078990D01*
X571738Y1081529D01*
X569199Y1084069D01*
Y1086608D01*
X571738Y1081529D02*
X576817D01*
X1560065Y1064002D02*
X1557525Y1066541D01*
X1552447D01*
X1549908Y1064002D01*
Y1053845D01*
X1552447Y1051306D01*
X1557525D01*
X1560065Y1053845D01*
X1575300Y1051306D02*
X1565143D01*
X1575300Y1061463D01*
Y1064002D01*
X1572761Y1066541D01*
X1567682D01*
X1565143Y1064002D01*
X1580378D02*
X1582917Y1066541D01*
X1587996D01*
X1590535Y1064002D01*
Y1053845D01*
X1587996Y1051306D01*
X1582917D01*
X1580378Y1053845D01*
Y1064002D01*
X1595613Y1066541D02*
X1605770D01*
Y1064002D01*
X1595613Y1053845D01*
Y1051306D01*
X332746Y441958D02*
X330207Y444497D01*
X325128D01*
X322589Y441958D01*
Y431802D01*
X325128Y429263D01*
X330207D01*
X332746Y431802D01*
X347981Y429263D02*
X337824D01*
X347981Y439419D01*
Y441958D01*
X345442Y444497D01*
X340363D01*
X337824Y441958D01*
X353059D02*
X355598Y444497D01*
X360677D01*
X363216Y441958D01*
Y431802D01*
X360677Y429263D01*
X355598D01*
X353059Y431802D01*
Y441958D01*
X378451Y444497D02*
X373373Y441958D01*
X368294Y436880D01*
Y431802D01*
X370833Y429263D01*
X375912D01*
X378451Y431802D01*
Y434341D01*
X375912Y436880D01*
X368294D01*
X297183Y1079509D02*
X312418Y1089666D01*
X297183D02*
X312418Y1079509D01*
Y1104901D02*
Y1094744D01*
X302261Y1104901D01*
X299722D01*
X297183Y1102362D01*
Y1097283D01*
X299722Y1094744D01*
Y1109979D02*
X297183Y1112518D01*
Y1117597D01*
X299722Y1120136D01*
X309878D01*
X312418Y1117597D01*
Y1112518D01*
X309878Y1109979D01*
X299722D01*
X297183Y1125214D02*
Y1135371D01*
X299722D01*
X309878Y1125214D01*
X312418D01*
X1051569Y1216663D02*
Y1231898D01*
X1059187D01*
X1061726Y1229358D01*
Y1224280D01*
X1059187Y1221741D01*
X1051569D01*
X1056647D02*
X1061726Y1216663D01*
X1076961D02*
X1066804D01*
X1076961Y1226819D01*
Y1229358D01*
X1074422Y1231898D01*
X1069343D01*
X1066804Y1229358D01*
X1082039D02*
X1084578Y1231898D01*
X1089657D01*
X1092196Y1229358D01*
Y1219202D01*
X1089657Y1216663D01*
X1084578D01*
X1082039Y1219202D01*
Y1229358D01*
X1097274Y1231898D02*
X1107431D01*
Y1229358D01*
X1097274Y1219202D01*
Y1216663D01*
X1467104Y862076D02*
Y877311D01*
X1474722D01*
X1477261Y874772D01*
Y869694D01*
X1474722Y867154D01*
X1467104D01*
X1472182D02*
X1477261Y862076D01*
X1492496D02*
X1482339D01*
X1492496Y872233D01*
Y874772D01*
X1489957Y877311D01*
X1484878D01*
X1482339Y874772D01*
X1497574D02*
X1500113Y877311D01*
X1505192D01*
X1507731Y874772D01*
Y864615D01*
X1505192Y862076D01*
X1500113D01*
X1497574Y864615D01*
Y874772D01*
X1522966Y877311D02*
X1517888Y874772D01*
X1512809Y869694D01*
Y864615D01*
X1515348Y862076D01*
X1520427D01*
X1522966Y864615D01*
Y867154D01*
X1520427Y869694D01*
X1512809D01*
X1181114Y1209037D02*
Y1193802D01*
X1191271D01*
X1206506Y1209037D02*
X1196349D01*
Y1193802D01*
X1206506D01*
X1196349Y1201420D02*
X1201427D01*
X1211584Y1209037D02*
Y1193802D01*
X1219202D01*
X1221741Y1196342D01*
Y1206498D01*
X1219202Y1209037D01*
X1211584D01*
X1236976Y1193802D02*
X1226819D01*
X1236976Y1203959D01*
Y1206498D01*
X1234437Y1209037D01*
X1229358D01*
X1226819Y1206498D01*
X1242054D02*
X1244593Y1209037D01*
X1249672D01*
X1252211Y1206498D01*
Y1196342D01*
X1249672Y1193802D01*
X1244593D01*
X1242054Y1196342D01*
Y1206498D01*
X1267446Y1193802D02*
X1257289D01*
X1267446Y1203959D01*
Y1206498D01*
X1264907Y1209037D01*
X1259828D01*
X1257289Y1206498D01*
X1539243Y896633D02*
X1554478D01*
Y906790D01*
X1539243Y922025D02*
Y911868D01*
X1554478D01*
Y922025D01*
X1546860Y911868D02*
Y916947D01*
X1539243Y927103D02*
X1554478D01*
Y934721D01*
X1551938Y937260D01*
X1541782D01*
X1539243Y934721D01*
Y927103D01*
X1554478Y952495D02*
Y942338D01*
X1544321Y952495D01*
X1541782D01*
X1539243Y949956D01*
Y944878D01*
X1541782Y942338D01*
Y957573D02*
X1539243Y960113D01*
Y965191D01*
X1541782Y967730D01*
X1551938D01*
X1554478Y965191D01*
Y960113D01*
X1551938Y957573D01*
X1541782D01*
X1554478Y972809D02*
Y977887D01*
Y975348D01*
X1539243D01*
X1541782Y972809D01*
X1119632Y1109467D02*
X1129789Y1094232D01*
Y1109467D02*
X1119632Y1094232D01*
X1145024D02*
X1134867D01*
X1145024Y1104389D01*
Y1106928D01*
X1142485Y1109467D01*
X1137406D01*
X1134867Y1106928D01*
X1150102D02*
X1152641Y1109467D01*
X1157720D01*
X1160259Y1106928D01*
Y1096771D01*
X1157720Y1094232D01*
X1152641D01*
X1150102Y1096771D01*
Y1106928D01*
X1175494Y1109467D02*
X1170416Y1106928D01*
X1165337Y1101850D01*
Y1096771D01*
X1167876Y1094232D01*
X1172955D01*
X1175494Y1096771D01*
Y1099310D01*
X1172955Y1101850D01*
X1165337D01*
X505469Y1141732D02*
Y1156967D01*
X513087D01*
X515626Y1154428D01*
Y1149350D01*
X513087Y1146811D01*
X505469D01*
X510547D02*
X515626Y1141732D01*
X530861D02*
X520704D01*
X530861Y1151889D01*
Y1154428D01*
X528322Y1156967D01*
X523243D01*
X520704Y1154428D01*
X535939D02*
X538478Y1156967D01*
X543557D01*
X546096Y1154428D01*
Y1144272D01*
X543557Y1141732D01*
X538478D01*
X535939Y1144272D01*
Y1154428D01*
X561331Y1156967D02*
X551174D01*
Y1149350D01*
X556253Y1151889D01*
X558792D01*
X561331Y1149350D01*
Y1144272D01*
X558792Y1141732D01*
X553713D01*
X551174Y1144272D01*
X521968Y1076969D02*
X506732D01*
Y1084587D01*
X509272Y1087126D01*
X514350D01*
X516889Y1084587D01*
Y1076969D01*
Y1082047D02*
X521968Y1087126D01*
Y1102361D02*
Y1092204D01*
X511811Y1102361D01*
X509272D01*
X506732Y1099822D01*
Y1094743D01*
X509272Y1092204D01*
Y1107439D02*
X506732Y1109978D01*
Y1115057D01*
X509272Y1117596D01*
X519428D01*
X521968Y1115057D01*
Y1109978D01*
X519428Y1107439D01*
X509272D01*
X521968Y1130292D02*
X506732D01*
X514350Y1122674D01*
Y1132831D01*
X439417Y1076969D02*
X424183D01*
Y1084587D01*
X426722Y1087126D01*
X431800D01*
X434339Y1084587D01*
Y1076969D01*
Y1082047D02*
X439417Y1087126D01*
Y1102361D02*
Y1092204D01*
X429261Y1102361D01*
X426722D01*
X424183Y1099822D01*
Y1094743D01*
X426722Y1092204D01*
Y1107439D02*
X424183Y1109978D01*
Y1115057D01*
X426722Y1117596D01*
X436878D01*
X439417Y1115057D01*
Y1109978D01*
X436878Y1107439D01*
X426722D01*
Y1122674D02*
X424183Y1125213D01*
Y1130292D01*
X426722Y1132831D01*
X429261D01*
X431800Y1130292D01*
Y1127753D01*
Y1130292D01*
X434339Y1132831D01*
X436878D01*
X439417Y1130292D01*
Y1125213D01*
X436878Y1122674D01*
X424183Y981721D02*
Y986799D01*
Y984260D01*
X439417D01*
Y981721D01*
Y986799D01*
X426722Y1004574D02*
X424183Y1002035D01*
Y996956D01*
X426722Y994417D01*
X436878D01*
X439417Y996956D01*
Y1002035D01*
X436878Y1004574D01*
X439417Y1019809D02*
Y1009652D01*
X429261Y1019809D01*
X426722D01*
X424183Y1017270D01*
Y1012191D01*
X426722Y1009652D01*
Y1024887D02*
X424183Y1027426D01*
Y1032505D01*
X426722Y1035044D01*
X436878D01*
X439417Y1032505D01*
Y1027426D01*
X436878Y1024887D01*
X426722D01*
X439417Y1047740D02*
X424183D01*
X431800Y1040122D01*
Y1050279D01*
X281943Y1193809D02*
X297178Y1203966D01*
X281943D02*
X297178Y1193809D01*
Y1219201D02*
Y1209044D01*
X287021Y1219201D01*
X284482D01*
X281943Y1216662D01*
Y1211583D01*
X284482Y1209044D01*
Y1224279D02*
X281943Y1226818D01*
Y1231897D01*
X284482Y1234436D01*
X294638D01*
X297178Y1231897D01*
Y1226818D01*
X294638Y1224279D01*
X284482D01*
X297178Y1247132D02*
X281943D01*
X289560Y1239514D01*
Y1249671D01*
X680717Y525789D02*
X665482D01*
Y533406D01*
X668022Y535945D01*
X673100D01*
X675639Y533406D01*
Y525789D01*
Y530867D02*
X680717Y535945D01*
X668022Y541024D02*
X665482Y543563D01*
Y548641D01*
X668022Y551180D01*
X670561D01*
X673100Y548641D01*
Y546102D01*
Y548641D01*
X675639Y551180D01*
X678178D01*
X680717Y548641D01*
Y543563D01*
X678178Y541024D01*
X680717Y556259D02*
Y561337D01*
Y558798D01*
X665482D01*
X668022Y556259D01*
X665482Y579111D02*
Y568955D01*
X673100D01*
X670561Y574033D01*
Y576572D01*
X673100Y579111D01*
X678178D01*
X680717Y576572D01*
Y571494D01*
X678178Y568955D01*
X1103633Y1121421D02*
Y1126499D01*
Y1123960D01*
X1118867D01*
Y1121421D01*
Y1126499D01*
X1106172Y1144274D02*
X1103633Y1141734D01*
Y1136656D01*
X1106172Y1134117D01*
X1116328D01*
X1118867Y1136656D01*
Y1141734D01*
X1116328Y1144274D01*
X1118867Y1159509D02*
Y1149352D01*
X1108711Y1159509D01*
X1106172D01*
X1103633Y1156970D01*
Y1151891D01*
X1106172Y1149352D01*
Y1164587D02*
X1103633Y1167126D01*
Y1172205D01*
X1106172Y1174744D01*
X1116328D01*
X1118867Y1172205D01*
Y1167126D01*
X1116328Y1164587D01*
X1106172D01*
Y1179822D02*
X1103633Y1182361D01*
Y1187440D01*
X1106172Y1189979D01*
X1108711D01*
X1111250Y1187440D01*
Y1184901D01*
Y1187440D01*
X1113789Y1189979D01*
X1116328D01*
X1118867Y1187440D01*
Y1182361D01*
X1116328Y1179822D01*
X392433Y753119D02*
X407668Y763276D01*
X392433D02*
X407668Y753119D01*
Y778511D02*
Y768354D01*
X397511Y778511D01*
X394972D01*
X392433Y775972D01*
Y770893D01*
X394972Y768354D01*
Y783589D02*
X392433Y786128D01*
Y791207D01*
X394972Y793746D01*
X405128D01*
X407668Y791207D01*
Y786128D01*
X405128Y783589D01*
X394972D01*
Y798824D02*
X392433Y801363D01*
Y806442D01*
X394972Y808981D01*
X397511D01*
X400050Y806442D01*
Y803903D01*
Y806442D01*
X402589Y808981D01*
X405128D01*
X407668Y806442D01*
Y801363D01*
X405128Y798824D01*
X392433Y911869D02*
X407668Y922026D01*
X392433D02*
X407668Y911869D01*
Y937261D02*
Y927104D01*
X397511Y937261D01*
X394972D01*
X392433Y934722D01*
Y929643D01*
X394972Y927104D01*
Y942339D02*
X392433Y944878D01*
Y949957D01*
X394972Y952496D01*
X405128D01*
X407668Y949957D01*
Y944878D01*
X405128Y942339D01*
X394972D01*
X392433Y967731D02*
Y957574D01*
X400050D01*
X397511Y962653D01*
Y965192D01*
X400050Y967731D01*
X405128D01*
X407668Y965192D01*
Y960113D01*
X405128Y957574D01*
X1457969Y1065533D02*
Y1080768D01*
X1465587D01*
X1468126Y1078228D01*
Y1073150D01*
X1465587Y1070611D01*
X1457969D01*
X1463047D02*
X1468126Y1065533D01*
X1483361D02*
X1473204D01*
X1483361Y1075689D01*
Y1078228D01*
X1480822Y1080768D01*
X1475743D01*
X1473204Y1078228D01*
X1488439D02*
X1490978Y1080768D01*
X1496057D01*
X1498596Y1078228D01*
Y1068072D01*
X1496057Y1065533D01*
X1490978D01*
X1488439Y1068072D01*
Y1078228D01*
X1513831Y1065533D02*
X1503674D01*
X1513831Y1075689D01*
Y1078228D01*
X1511292Y1080768D01*
X1506213D01*
X1503674Y1078228D01*
X820417Y735339D02*
X805182D01*
Y742956D01*
X807722Y745495D01*
X812800D01*
X815339Y742956D01*
Y735339D01*
Y740417D02*
X820417Y745495D01*
X807722Y750574D02*
X805182Y753113D01*
Y758191D01*
X807722Y760730D01*
X810261D01*
X812800Y758191D01*
Y755652D01*
Y758191D01*
X815339Y760730D01*
X817878D01*
X820417Y758191D01*
Y753113D01*
X817878Y750574D01*
X820417Y765809D02*
Y770887D01*
Y768348D01*
X805182D01*
X807722Y765809D01*
X820417Y786122D02*
X805182D01*
X812800Y778505D01*
Y788661D01*
X751837Y735339D02*
X736602D01*
Y742956D01*
X739142Y745495D01*
X744220D01*
X746759Y742956D01*
Y735339D01*
Y740417D02*
X751837Y745495D01*
X739142Y750574D02*
X736602Y753113D01*
Y758191D01*
X739142Y760730D01*
X741681D01*
X744220Y758191D01*
Y755652D01*
Y758191D01*
X746759Y760730D01*
X749298D01*
X751837Y758191D01*
Y753113D01*
X749298Y750574D01*
X751837Y765809D02*
Y770887D01*
Y768348D01*
X736602D01*
X739142Y765809D01*
Y778505D02*
X736602Y781044D01*
Y786122D01*
X739142Y788661D01*
X741681D01*
X744220Y786122D01*
Y783583D01*
Y786122D01*
X746759Y788661D01*
X749298D01*
X751837Y786122D01*
Y781044D01*
X749298Y778505D01*
X728989Y455933D02*
Y471167D01*
X736606D01*
X739145Y468628D01*
Y463550D01*
X736606Y461011D01*
X728989D01*
X734067D02*
X739145Y455933D01*
X744224Y468628D02*
X746763Y471167D01*
X751841D01*
X754380Y468628D01*
Y466089D01*
X751841Y463550D01*
X749302D01*
X751841D01*
X754380Y461011D01*
Y458472D01*
X751841Y455933D01*
X746763D01*
X744224Y458472D01*
X759459Y455933D02*
X764537D01*
X761998D01*
Y471167D01*
X759459Y468628D01*
X782311Y455933D02*
X772155D01*
X782311Y466089D01*
Y468628D01*
X779772Y471167D01*
X774694D01*
X772155Y468628D01*
X731528Y481333D02*
Y496567D01*
X739145D01*
X741684Y494028D01*
Y488950D01*
X739145Y486411D01*
X731528D01*
X736606D02*
X741684Y481333D01*
X746763Y494028D02*
X749302Y496567D01*
X754380D01*
X756920Y494028D01*
Y491489D01*
X754380Y488950D01*
X751841D01*
X754380D01*
X756920Y486411D01*
Y483872D01*
X754380Y481333D01*
X749302D01*
X746763Y483872D01*
X761998Y481333D02*
X767076D01*
X764537D01*
Y496567D01*
X761998Y494028D01*
X774694Y481333D02*
X779772D01*
X777233D01*
Y496567D01*
X774694Y494028D01*
X439417Y468639D02*
X424183D01*
Y476256D01*
X426722Y478795D01*
X431800D01*
X434339Y476256D01*
Y468639D01*
Y473717D02*
X439417Y478795D01*
X426722Y483874D02*
X424183Y486413D01*
Y491491D01*
X426722Y494030D01*
X429261D01*
X431800Y491491D01*
Y488952D01*
Y491491D01*
X434339Y494030D01*
X436878D01*
X439417Y491491D01*
Y486413D01*
X436878Y483874D01*
X439417Y499109D02*
Y504187D01*
Y501648D01*
X424183D01*
X426722Y499109D01*
Y511805D02*
X424183Y514344D01*
Y519422D01*
X426722Y521961D01*
X436878D01*
X439417Y519422D01*
Y514344D01*
X436878Y511805D01*
X426722D01*
X464818Y467369D02*
X449582D01*
Y474987D01*
X452122Y477526D01*
X457200D01*
X459739Y474987D01*
Y467369D01*
Y472447D02*
X464818Y477526D01*
X452122Y482604D02*
X449582Y485143D01*
Y490222D01*
X452122Y492761D01*
X454661D01*
X457200Y490222D01*
Y487682D01*
Y490222D01*
X459739Y492761D01*
X462278D01*
X464818Y490222D01*
Y485143D01*
X462278Y482604D01*
X452122Y497839D02*
X449582Y500378D01*
Y505457D01*
X452122Y507996D01*
X462278D01*
X464818Y505457D01*
Y500378D01*
X462278Y497839D01*
X452122D01*
X462278Y513074D02*
X464818Y515613D01*
Y520692D01*
X462278Y523231D01*
X452122D01*
X449582Y520692D01*
Y515613D01*
X452122Y513074D01*
X454661D01*
X457200Y515613D01*
Y523231D01*
X1346208Y1065533D02*
Y1080768D01*
X1353826D01*
X1356365Y1078228D01*
Y1073150D01*
X1353826Y1070611D01*
X1346208D01*
X1351287D02*
X1356365Y1065533D01*
X1371600D02*
X1361443D01*
X1371600Y1075689D01*
Y1078228D01*
X1369061Y1080768D01*
X1363983D01*
X1361443Y1078228D01*
X1376678D02*
X1379218Y1080768D01*
X1384296D01*
X1386835Y1078228D01*
Y1068072D01*
X1384296Y1065533D01*
X1379218D01*
X1376678Y1068072D01*
Y1078228D01*
X1391913Y1065533D02*
X1396992D01*
X1394453D01*
Y1080768D01*
X1391913Y1078228D01*
X1404622Y1055376D02*
X1402083Y1052837D01*
Y1047758D01*
X1404622Y1045219D01*
X1414778D01*
X1417318Y1047758D01*
Y1052837D01*
X1414778Y1055376D01*
X1417318Y1070611D02*
Y1060454D01*
X1407161Y1070611D01*
X1404622D01*
X1402083Y1068072D01*
Y1062993D01*
X1404622Y1060454D01*
Y1075689D02*
X1402083Y1078228D01*
Y1083307D01*
X1404622Y1085846D01*
X1414778D01*
X1417318Y1083307D01*
Y1078228D01*
X1414778Y1075689D01*
X1404622D01*
X1402083Y1101081D02*
Y1090924D01*
X1409700D01*
X1407161Y1096003D01*
Y1098542D01*
X1409700Y1101081D01*
X1414778D01*
X1417318Y1098542D01*
Y1093463D01*
X1414778Y1090924D01*
X598932Y1223767D02*
X609089Y1208532D01*
Y1223767D02*
X598932Y1208532D01*
X624324D02*
X614167D01*
X624324Y1218689D01*
Y1221228D01*
X621785Y1223767D01*
X616706D01*
X614167Y1221228D01*
X629402D02*
X631941Y1223767D01*
X637020D01*
X639559Y1221228D01*
Y1211071D01*
X637020Y1208532D01*
X631941D01*
X629402Y1211071D01*
Y1221228D01*
X654794Y1208532D02*
X644637D01*
X654794Y1218689D01*
Y1221228D01*
X652255Y1223767D01*
X647176D01*
X644637Y1221228D01*
X937262Y1252226D02*
Y1247147D01*
Y1249687D01*
X949958D01*
X952497Y1247147D01*
Y1244608D01*
X949958Y1242069D01*
X952497Y1267461D02*
Y1257304D01*
X942341Y1267461D01*
X939802D01*
X937262Y1264922D01*
Y1259843D01*
X939802Y1257304D01*
Y1272539D02*
X937262Y1275078D01*
Y1280157D01*
X939802Y1282696D01*
X949958D01*
X952497Y1280157D01*
Y1275078D01*
X949958Y1272539D01*
X939802D01*
X952497Y1295392D02*
X937262D01*
X944880Y1287774D01*
Y1297931D01*
X1033782Y1032521D02*
Y1037599D01*
Y1035060D01*
X1049017D01*
Y1032521D01*
Y1037599D01*
X1036322Y1055374D02*
X1033782Y1052834D01*
Y1047756D01*
X1036322Y1045217D01*
X1046478D01*
X1049017Y1047756D01*
Y1052834D01*
X1046478Y1055374D01*
X1049017Y1070609D02*
Y1060452D01*
X1038861Y1070609D01*
X1036322D01*
X1033782Y1068070D01*
Y1062991D01*
X1036322Y1060452D01*
Y1075687D02*
X1033782Y1078226D01*
Y1083305D01*
X1036322Y1085844D01*
X1046478D01*
X1049017Y1083305D01*
Y1078226D01*
X1046478Y1075687D01*
X1036322D01*
X1049017Y1101079D02*
Y1090922D01*
X1038861Y1101079D01*
X1036322D01*
X1033782Y1098540D01*
Y1093461D01*
X1036322Y1090922D01*
X1071877Y1382010D02*
X1069337Y1384549D01*
X1064259D01*
X1061720Y1382010D01*
Y1371853D01*
X1064259Y1369314D01*
X1069337D01*
X1071877Y1371853D01*
X1087112Y1369314D02*
X1076955D01*
X1087112Y1379471D01*
Y1382010D01*
X1084573Y1384549D01*
X1079494D01*
X1076955Y1382010D01*
X1092190D02*
X1094729Y1384549D01*
X1099808D01*
X1102347Y1382010D01*
Y1371853D01*
X1099808Y1369314D01*
X1094729D01*
X1092190Y1371853D01*
Y1382010D01*
X1115043Y1369314D02*
Y1384549D01*
X1107425Y1376931D01*
X1117582D01*
X1267466Y871218D02*
X1264927Y873757D01*
X1259848D01*
X1257309Y871218D01*
Y861062D01*
X1259848Y858522D01*
X1264927D01*
X1267466Y861062D01*
X1282701Y858522D02*
X1272544D01*
X1282701Y868679D01*
Y871218D01*
X1280162Y873757D01*
X1275083D01*
X1272544Y871218D01*
X1287779D02*
X1290318Y873757D01*
X1295397D01*
X1297936Y871218D01*
Y861062D01*
X1295397Y858522D01*
X1290318D01*
X1287779Y861062D01*
Y871218D01*
X1303014D02*
X1305553Y873757D01*
X1310632D01*
X1313171Y871218D01*
Y868679D01*
X1310632Y866140D01*
X1308093D01*
X1310632D01*
X1313171Y863601D01*
Y861062D01*
X1310632Y858522D01*
X1305553D01*
X1303014Y861062D01*
X990606Y1229358D02*
X988067Y1231898D01*
X982988D01*
X980449Y1229358D01*
Y1219202D01*
X982988Y1216663D01*
X988067D01*
X990606Y1219202D01*
X1005841Y1216663D02*
X995684D01*
X1005841Y1226819D01*
Y1229358D01*
X1003302Y1231898D01*
X998223D01*
X995684Y1229358D01*
X1010919D02*
X1013458Y1231898D01*
X1018537D01*
X1021076Y1229358D01*
Y1219202D01*
X1018537Y1216663D01*
X1013458D01*
X1010919Y1219202D01*
Y1229358D01*
X1036311Y1216663D02*
X1026154D01*
X1036311Y1226819D01*
Y1229358D01*
X1033772Y1231898D01*
X1028693D01*
X1026154Y1229358D01*
X937262Y1094745D02*
X934723Y1092206D01*
Y1087127D01*
X937262Y1084588D01*
X947418D01*
X949958Y1087127D01*
Y1092206D01*
X947418Y1094745D01*
X949958Y1109980D02*
Y1099823D01*
X939801Y1109980D01*
X937262D01*
X934723Y1107441D01*
Y1102363D01*
X937262Y1099823D01*
Y1115058D02*
X934723Y1117598D01*
Y1122676D01*
X937262Y1125215D01*
X947418D01*
X949958Y1122676D01*
Y1117598D01*
X947418Y1115058D01*
X937262D01*
X949958Y1130293D02*
Y1135372D01*
Y1132833D01*
X934723D01*
X937262Y1130293D01*
X1038863Y1118880D02*
Y1123959D01*
Y1121420D01*
X1054098D01*
Y1118880D01*
Y1123959D01*
X1041402Y1141733D02*
X1038863Y1139194D01*
Y1134115D01*
X1041402Y1131576D01*
X1051558D01*
X1054098Y1134115D01*
Y1139194D01*
X1051558Y1141733D01*
X1054098Y1156968D02*
Y1146811D01*
X1043941Y1156968D01*
X1041402D01*
X1038863Y1154429D01*
Y1149350D01*
X1041402Y1146811D01*
Y1162046D02*
X1038863Y1164585D01*
Y1169664D01*
X1041402Y1172203D01*
X1051558D01*
X1054098Y1169664D01*
Y1164585D01*
X1051558Y1162046D01*
X1041402D01*
X1054098Y1177281D02*
Y1182360D01*
Y1179821D01*
X1038863D01*
X1041402Y1177281D01*
X1254768Y916937D02*
X1264925Y901702D01*
Y916937D02*
X1254768Y901702D01*
X1280160D02*
X1270003D01*
X1280160Y911859D01*
Y914398D01*
X1277621Y916937D01*
X1272542D01*
X1270003Y914398D01*
X1285238D02*
X1287778Y916937D01*
X1292856D01*
X1295395Y914398D01*
Y904242D01*
X1292856Y901702D01*
X1287778D01*
X1285238Y904242D01*
Y914398D01*
X1300473Y901702D02*
X1305552D01*
X1303013D01*
Y916937D01*
X1300473Y914398D01*
X769626Y1029967D02*
X764547D01*
X767087D01*
Y1017272D01*
X764547Y1014733D01*
X762008D01*
X759469Y1017272D01*
X784861Y1014733D02*
X774704D01*
X784861Y1024889D01*
Y1027428D01*
X782322Y1029967D01*
X777243D01*
X774704Y1027428D01*
X789939D02*
X792478Y1029967D01*
X797557D01*
X800096Y1027428D01*
Y1017272D01*
X797557Y1014733D01*
X792478D01*
X789939Y1017272D01*
Y1027428D01*
X815331Y1014733D02*
X805174D01*
X815331Y1024889D01*
Y1027428D01*
X812792Y1029967D01*
X807713D01*
X805174Y1027428D01*
X1242065Y1118867D02*
X1236987D01*
X1239526D01*
Y1106172D01*
X1236987Y1103633D01*
X1234447D01*
X1231908Y1106172D01*
X1257300Y1103633D02*
X1247143D01*
X1257300Y1113789D01*
Y1116328D01*
X1254761Y1118867D01*
X1249682D01*
X1247143Y1116328D01*
X1262378D02*
X1264918Y1118867D01*
X1269996D01*
X1272535Y1116328D01*
Y1106172D01*
X1269996Y1103633D01*
X1264918D01*
X1262378Y1106172D01*
Y1116328D01*
X1277613Y1103633D02*
X1282692D01*
X1280153D01*
Y1118867D01*
X1277613Y1116328D01*
X727719Y513083D02*
Y528317D01*
X735337D01*
X737876Y525778D01*
Y520700D01*
X735337Y518161D01*
X727719D01*
X732797D02*
X737876Y513083D01*
X742954Y525778D02*
X745493Y528317D01*
X750572D01*
X753111Y525778D01*
Y523239D01*
X750572Y520700D01*
X748033D01*
X750572D01*
X753111Y518161D01*
Y515622D01*
X750572Y513083D01*
X745493D01*
X742954Y515622D01*
X758189Y525778D02*
X760728Y528317D01*
X765807D01*
X768346Y525778D01*
Y515622D01*
X765807Y513083D01*
X760728D01*
X758189Y515622D01*
Y525778D01*
X773424D02*
X775963Y528317D01*
X781042D01*
X783581Y525778D01*
Y523239D01*
X781042Y520700D01*
X783581Y518161D01*
Y515622D01*
X781042Y513083D01*
X775963D01*
X773424Y515622D01*
Y518161D01*
X775963Y520700D01*
X773424Y523239D01*
Y525778D01*
X775963Y520700D02*
X781042D01*
X727719Y538483D02*
Y553717D01*
X735337D01*
X737876Y551178D01*
Y546100D01*
X735337Y543561D01*
X727719D01*
X732797D02*
X737876Y538483D01*
X742954Y551178D02*
X745493Y553717D01*
X750572D01*
X753111Y551178D01*
Y548639D01*
X750572Y546100D01*
X748033D01*
X750572D01*
X753111Y543561D01*
Y541022D01*
X750572Y538483D01*
X745493D01*
X742954Y541022D01*
X758189Y551178D02*
X760728Y553717D01*
X765807D01*
X768346Y551178D01*
Y541022D01*
X765807Y538483D01*
X760728D01*
X758189Y541022D01*
Y551178D01*
X773424Y553717D02*
X783581D01*
Y551178D01*
X773424Y541022D01*
Y538483D01*
X727719Y563882D02*
Y579118D01*
X735337D01*
X737876Y576578D01*
Y571500D01*
X735337Y568961D01*
X727719D01*
X732797D02*
X737876Y563882D01*
X742954Y576578D02*
X745493Y579118D01*
X750572D01*
X753111Y576578D01*
Y574039D01*
X750572Y571500D01*
X748033D01*
X750572D01*
X753111Y568961D01*
Y566422D01*
X750572Y563882D01*
X745493D01*
X742954Y566422D01*
X758189Y576578D02*
X760728Y579118D01*
X765807D01*
X768346Y576578D01*
Y566422D01*
X765807Y563882D01*
X760728D01*
X758189Y566422D01*
Y576578D01*
X783581Y579118D02*
X778503Y576578D01*
X773424Y571500D01*
Y566422D01*
X775963Y563882D01*
X781042D01*
X783581Y566422D01*
Y568961D01*
X781042Y571500D01*
X773424D01*
X727719Y589282D02*
Y604518D01*
X735337D01*
X737876Y601978D01*
Y596900D01*
X735337Y594361D01*
X727719D01*
X732797D02*
X737876Y589282D01*
X742954Y601978D02*
X745493Y604518D01*
X750572D01*
X753111Y601978D01*
Y599439D01*
X750572Y596900D01*
X748033D01*
X750572D01*
X753111Y594361D01*
Y591822D01*
X750572Y589282D01*
X745493D01*
X742954Y591822D01*
X758189Y601978D02*
X760728Y604518D01*
X765807D01*
X768346Y601978D01*
Y591822D01*
X765807Y589282D01*
X760728D01*
X758189Y591822D01*
Y601978D01*
X783581Y604518D02*
X773424D01*
Y596900D01*
X778503Y599439D01*
X781042D01*
X783581Y596900D01*
Y591822D01*
X781042Y589282D01*
X775963D01*
X773424Y591822D01*
X566418Y467369D02*
X551183D01*
Y474987D01*
X553722Y477526D01*
X558800D01*
X561339Y474987D01*
Y467369D01*
Y472447D02*
X566418Y477526D01*
X553722Y482604D02*
X551183Y485143D01*
Y490222D01*
X553722Y492761D01*
X556261D01*
X558800Y490222D01*
Y487682D01*
Y490222D01*
X561339Y492761D01*
X563878D01*
X566418Y490222D01*
Y485143D01*
X563878Y482604D01*
X553722Y497839D02*
X551183Y500378D01*
Y505457D01*
X553722Y507996D01*
X563878D01*
X566418Y505457D01*
Y500378D01*
X563878Y497839D01*
X553722D01*
X566418Y520692D02*
X551183D01*
X558800Y513074D01*
Y523231D01*
X541017Y467369D02*
X525783D01*
Y474987D01*
X528322Y477526D01*
X533400D01*
X535939Y474987D01*
Y467369D01*
Y472447D02*
X541017Y477526D01*
X528322Y482604D02*
X525783Y485143D01*
Y490222D01*
X528322Y492761D01*
X530861D01*
X533400Y490222D01*
Y487682D01*
Y490222D01*
X535939Y492761D01*
X538478D01*
X541017Y490222D01*
Y485143D01*
X538478Y482604D01*
X528322Y497839D02*
X525783Y500378D01*
Y505457D01*
X528322Y507996D01*
X538478D01*
X541017Y505457D01*
Y500378D01*
X538478Y497839D01*
X528322D01*
Y513074D02*
X525783Y515613D01*
Y520692D01*
X528322Y523231D01*
X530861D01*
X533400Y520692D01*
Y518153D01*
Y520692D01*
X535939Y523231D01*
X538478D01*
X541017Y520692D01*
Y515613D01*
X538478Y513074D01*
X515617Y467369D02*
X500382D01*
Y474987D01*
X502922Y477526D01*
X508000D01*
X510539Y474987D01*
Y467369D01*
Y472447D02*
X515617Y477526D01*
X502922Y482604D02*
X500382Y485143D01*
Y490222D01*
X502922Y492761D01*
X505461D01*
X508000Y490222D01*
Y487682D01*
Y490222D01*
X510539Y492761D01*
X513078D01*
X515617Y490222D01*
Y485143D01*
X513078Y482604D01*
X502922Y497839D02*
X500382Y500378D01*
Y505457D01*
X502922Y507996D01*
X513078D01*
X515617Y505457D01*
Y500378D01*
X513078Y497839D01*
X502922D01*
X515617Y523231D02*
Y513074D01*
X505461Y523231D01*
X502922D01*
X500382Y520692D01*
Y515613D01*
X502922Y513074D01*
X490218Y469908D02*
X474982D01*
Y477526D01*
X477522Y480065D01*
X482600D01*
X485139Y477526D01*
Y469908D01*
Y474987D02*
X490218Y480065D01*
X477522Y485143D02*
X474982Y487682D01*
Y492761D01*
X477522Y495300D01*
X480061D01*
X482600Y492761D01*
Y490222D01*
Y492761D01*
X485139Y495300D01*
X487678D01*
X490218Y492761D01*
Y487682D01*
X487678Y485143D01*
X477522Y500378D02*
X474982Y502918D01*
Y507996D01*
X477522Y510535D01*
X487678D01*
X490218Y507996D01*
Y502918D01*
X487678Y500378D01*
X477522D01*
X490218Y515613D02*
Y520692D01*
Y518153D01*
X474982D01*
X477522Y515613D01*
X426466Y385313D02*
X436623Y370078D01*
Y385313D02*
X426466Y370078D01*
X441701Y382774D02*
X444240Y385313D01*
X449319D01*
X451858Y382774D01*
Y380235D01*
X449319Y377696D01*
X446779D01*
X449319D01*
X451858Y375156D01*
Y372617D01*
X449319Y370078D01*
X444240D01*
X441701Y372617D01*
X456936Y382774D02*
X459475Y385313D01*
X464554D01*
X467093Y382774D01*
Y372617D01*
X464554Y370078D01*
X459475D01*
X456936Y372617D01*
Y382774D01*
X472171Y370078D02*
X477250D01*
X474710D01*
Y385313D01*
X472171Y382774D01*
D14*
X1140170Y1189750D02*
X1154140D01*
Y1212610D01*
X1140170D02*
X1154140D01*
X1069340Y1196340D02*
X1083310D01*
X1069340Y1211580D02*
X1083310D01*
X1558530Y855690D02*
Y869660D01*
X1535670D02*
X1558530D01*
X1535670Y855690D02*
Y869660D01*
X1483360Y838200D02*
X1497330D01*
X1483360Y853440D02*
X1497330D01*
X467360Y1141730D02*
X481330D01*
X467360Y1156970D02*
X481330D01*
X496570Y1096010D02*
Y1109980D01*
X481330Y1096010D02*
Y1109980D01*
X464820Y1096010D02*
Y1109980D01*
X449580Y1096010D02*
Y1109980D01*
X661670Y543560D02*
Y557530D01*
X646430Y543560D02*
Y557530D01*
X439420Y547370D02*
Y561340D01*
X424180Y547370D02*
Y561340D01*
X500380Y547370D02*
Y561340D01*
X515620Y547370D02*
Y561340D01*
X474980Y547370D02*
Y561340D01*
X490220Y547370D02*
Y561340D01*
X551180Y547370D02*
Y561340D01*
X566420Y547370D02*
Y561340D01*
X525780Y547370D02*
Y561340D01*
X541020Y547370D02*
Y561340D01*
X464820Y547370D02*
Y561340D01*
X449580Y547370D02*
Y561340D01*
X1337310Y873760D02*
X1351280D01*
X1337310Y858520D02*
X1351280D01*
X1004570Y1207770D02*
X1018540D01*
X1004570Y1192530D02*
X1018540D01*
X1436370Y1064260D02*
Y1078230D01*
X1421130Y1064260D02*
Y1078230D01*
X1477010Y1061720D02*
X1490980D01*
X1477010Y1046480D02*
X1490980D01*
X777240Y755650D02*
Y769620D01*
X762000Y755650D02*
Y769620D01*
X800100Y755650D02*
Y769620D01*
X784860Y755650D02*
Y769620D01*
X807720Y455930D02*
X821690D01*
X807720Y471170D02*
X821690D01*
X807720Y481330D02*
X821690D01*
X807720Y496570D02*
X821690D01*
X807720Y528320D02*
X821690D01*
X807720Y513080D02*
X821690D01*
X807720Y604520D02*
X821690D01*
X807720Y589280D02*
X821690D01*
X807720Y579120D02*
X821690D01*
X807720Y563880D02*
X821690D01*
X807720Y553720D02*
X821690D01*
X807720Y538480D02*
X821690D01*
X1366520Y1046480D02*
X1380490D01*
X1366520Y1061720D02*
X1380490D01*
X986790Y1117600D02*
X1000760D01*
X986790Y1102360D02*
X1000760D01*
X1077870Y1360620D02*
X1091840D01*
X1077870Y1345380D02*
X1091840D01*
D15*
X1151600Y1201180D02*
D03*
D16*
X1547100Y867120D02*
D03*
M02*
